<?xml version="1.0" encoding="UTF-8"?>
<svg width="116px" height="100px" viewBox="0 0 116 100" version="1.1" xmlns="http://www.w3.org/2000/svg" xmlns:xlink="http://www.w3.org/1999/xlink">
    <title>Group 14 Copy 4</title>
    <defs>
        <polygon id="path-1" points="0 0 14.7798239 0 14.7798239 99.270771 0 99.270771"></polygon>
    </defs>
    <g id="Page-1" stroke="none" stroke-width="1" fill="none" fill-rule="evenodd">
        <g id="Group-14-Copy-4">
            <path d="M10.214052,2.99448948 C6.15432819,2.95926775 2.94411901,6.28520547 2.94076055,10.2216532 C2.9365715,14.240285 6.21722414,17.5125515 10.1997956,17.5091996 C14.1379205,17.5066812 17.4672127,14.3048581 17.454669,10.219976 C17.4403771,6.19631253 14.2209432,2.99197364 10.214052,2.99448948 L10.214052,2.99448948 Z M12.82046,96.2046069 L12.82046,95.7265977 L12.82046,75.1067902 L12.82046,54.1045753 C12.82046,51.6231205 12.8238145,49.1408271 12.82046,46.6585337 C12.8187828,45.5733689 12.2024025,44.6861168 11.2203871,44.486527 C10.6887067,44.3783459 10.1201274,44.3766687 9.57670636,44.4253082 C8.33220521,44.5360051 7.59758054,45.3830039 7.58919441,46.6350525 C7.58332413,47.610359 7.57745384,48.5856655 7.57745384,49.5618106 C7.57745384,53.4538119 7.58080829,57.3466517 7.5816469,61.2394916 L7.5816469,79.4415789 L7.5816469,95.7987184 L7.5816469,96.2046069 L12.82046,96.2046069 Z M15.7975349,99.1774887 L4.65656602,99.1774887 C4.64817989,99.0399563 4.63392348,98.9082941 4.63392348,98.7757933 C4.63308487,82.409429 4.63224625,66.0439034 4.63392348,49.6775392 C4.63392348,48.4900637 4.60624926,47.3000723 4.67585411,46.1159513 C4.79913017,43.973296 6.30863292,42.1778264 8.39342393,41.6293737 C8.66597304,41.5580916 8.73893234,41.4440403 8.73809373,41.1765229 C8.73222344,34.3560863 8.73222344,27.5364883 8.73725511,20.7160517 C8.73725511,20.4611135 8.69700171,20.3395147 8.39845561,20.282489 C5.29978191,19.6879126 2.92818537,18.0358457 1.33314414,15.3095161 C0.652190675,14.1463603 0.257204123,12.878378 0.0886429829,11.5357592 C-0.262735712,8.74737217 0.43415139,6.23992039 2.11473112,4.00837216 C3.30556106,2.42758734 4.86034889,1.29546028 6.72458478,0.64805132 C10.1092254,-0.526844986 13.3060168,-0.119279244 16.2277432,1.9940246 C18.5825675,3.69724687 19.9495061,6.02271971 20.3235273,8.90083829 C20.7252228,11.9978348 19.8664834,14.7367436 17.8068508,17.0798273 C16.2436768,18.8568475 14.2553263,19.8975658 11.9399168,20.3227424 C11.7537448,20.3571255 11.6757538,20.4216987 11.6900102,20.6053549 C11.6958805,20.6892161 11.6900102,20.7747546 11.6900102,20.8594545 L11.6900102,41.0012528 C11.6900102,41.501066 11.6891716,41.5060976 12.1579561,41.6419529 C13.8863367,42.1426046 15.8084369,43.891112 15.7866329,46.5931219 C15.7774082,47.7067995 15.7966963,48.8204771 15.7966963,49.9341546 C15.7975349,66.1730498 15.7975349,82.4119449 15.7975349,98.65084 L15.7975349,99.1774887 Z" id="Fill-1" fill="#000000"></path>
            <g id="Group-5" transform="translate(100.551639, 0.729229)">
                <mask id="mask-2" fill="white">
                    <use xlink:href="#path-1"></use>
                </mask>
                <g id="Clip-4"></g>
                <path d="M6.37969271,96.300405 L11.6218603,96.300405 L11.6218603,95.8282661 L11.6218603,75.1782685 L11.6218603,59.7142515 L11.6218603,55.7702562 C11.6218603,52.6623578 11.6277306,49.555298 11.6176672,46.4473995 C11.6151514,45.4662228 10.9929008,44.6443824 10.0343666,44.4389223 C9.51526536,44.3282254 8.9601038,44.3542224 8.42339171,44.3709947 C8.13658619,44.3802194 7.82797674,44.4523401 7.57387711,44.5831637 C6.73945753,45.0125333 6.37130659,45.7303857 6.37628741,46.6620844 C6.39394913,49.938544 6.40736693,53.2150035 6.41323722,56.4914631 C6.41575306,57.5833368 6.38053132,58.6752104 6.38220855,59.7670841 C6.38975606,65.2717374 6.4056897,70.7755522 6.41407583,76.2793669 C6.41491444,77.2655754 6.38220855,78.2509452 6.38136994,79.2363151 C6.37801549,84.7946396 6.37969271,90.3521256 6.37969271,95.9104501 L6.37969271,96.300405 Z M14.7792369,0.0251583791 C14.7792369,0.95685702 14.78343,1.86675173 14.7708508,2.77580783 C14.7700122,2.83618794 14.653445,2.92424227 14.575454,2.94940065 C14.4790136,2.9795907 14.3649622,2.95862539 14.2592971,2.95862539 C12.4881472,2.95694816 10.7169973,2.96030261 8.946686,2.95359371 C5.56456123,2.94017591 2.84577906,5.7730094 2.98415014,9.15010249 C3.02524216,10.1497288 3.30785462,11.0621393 3.78754105,11.9301034 C5.63248885,15.2602342 7.4673733,18.5962352 9.31399833,21.9255274 C10.1056487,23.3536847 10.4293531,24.8866686 10.4276759,26.5077069 C10.4201284,31.3339226 10.4285145,36.1609769 10.4167739,40.9871927 C10.4159353,41.3368941 10.5199233,41.4719108 10.8604,41.5608037 C12.9753811,42.1134494 14.5461026,44.1143792 14.5855174,46.2972879 C14.6081599,47.5166307 14.5972579,48.736812 14.5972579,49.9569934 C14.5980966,66.2176925 14.5980966,82.4800687 14.5980966,98.7407678 L14.5980966,99.270771 L3.44287125,99.270771 L3.44287125,98.8917181 C3.44287125,82.5345786 3.44287125,66.1782777 3.44370987,49.8211382 C3.44370987,48.6017954 3.40848814,47.3807754 3.46635241,46.1631099 C3.57034038,44.0221318 5.04965307,42.1864087 7.10509264,41.5985413 C7.40531597,41.5130028 7.47072775,41.3855337 7.47072775,41.0978895 C7.46150301,36.2180026 7.46234163,31.3389543 7.46569608,26.4590673 C7.46653469,25.2992661 7.19230836,24.2174557 6.62876067,23.2035731 C4.84335436,19.9883322 3.07052724,16.7663825 1.27925065,13.5544961 C0.330779757,11.8521124 -0.153099735,10.0449022 0.043135622,8.0959664 C0.297235251,5.58264433 1.40084948,3.50791666 3.39003866,1.92964768 C4.74188223,0.857062116 6.28492948,0.226425412 7.99989233,0.0352217308 C8.37810663,-0.0067089011 8.76219122,0.00251583791 9.14375997,0.00167722528 C10.9040079,0 12.6642558,0 14.4253424,0 C14.5276531,0 14.6308025,0.0150950275 14.7792369,0.0251583791 L14.7792369,0.0251583791 Z" id="Fill-3" fill="#000000" mask="url(#mask-2)"></path>
            </g>
            <path d="M12.8207955,96.2045231 L7.58198234,96.2045231 L7.58198234,95.7986345 L7.58198234,79.4414951 L7.58198234,61.2394078 C7.58114373,57.3465679 7.57778928,53.453728 7.57778928,49.5617268 C7.57778928,48.5855817 7.58365957,47.6102752 7.58952986,46.6349687 C7.59707737,45.38292 8.33170204,44.5359212 9.57704181,44.4252244 C10.1196242,44.3765848 10.6890422,44.3782621 11.2207226,44.4864431 C12.202738,44.6860329 12.8191183,45.5732851 12.8207955,46.6584498 C12.8241499,49.1407432 12.8207955,51.6230366 12.8207955,54.1044914 L12.8207955,75.1067063 L12.8207955,95.7265139 L12.8207955,96.2045231 Z" id="Fill-6" fill="#FFFFFF"></path>
            <path d="M10.214052,2.99448948 C14.2209432,2.99197364 17.4403771,6.19631253 17.454669,10.219976 C17.4672127,14.3048581 14.1379205,17.5066812 10.1997956,17.5091996 C6.21722414,17.5125515 2.9365715,14.240285 2.94076055,10.2216532 C2.94411901,6.28520547 6.15432819,2.95926775 10.214052,2.99448948" id="Fill-8" fill="#FFFFFF"></path>
            <path d="M106.931331,97.029634 L106.931331,96.6396792 C106.931331,91.0813546 106.929654,85.5238686 106.933009,79.9655441 C106.933847,78.9801742 106.966553,77.9948044 106.965714,77.0085959 C106.957328,71.5047812 106.941395,66.0009664 106.933847,60.4963131 C106.93217,59.4044394 106.967392,58.3125658 106.964876,57.2206921 C106.959006,53.9442326 106.945588,50.667773 106.927926,47.3913134 C106.922945,46.4596148 107.291096,45.7417623 108.125516,45.3123927 C108.379615,45.1815691 108.688225,45.1094484 108.97503,45.1002237 C109.511742,45.0834514 110.066904,45.0574544 110.586005,45.1681513 C111.544539,45.3736114 112.16679,46.1954518 112.169306,47.1766286 C112.179369,50.284527 112.173499,53.3915868 112.173499,56.4994853 L112.173499,60.4434805 L112.173499,75.9074975 L112.173499,96.5574951 L112.173499,97.029634 L106.931331,97.029634 Z" id="Fill-10" fill="#FFFFFF"></path>
            <path d="M83.30602,69.7104856 C81.9684328,75.1086351 80.6266526,80.5067847 79.2286853,85.8890006 C78.6726851,88.0308173 77.6722203,89.9747214 76.0478276,91.5311864 C74.074572,93.4214193 70.9364836,93.2167978 69.2508722,91.0892376 C68.4139367,90.0325856 68.0776531,88.7620875 67.9828898,87.4597221 C67.8302623,85.3623519 67.8285851,83.2540797 67.690214,81.1558709 C67.235686,74.2733769 66.0976886,67.4831304 64.849833,60.7104948 C64.5764453,59.2227959 63.79989,58.0235799 62.4069544,57.3216611 C59.3787242,55.7945475 55.8909342,57.5430548 55.2343005,60.9302113 C54.8854377,62.729874 54.5793441,64.5387615 54.2866682,66.3493261 C53.3558082,72.0904683 52.5239045,77.8425123 52.3318622,83.6691929 C52.278191,85.3162282 52.2127792,86.9733267 51.9796449,88.6010739 C51.6810988,90.6783174 50.4927847,92.1006044 48.3954145,92.6314462 C46.2577909,93.1715127 44.6132715,92.3966347 43.3050358,90.705153 C42.1653612,89.2325492 41.3250713,87.6039634 40.8596413,85.8135255 C39.5924976,80.9504108 38.3547054,76.0797486 37.1521348,71.2007002 C36.1684422,67.2139358 35.1998446,63.221301 33.2785831,59.558241 C31.852103,56.8386202 30.3417616,54.1617687 28.8163252,51.4966577 C25.4820014,45.6708157 24.3968366,39.5472662 26.12354,32.9775748 C27.4586114,27.8964209 30.0717283,23.7100666 34.4476091,20.72796 C38.0033267,18.3052081 41.9489991,16.8418291 46.2217305,16.3755604 C52.52055,15.6895753 58.201312,17.3013888 63.1675761,21.2588018 C64.2586111,22.1284431 65.2095979,23.1750317 66.2176102,24.1469838 C66.6486571,24.562097 67.1006694,24.9235391 67.7455625,24.7549779 C68.8189866,24.4740427 69.082311,23.2857286 68.2017677,22.4689199 C66.5530553,20.9409676 64.8531875,19.4692025 63.1910572,17.9571839 C63.122291,17.8942879 63.0518475,17.8104267 62.988113,17.7223723 C65.7806931,16.6346918 68.7460273,16.1424261 71.8732139,16.2447369 C72.9416064,16.3067942 74.0108375,16.4191683 75.0800686,16.5927611 C75.9094565,16.7269391 76.7346513,16.8971775 77.5640392,17.0690931 C80.4211925,17.8112653 83.1106232,19.0280922 85.6054958,20.72796 C89.9813766,23.7100666 92.5936549,27.8964209 93.9295649,32.9775748 C95.1874838,37.7652144 94.946802,42.3146879 93.4364606,46.685537 C91.9294737,49.8705878 90.3302394,53.0162238 88.6404349,56.1081886 C86.2830948,60.4236892 84.4876252,64.9404569 83.30602,69.7104856 M96.964504,34.6288031 C96.2114298,30.4843795 94.7296013,26.6603058 92.1458358,23.3058553 C89.1259917,19.383664 85.1199391,16.8778894 80.4899587,15.3012977 C80.2400522,15.2165978 79.7712677,14.9918496 79.7880399,14.9566279 C79.5733551,14.8903775 79.4006009,14.830836 79.2244923,14.7838737 C77.644546,14.365406 76.0654384,14.060151 74.4854922,13.8555295 C70.0928392,13.2248928 65.6716734,13.5024736 61.2219948,14.5717047 L61.234574,14.6304075 C61.1549058,14.6496956 61.0760762,14.6622748 60.996408,14.6824015 C60.4638889,14.8165796 59.8374453,14.8190954 59.3049263,14.6840788 C52.6605983,13.003499 46.0774891,13.0831672 39.5631462,15.3012977 C34.9323272,16.8778894 30.9262746,19.383664 27.9064305,23.3058553 C25.3235036,26.6603058 23.8416751,30.4843795 23.0877623,34.6288031 C22.181222,39.6168711 22.6416204,44.4581818 24.7213797,49.0814533 C25.7679683,51.4086034 27.0636248,53.6225407 28.230135,55.8960196 C29.6423587,58.6449918 31.1451525,61.3545493 32.410619,64.1706105 C33.7255636,67.0956914 34.1616422,70.298353 34.9231024,73.3970267 C35.9302762,77.4970039 36.922355,81.6020128 38.0351939,85.6734771 C38.6213842,87.8211641 39.5027661,89.882474 40.7732642,91.7383237 C42.395141,94.1048886 44.4715459,95.5867171 47.5291276,95.4047382 C50.1212793,95.2504335 52.1079526,94.1703004 53.4874704,91.9949392 C54.5038689,90.3940277 54.7520983,88.5733996 54.8527318,86.725936 C54.9978118,84.0490845 55.014584,81.3588151 55.2988737,78.6970586 C55.713987,74.8050574 56.2943069,70.9298284 56.8494685,67.0537608 C57.121179,65.156819 57.4742349,63.2716178 57.8306453,61.3889324 C58.0503618,60.2232608 59.0474722,59.3997432 60.121735,59.4081293 C61.2471531,59.4165155 62.0572529,60.1217887 62.2979348,61.378869 C62.5771928,62.8355392 62.8128429,64.3005955 63.0619109,65.7631359 C64.2477092,72.7001396 65.2112751,79.6597859 65.2607532,86.7167113 C65.2716552,88.2119576 65.5483974,89.6719822 66.1681321,91.0464683 C67.9786968,95.0583912 71.3222454,95.7410219 74.5651604,95.3015888 C76.2163887,95.0776793 77.5330106,94.0159957 78.6055961,92.7245322 C80.1327097,90.8837775 81.1533013,88.7478311 81.7931628,86.4852542 C83.0502431,82.0489933 84.1429554,77.5657702 85.3044339,73.1026737 C85.9887418,70.4719459 86.6302805,67.8286388 87.3724526,65.2138446 C88.350275,61.7679853 90.2019317,58.7280145 91.9730816,55.6561764 C93.7249434,52.6187214 95.4650646,49.5753962 96.4932037,46.1915942 C97.0148207,44.4741155 97.3167213,42.7188992 97.3678767,40.9183979 C97.3586519,40.9292999 97.3494272,40.9402018 97.3402025,40.9519424 C97.4743805,38.8738603 97.3536203,36.7655881 96.964504,34.6288031" id="Fill-12" fill="#000000"></path>
        </g>
    </g>
</svg>