<?xml version="1.0" encoding="UTF-8"?>
<svg width="61px" height="100px" viewBox="0 0 61 100" version="1.1" xmlns="http://www.w3.org/2000/svg" xmlns:xlink="http://www.w3.org/1999/xlink">
    <title>Group 14 Copy 3</title>
    <defs>
        <polygon id="path-1" points="0 0 60.0118202 0 60.0118202 99.9997135 0 99.9997135"></polygon>
    </defs>
    <g id="Page-1" stroke="none" stroke-width="1" fill="none" fill-rule="evenodd">
        <g id="Group-14-Copy-3">
            <g id="Group-3">
                <mask id="mask-2" fill="white">
                    <use xlink:href="#path-1"></use>
                </mask>
                <g id="Clip-2"></g>
                <path d="M35.6058045,92.3166816 C31.6574955,91.878737 27.8056252,91.4510035 23.8550471,91.0130589 C24.5959223,92.8658142 25.2914147,94.6289384 26.0175405,96.3795823 C26.0776728,96.5248074 26.3386242,96.6757054 26.5076754,96.67684 C28.8187976,96.6972623 31.1299198,96.6983969 33.441042,96.6757054 C33.6293809,96.6745708 33.917562,96.5055197 33.9867709,96.3421414 C34.5381727,95.0407878 35.0475953,93.7224157 35.6058045,92.3166816 L35.6058045,92.3166816 Z M23.3717197,53.3713793 L23.3717197,57.6226188 C27.8101635,58.1059463 32.2066282,58.5847355 36.6155731,59.0646592 L36.6155731,53.3713793 L23.3717197,53.3713793 Z M36.621246,82.4243524 C32.1850713,81.9319484 27.7817992,81.4418135 23.3671814,80.9516786 L23.3671814,87.604806 C27.7920103,88.0949409 32.1782639,88.5816721 36.621246,89.0740762 L36.621246,82.4243524 Z M36.6189768,79.078501 L36.6189768,72.4231044 C32.1703219,71.9284312 27.7897412,71.4417 23.3728542,70.9504306 L23.3728542,77.6012889 C27.7954141,78.0948275 32.1759947,78.5838278 36.6189768,79.078501 L36.6189768,79.078501 Z M36.6144386,69.069311 L36.6144386,62.4241255 C32.172591,61.9249141 27.7863375,61.4313754 23.3217985,60.9287603 L23.3217985,67.5989063 C27.7840683,68.0924449 32.1680527,68.5780415 36.6144386,69.069311 L36.6144386,69.069311 Z M16.6686711,49.9506461 L43.3367749,49.9506461 L43.3367749,43.381477 L16.6686711,43.381477 L16.6686711,49.9506461 Z M50.4199049,39.9686858 C50.5061324,39.6861775 50.5821487,39.4320335 50.6615687,39.1801586 C51.3593301,36.9303033 51.8914442,34.6101045 52.7979668,32.4464766 C54.0675524,29.4194397 55.2509105,26.3844609 55.8976163,23.1588741 C56.5068812,20.1182224 56.9516332,17.0321878 56.5579369,13.9529607 C55.5254768,5.87934966 47.1489352,1.19583839 39.6482828,4.32952495 C33.3071626,6.97988405 26.9047754,6.98896062 20.5341563,4.4112141 C18.2071501,3.46951974 15.8517796,3.13255199 13.3693371,3.51036431 C8.0640806,4.3159101 3.55075506,9.33865826 3.36355076,14.7017779 C3.21605646,18.9008271 3.78674594,23.0136489 5.10398348,26.9948604 C6.13077071,30.0933752 7.34135854,33.1294886 8.42941263,36.2087158 C8.8650881,37.4385913 9.1918447,38.7070423 9.57079159,39.9686858 L50.4199049,39.9686858 Z M46.6417817,43.349709 C46.6417817,46.0885647 46.6429163,48.6924063 46.6406472,51.296248 C46.6395126,52.7734601 46.0710923,53.3452842 44.6086296,53.3475533 C43.1064568,53.350957 41.6054187,53.3486879 40.0453829,53.3486879 L40.0453829,59.4447407 C41.7404327,59.639887 43.4093874,59.8316296 45.179319,60.0358525 C45.0499779,61.1454634 44.925175,62.2199027 44.798103,63.3193025 C43.1779349,63.1479822 41.6360521,62.9846039 40.03971,62.8155527 L40.03971,69.4482579 C41.7154722,69.6388659 43.3844269,69.8283393 45.1702425,70.0314276 C45.0511124,71.1104052 44.9319824,72.1837098 44.806045,73.3205505 C43.2142411,73.1503648 41.6757621,72.9869865 40.0612669,72.8145316 L40.0612669,79.4551788 C41.7358944,79.6446522 43.4071183,79.8329911 45.1759153,80.0326757 C45.0477087,81.141152 44.9240404,82.2167259 44.798103,83.3229331 C43.188146,83.1516128 41.6451287,82.9870999 40.0431137,82.8169142 L40.0431137,89.4473502 C41.7063956,89.6379582 43.3753503,89.8297008 45.1566276,90.0339237 C45.0374976,91.1355926 44.9206367,92.2100319 44.8003721,93.3321231 C43.0894383,93.139246 41.4386367,92.9735985 39.7946426,92.7580299 C39.2659322,92.6888211 38.9811548,92.7716448 38.7723936,93.3287194 C38.0746321,95.186013 37.2974506,97.0126732 36.5769977,98.8620248 C36.2865474,99.6097074 35.7601062,99.9897889 34.987463,99.9931926 C31.6268621,100.003404 28.2662612,100.001135 24.9056604,99.9897889 C24.1035183,99.9863851 23.6496897,99.4951157 23.3671814,98.7848739 C22.3789696,96.2910857 21.3442403,93.8154506 20.4048151,91.3046438 C20.1665551,90.66588 19.7921465,90.5240586 19.2237262,90.4695992 C17.7839549,90.3311814 16.3464528,90.1678031 14.8204541,90.0044248 C14.9407186,88.9141016 15.0541758,87.8827761 15.1835169,86.715302 C16.7560331,86.8798148 18.3149344,87.0431931 19.9441791,87.2133789 L19.9441791,80.5840774 C18.2808972,80.3912003 16.6062696,80.1971885 14.8238578,79.9895619 C14.9441224,78.9083153 15.0598486,77.857702 15.1857861,76.7117848 C16.7912048,76.8819705 18.3523752,77.0464834 19.9600631,77.2155346 L19.9600631,70.5941751 C18.2774935,70.3842794 16.5892511,70.1732491 14.8238578,69.9531422 C14.9429878,68.886645 15.0575795,67.856454 15.1857861,66.7082676 C16.7991468,66.8818571 18.3852778,67.0520428 19.9986385,67.2256322 L19.9986385,60.5793122 C18.2808972,60.3830313 16.6074042,60.1935579 14.8227232,59.989335 C14.9452569,58.9080884 15.0643869,57.8586097 15.1937281,56.7081542 C16.7889357,56.8772053 18.3501061,57.0417182 19.9577939,57.2119039 L19.9577939,53.3486879 C18.3977581,53.3486879 16.872894,53.350957 15.3491644,53.3475533 C13.9320845,53.3452842 13.3545876,52.7677872 13.3523185,51.3416308 C13.3489148,49.0032789 13.3523185,46.664927 13.3523185,44.3265751 L13.3523185,43.349709 C11.7866098,43.349709 10.2912445,43.3508436 8.79587924,43.349709 C7.43212426,43.3485744 6.98850679,43.0116067 6.60615619,41.7102531 C5.89477984,39.2947503 5.24580492,36.8554216 4.44252828,34.4694176 C3.86276223,32.747138 3.01296815,31.1178933 2.3934921,29.4058249 C0.702980519,24.7393322 -0.0651244058,19.9083266 0.0040844575,14.9479799 C0.102792181,7.90569441 5.56008124,1.56570871 12.5728679,0.288181168 C15.6702481,-0.275700882 18.6519021,0.0442482896 21.5620781,1.24802868 C27.191822,3.57503489 32.8419882,3.59545718 38.4649247,1.22987554 C47.9658267,-2.76721996 58.6863931,3.39804173 59.8413869,13.6262041 C60.3859812,18.4447293 59.5747626,23.1668161 58.1293185,27.7561579 C57.3668864,30.1773335 56.2572754,32.4873212 55.4347111,34.8914782 C54.656395,37.171967 54.0482647,39.5103189 53.3652526,41.8237103 C53.0282849,42.9616855 52.5177277,43.3463053 51.3241584,43.3485744 C49.7970252,43.3519781 48.2698919,43.349709 46.6417817,43.349709 L46.6417817,43.349709 Z" id="Fill-1" fill="#000000" mask="url(#mask-2)"></path>
            </g>
            <polygon id="Fill-6" fill="#FFFFFF" points="16.6691249 49.9506461 43.3372287 49.9506461 43.3372287 43.381477 16.6691249 43.381477"></polygon>
            <path d="M36.6140982,69.0696513 C32.1677124,68.5772473 27.7848625,68.0927853 23.3225927,67.5992466 L23.3225927,60.9291006 C27.7871317,61.4317158 32.1722506,61.9252544 36.6140982,62.4244659 L36.6140982,69.0696513 Z" id="Fill-8" fill="#FFFFFF"></path>
            <path d="M36.6190903,79.0786145 C32.1761082,78.5828067 27.7955275,78.0949409 23.3729677,77.6014023 L23.3729677,70.950544 C27.7898547,71.4418135 32.1704353,71.9285447 36.6190903,72.4232179 L36.6190903,79.0786145 Z" id="Fill-9" fill="#FFFFFF"></path>
            <path d="M36.6213594,82.4246928 L36.6213594,89.073282 C32.1772428,88.5808779 27.7921238,88.0952813 23.3672948,87.6040118 L23.3672948,80.952019 C27.7819127,81.4421539 32.1851848,81.9311542 36.6213594,82.4246928" id="Fill-10" fill="#FFFFFF"></path>
            <path d="M23.3714928,53.3717197 L36.6153462,53.3717197 L36.6153462,59.0649996 C32.2075358,58.5850758 27.8110711,58.1062867 23.3714928,57.6229592 L23.3714928,53.3717197 Z" id="Fill-11" fill="#FFFFFF"></path>
            <path d="M35.6058045,92.3166816 C35.0475953,93.7224157 34.5381727,95.0407878 33.9867709,96.3421414 C33.917562,96.5055197 33.6293809,96.6745708 33.441042,96.6757054 C31.1299198,96.6983969 28.8187976,96.6972623 26.5076754,96.67684 C26.3386242,96.6757054 26.0776728,96.5248074 26.0175405,96.3795823 C25.2914147,94.6289384 24.5959223,92.8658142 23.8550471,91.0130589 C27.8056252,91.4510035 31.6574955,91.878737 35.6058045,92.3166816" id="Fill-12" fill="#FFFFFF"></path>
            <path d="M12.5083107,6.91691533 C13.0506359,7.85293684 13.5940957,8.79122749 14.1534395,9.75561329 C10.8370869,11.6537515 9.68322763,14.6036374 10.0145225,18.293264 L6.76170594,18.293264 C6.09344331,13.6176948 8.39775809,9.00906523 12.5083107,6.91691533" id="Fill-13" fill="#000000"></path>
        </g>
    </g>
</svg>