<?xml version="1.0" encoding="UTF-8"?>
<svg width="81px" height="100px" viewBox="0 0 81 100" version="1.1" xmlns="http://www.w3.org/2000/svg" xmlns:xlink="http://www.w3.org/1999/xlink">
    <title>Group 12 Copy 2</title>
    <g id="Page-1" stroke="none" stroke-width="1" fill="none" fill-rule="evenodd">
        <g id="Group-12-Copy-2" transform="translate(0.000000, -0.000240)">
            <path d="M51.528815,96.5634991 C53.1474546,95.1057628 53.8955351,93.4498993 54.4322798,91.6931711 C55.8623983,87.0233718 56.5396333,82.2034762 56.5276256,77.3523605 C56.5120155,70.6724703 56.1277687,63.99258 55.9464523,57.3126898 C55.9236376,56.48776 56.0281047,55.5943862 56.3306991,54.8366995 C58.6325775,49.0621908 60.7543402,43.2372497 62.114814,37.1529419 C63.0406086,33.0174859 62.9217323,29.0009062 61.038923,25.1416275 C59.4779204,21.942773 56.8962623,20.0623653 53.3323734,20.1356123 C50.6642597,20.189647 47.9553199,20.5702915 45.3556502,21.1874879 C38.8955011,22.7208728 32.4761782,22.9958494 25.9595929,21.5669316 C22.8844178,20.893299 19.7444011,20.284508 16.6127898,20.1548247 C12.5721946,19.9867167 9.74077613,22.110881 8.19658436,25.8825034 C6.75685968,29.3995622 6.58514939,32.995872 7.37285531,36.6942473 C8.7369314,43.103964 10.9679643,49.2194918 13.4619661,55.2557687 C13.6636957,55.7432818 13.824599,56.3052427 13.7945797,56.8215744 C13.6624949,59.1630782 13.4115337,61.4985782 13.2830512,63.8400821 C12.863982,71.5070062 12.7919358,79.1691273 14.107981,86.7700091 C14.5810849,89.5005628 15.0962157,92.244325 16.5935774,94.6554736 C16.9874304,95.2882801 17.5133682,95.8382333 18.0465106,96.5130667 C19.5330653,94.6674813 20.0421923,92.6790042 20.3928175,90.696531 C21.1889288,86.1972412 21.7905152,81.6631291 22.5530049,77.1578356 C23.1413828,73.6780006 24.0059381,70.2630073 25.9595929,67.2514731 C30.215126,60.6880576 39.510296,60.6856561 43.7382114,67.2694846 C44.4910949,68.4402366 45.0794728,69.7454749 45.5693875,71.0531147 C47.1015716,75.1501461 47.4798145,79.4897333 48.1654549,83.7704826 C48.7142073,87.1938813 49.4863032,90.5836585 50.2620014,93.9650302 C50.4601286,94.8271839 51.0473058,95.6016813 51.528815,96.5634991 M9.42857562,70.1921618 C9.62310055,67.0821643 9.93650184,62.2430564 10.2102777,57.4015468 C10.240297,56.8840145 10.1214206,56.3184512 9.92689567,55.8333396 C7.44370081,49.6253525 5.1418224,43.3645314 3.86180029,36.7710967 C2.97443036,32.2057645 3.40550723,27.8097411 5.42160209,23.6178489 C7.58539181,19.1161576 11.247744,16.6737889 16.212933,16.6233566 C18.878645,16.5957388 21.6296119,16.8851247 24.2028646,17.5635604 C31.5467813,19.5004044 38.7946363,19.4247558 46.0857191,17.3882478 C49.078041,16.5537118 52.1508145,16.2319051 55.2596112,16.7458352 C59.5295536,17.4518887 62.524277,19.8306165 64.3710631,23.6995013 C66.5900883,28.3476866 66.7401847,33.16398 65.6306721,38.1255666 C64.3386423,43.9036777 62.4186091,49.4716538 60.2031862,54.9423674 C59.7132716,56.1503432 59.6148083,57.3150913 59.6724454,58.586708 C59.9258081,64.1714949 60.2716302,69.7598841 60.272831,75.3482733 C60.2740317,81.1419944 59.6652407,86.9032947 57.9925664,92.4976878 C57.3585592,94.6158482 56.4627839,96.6055261 54.9534145,98.2553857 C52.6503353,100.771001 49.8525384,100.530847 48.0549839,97.6201778 C46.4195335,94.973678 45.8383602,91.9633446 45.3184263,88.9578142 C44.5079057,84.261598 43.8486824,79.5377641 42.9312931,74.8631618 C42.5830695,73.0920242 41.8914253,71.3184852 41.0172638,69.7322664 C38.2434823,64.6986335 31.7521132,64.6674134 28.8162276,69.608587 C27.2324103,72.2767006 26.5984031,75.271424 26.0724654,78.2769543 C25.2523386,82.9719698 24.6087253,87.699406 23.6709229,92.3692053 C23.3022862,94.2099875 22.5482019,96.0483682 21.6103995,97.6826179 C19.9641422,100.552461 17.1951638,100.742183 14.9076946,98.3346366 C12.8351635,96.1528353 11.9862183,93.3850577 11.2825664,90.5632454 C9.75638616,84.4441153 9.50542498,78.1965027 9.42857562,70.1921618" id="Fill-1" fill="#000000"></path>
            <path d="M80.4504703,9.90516171 C75.6461847,11.777164 72.3932955,14.9652116 70.4480461,19.8259334 C68.4967929,15.0300532 65.2799268,11.7675579 60.408398,9.90396094 C65.1910698,8.01154551 68.4691752,4.83070258 70.3747991,0 C72.3152453,4.75745553 75.5309107,8.03315939 80.4504703,9.90516171" id="Fill-3" fill="#FFFFFF"></path>
            <path d="M6.35568201,13.2219319 C5.35423883,14.2377844 4.20269923,15.404934 3.22166916,16.3991726 C2.17819897,15.3713124 0.990636248,14.1993597 0,13.2219319 C1.01945476,12.2048787 2.19621054,11.032926 3.22166916,10.009869 C4.18828998,11.0005052 5.33262494,12.1736587 6.35568201,13.2219319" id="Fill-6" fill="#FFFFFF"></path>
            <path d="M13.3896797,33.9462824 C16.6485727,32.6026194 18.7595285,30.4676482 20.0467553,27.3120215 C21.3267774,30.5048721 23.4797602,32.6326387 26.7386532,33.9630932 C23.5025748,35.2923469 21.3543951,37.4237158 20.0767746,40.5865472 C18.7955517,37.4273182 16.6869974,35.2887446 13.3896797,33.9462824" id="Fill-10" fill="#FFFFFF"></path>
        </g>
    </g>
</svg>