<?xml version="1.0" encoding="UTF-8"?>
<svg width="96px" height="100px" viewBox="0 0 96 100" version="1.1" xmlns="http://www.w3.org/2000/svg" xmlns:xlink="http://www.w3.org/1999/xlink">
    <title>Group 8</title>
    <defs>
        <polygon id="path-1" points="0 0 31.1749404 0 31.1749404 46.1832124 0 46.1832124"></polygon>
    </defs>
    <g id="Page-1" stroke="none" stroke-width="1" fill="none" fill-rule="evenodd">
        <g id="Group-8" transform="translate(0.000000, -0.000000)">
            <path d="M89.3495786,34.8296398 C89.2894111,36.9826327 88.9284062,39.0804721 88.3046701,41.1351915 C87.0752479,45.1814545 84.9944559,48.8205841 82.8996249,52.4526943 C80.7817296,56.1259188 78.5665636,59.7600345 77.397309,63.880504 C76.5108415,67.0072073 75.7437061,70.1680055 74.9254284,73.3137619 C73.5365624,78.65162 72.2299254,84.0125424 70.727744,89.3173084 C69.9616114,92.0228394 68.7412144,94.575946 66.9141286,96.7780758 C65.6335641,98.3223744 64.058179,99.5919082 62.0836829,99.8586507 C58.2058889,100.384113 54.2077599,99.5678412 52.0437363,94.7714903 C51.3016707,93.1269126 50.9717524,91.3820557 50.9587161,89.593076 C50.8975458,81.1545871 49.7463414,72.8324221 48.3283945,64.5383351 C48.0295627,62.7894671 47.7497839,61.0375907 47.4158544,59.2947394 C47.1270505,57.7915552 46.1583541,56.9482077 44.8126081,56.9381798 C43.5280325,56.9291547 42.3357136,57.9138957 42.0719795,59.3067729 C41.6477988,61.5590422 41.2246208,63.813317 40.8997164,66.0806282 C40.2348658,70.7155296 39.5409342,75.3494282 39.0445525,80.0033827 C38.7056091,83.1872451 38.686556,86.4041997 38.5120703,89.6051095 C38.3917354,91.813256 38.0949092,93.9903159 36.8795261,95.9056473 C35.2299344,98.506888 32.853319,99.7974804 29.7546938,99.981994 C26.0985167,100.1996 23.6156054,98.4276675 21.6772098,95.5987932 C20.1569782,93.379616 19.1030445,90.914755 18.4010906,88.3456036 C17.0713893,83.4770518 15.8840844,78.5683884 14.6807349,73.6667444 C13.7702003,69.9614305 13.2477461,66.1307677 11.6753693,62.6330316 C10.16316,59.2666612 8.36615797,56.0266425 6.6784602,52.7384898 C5.2825747,50.0209253 3.73225933,47.3725535 2.48177857,44.5898076 C-0.00514388229,39.0624219 -0.555676312,33.2733077 0.529343886,27.3077022 C1.42985048,22.3519075 3.20178273,17.7791791 6.29037996,13.7680139 C9.90143147,9.07896173 14.6927684,6.08262129 20.2291792,4.19737363 C28.0188621,1.54398782 35.8907739,1.44972544 43.8348866,3.45931923 C44.4726619,3.61976584 45.2207442,3.61776025 45.8585195,3.45631085 C53.1397872,1.62320834 60.3999963,1.65730324 67.6541886,3.5776486 C67.8657776,3.63480771 68.0723526,3.70600589 68.3280644,3.7852264 C67.8938557,4.74188931 67.4766945,5.65944336 67.0525138,6.59504765 C65.5854301,6.30423817 64.1504358,5.97632542 62.6993967,5.74066946 C58.0504562,4.9855676 53.4135492,5.12796397 48.7987036,6.04150685 C48.5078941,6.09866596 48.0897301,6.3353247 48.0405934,6.55894717 C47.9874454,6.78958917 48.2561935,7.1666387 48.4828243,7.37221092 C50.4703567,9.18124644 52.5040175,10.9411452 54.4745024,12.768231 C55.5274333,13.7439469 55.2125568,15.165905 53.9289839,15.5018401 C53.1578374,15.7034011 52.6163301,15.2711981 52.1018982,14.7748164 C50.896543,13.6125812 49.7603805,12.3600949 48.4547462,11.3202003 C42.5172188,6.58903091 35.7223049,4.66066322 28.1913422,5.4819493 C23.0821205,6.03849848 18.3639873,7.78836931 14.1121522,10.6864362 C8.87958713,14.2513593 5.7548894,19.2572935 4.15844564,25.3332061 C2.09369833,33.190076 3.39131029,40.5124581 7.37840853,47.4788494 C9.20248593,50.6657202 11.0075103,53.86663 12.7142611,57.1176794 C15.011656,61.4978719 16.1698799,66.2731641 17.3451514,71.0394312 C18.7841569,76.873671 20.2642769,82.697883 21.7784917,88.5130698 C22.3360437,90.6540292 23.3408406,92.6014499 24.703634,94.3623515 C26.2689912,96.3859844 28.2344622,97.3125635 30.7905773,96.6657631 C33.2985583,96.0309962 34.7195136,94.331265 35.0755045,91.8463481 C35.3552833,89.8999302 35.433501,87.9184145 35.4976797,85.9499352 C35.7273189,78.9825412 36.7220879,72.1043956 37.8341834,65.2382835 C38.1851604,63.0742598 38.5511792,60.911239 38.9683404,58.758246 C39.753526,54.7089747 43.924135,52.6181548 47.5452145,54.443235 C49.2108508,55.2825713 50.1394356,56.7175657 50.4673483,58.4955147 C51.958499,66.5940573 53.3192868,74.7136586 53.8627997,82.9435668 C54.0282603,85.4535535 54.0302659,87.9735681 54.2127739,90.4815491 C54.3250865,92.038884 54.7282086,93.5591156 55.7289943,94.8216299 C57.7436021,97.3657115 61.49705,97.6113953 63.8566179,95.3511037 C65.7990247,93.489923 66.9943519,91.16445 67.6602054,88.603321 C69.3318585,82.1674064 70.9363246,75.7134415 72.5347739,69.2584738 C73.9487097,63.5535941 76.0956859,58.1535629 78.9145322,52.9931988 C80.9702544,49.2317286 82.9176751,45.4040741 84.7457637,41.5282857 C85.9230407,39.033341 87.6097357,36.9435239 89.3495786,34.8296398" id="Fill-1" fill="#000000"></path>
            <g id="Group-5" transform="translate(64.781128, 0.000000)">
                <mask id="mask-2" fill="white">
                    <use xlink:href="#path-1"></use>
                </mask>
                <g id="Clip-4"></g>
                <path d="M18.9742794,3.1139579 L18.9742794,3.13401373 C17.6917093,3.13401373 16.4041253,3.19718958 15.1275719,3.11496069 C13.8510186,3.03373459 13.1310144,3.57323632 12.6185881,4.71240725 C9.98726366,10.5556722 7.30981086,16.3798841 4.64739993,22.2101128 C4.12795404,23.3502865 4.32951509,23.6691742 5.58801818,23.6711798 C8.25243469,23.6771965 10.9158484,23.6741881 13.5802649,23.684216 C15.329133,23.6912356 15.9117547,24.5305719 15.3822809,26.2192725 C14.6973744,28.4053575 14.0134708,30.5934482 13.3777011,32.7945751 C13.2874499,33.107446 13.344609,33.6539672 13.5521868,33.823439 C13.9904066,34.1784271 14.3614394,33.7983692 14.6472349,33.4273364 C18.2221859,28.7773931 21.8011481,24.1304582 25.3700824,19.4744981 C25.900559,18.7835749 25.6528695,18.2591151 24.7633936,18.2139894 C23.8779289,18.167861 22.9874502,18.2059671 22.0999799,18.191928 C20.9417559,18.172875 19.7775152,18.2049643 18.6283164,18.0926517 C17.4279752,17.9753251 16.9576661,17.1530362 17.4059138,16.0329183 C17.6686451,15.3740845 18.0477002,14.7593734 18.4006828,14.1396484 C20.2067099,10.969825 22.0257733,7.80902681 23.8307977,4.63920348 C24.5197153,3.42682879 24.3362045,3.11496069 22.9704028,3.1139579 C21.6386959,3.1139579 20.3059862,3.1139579 18.9742794,3.1139579 M6.24584928,26.8069082 C4.86500565,26.8059054 3.48315922,26.8179389 2.10231559,26.8038998 C0.163919987,26.783844 -0.458813417,25.8352034 0.337402884,24.0823242 C3.28260096,17.59627 6.23983253,11.1162326 9.19305294,4.63418953 C9.70347372,3.51306884 10.2078777,2.38893978 10.7203041,1.2678191 C11.1113927,0.41243811 11.6789726,-0.0127454053 12.7248839,3.55271368e-15 C17.5081985,0.0594555691 22.2935186,0.0263634558 27.0788388,0.0263634558 C28.8036398,0.0263634558 29.4574597,1.07929433 28.6121067,2.60754829 C27.2763886,5.02226976 25.8825087,7.40490192 24.5157042,9.80257594 C23.771633,11.1082102 23.0165312,12.4088306 22.2975298,13.7285039 C21.8121788,14.6189826 22.0508431,15.030127 23.0616568,15.0381494 C24.9850105,15.0521884 26.909367,15.0000433 28.8307152,15.040155 C29.3992978,15.0521884 30.0310564,15.1624955 30.5113934,15.4392659 C31.3076097,15.8985443 31.3717883,16.6857355 30.787161,17.4518681 C26.2324829,23.4305098 21.6778048,29.4081488 17.1100903,35.3757599 C14.5479585,38.7220745 11.9667737,42.0523445 9.38458608,45.3816116 C8.77388618,46.1708084 8.04585968,46.3713666 7.31883598,46.009359 C6.55170063,45.6272955 6.28395535,44.9092969 6.58479275,43.9255586 C7.53744449,40.8169056 8.5051381,37.7122637 9.4638066,34.6046134 C10.153727,32.3683888 10.850667,30.1341698 11.518526,27.8909256 C11.7702266,27.0475781 11.5726767,26.8149305 10.6852064,26.8099166 C9.20508644,26.8018942 7.72596926,26.807911 6.24584928,26.8069082" id="Fill-3" fill="#000000" mask="url(#mask-2)"></path>
            </g>
            <path d="M83.755407,3.1139579 C85.0871139,3.1139579 86.4198235,3.1139579 87.7515304,3.1139579 C89.1173321,3.11496069 89.3008429,3.42682879 88.6119253,4.63920348 C86.806901,7.80902681 84.9878375,10.969825 83.1818104,14.1396484 C82.8288278,14.7593734 82.4497727,15.3740845 82.1870414,16.0329183 C81.7387937,17.1530362 82.2091028,17.9753251 83.409444,18.0926517 C84.5586428,18.2049643 85.7228835,18.172875 86.8811075,18.191928 C87.7685778,18.2059671 88.6590565,18.167861 89.5445212,18.2139894 C90.4339971,18.2591151 90.6816866,18.7835749 90.15121,19.4744981 C86.5822757,24.1304582 83.0033135,28.7773931 79.4283625,33.4273364 C79.142567,33.7983692 78.7715342,34.1784271 78.3333144,33.823439 C78.1257366,33.6539672 78.0685775,33.107446 78.1588287,32.7945751 C78.7945984,30.5934482 79.4785021,28.4053575 80.1634085,26.2192725 C80.6928823,24.5305719 80.1102606,23.6912356 78.3613925,23.684216 C75.696976,23.6741881 73.0335623,23.6771965 70.3691458,23.6711798 C69.1106427,23.6691742 68.9090816,23.3502865 69.4285275,22.2101128 C72.0909385,16.3798841 74.7683913,10.5556722 77.3997157,4.71240725 C77.912142,3.57323632 78.6321462,3.03373459 79.9086995,3.11496069 C81.1852529,3.19718958 82.4728369,3.13401373 83.755407,3.13401373 L83.755407,3.1139579 Z" id="Fill-6" fill="#FFFFFF"></path>
        </g>
    </g>
</svg>