<?xml version="1.0" encoding="UTF-8"?>
<svg width="69px" height="102px" viewBox="0 0 69 102" version="1.1" xmlns="http://www.w3.org/2000/svg" xmlns:xlink="http://www.w3.org/1999/xlink">
    <title>Group 9 Copy 2</title>
    <g id="Page-1" stroke="none" stroke-width="1" fill="none" fill-rule="evenodd">
        <g id="Group-9-Copy-2" transform="translate(0.999998, 1.000000)">
            <path d="M32.4379278,37.7239187 L34.7804073,37.7239187 L34.7804073,38.6434958 C34.7804073,43.6756855 34.7782835,48.708937 34.782531,53.7411267 C34.782531,54.4366498 34.7007672,55.1852664 35.5215907,55.532497 C36.1385357,55.7947782 36.7246865,55.5123215 37.4010961,54.6893743 C37.7472648,54.266751 38.1072379,53.8547465 38.474644,53.4236283 C39.1022076,54.0788005 39.715967,54.7191066 40.3700773,55.4029492 C39.1436205,56.6304679 37.8693796,57.9100181 36.5908912,59.1853209 C35.9558945,59.8192557 35.3357639,60.4680567 34.6710349,61.0669499 C33.8183554,61.8346801 33.4222789,61.8527318 32.6237546,61.0711974 C30.6677948,59.1545267 28.7468767,57.2017526 26.8270204,55.2797726 C27.3781296,54.7053023 27.9058777,54.1563168 28.4867191,53.5521143 C28.9358891,54.0405733 29.3744403,54.5024856 29.7970635,54.9792641 C30.2950793,55.5431157 30.8812301,55.7533654 31.6022381,55.476218 C32.2966994,55.2096893 32.4581033,54.6394665 32.4549177,53.9694282 C32.4474846,52.5497114 32.4623507,51.1299947 32.4421752,49.710278 C32.4241235,48.5188627 31.8910661,47.6980392 30.7240738,47.2786016 C26.726143,45.8429569 22.6613145,45.3385699 18.4775569,46.3091167 C14.0729309,47.331695 11.453304,50.3197899 10.9276796,54.835912 C10.4700148,58.7616358 10.8905143,62.6087814 12.0681252,66.3465547 C13.1098172,69.6510861 13.4347486,73.0108346 13.3784696,76.4406663 C13.3264381,79.5784845 13.2213132,82.7184264 13.7713606,85.8318217 C14.4159141,89.4793363 15.6837838,92.8836832 17.6747852,96.0098208 C17.8595501,96.2997106 18.0889135,96.5789818 18.3543803,96.7924171 C19.8983355,98.0358639 21.5782098,97.3881247 21.8298723,95.4194226 C21.9912762,94.1621715 22.1017104,92.8879306 22.1017104,91.6221847 C22.1006485,85.9369466 23.3451571,80.5129278 25.4338503,75.2609316 C26.3098909,73.0596805 27.6202353,71.1886701 29.7078667,69.9505327 C32.772416,68.1336776 36.2075571,68.7453132 38.3525293,71.5889941 C40.5697084,74.5271812 41.846073,77.8975484 42.4407188,81.5004645 C43.0247459,85.0354211 43.3932138,88.6064812 43.9804265,92.140376 C44.2235942,93.6004437 44.7715177,95.0116655 45.2217495,96.4313822 C45.4224425,97.0631933 45.9979746,97.2373396 46.5904966,97.2914948 C47.1915136,97.3467119 47.6056419,97.081245 47.9422538,96.5588063 C50.6255928,92.396286 51.8042656,87.7559254 52.3224569,82.9000058 C52.7195953,79.1632944 52.9818766,75.4064075 53.5648418,71.6994283 C53.9057012,69.5310951 54.8029792,67.4562062 55.3689545,65.3176052 C56.0496115,62.7415149 56.7610627,60.1410016 56.4722347,57.4481058 C56.3012741,55.8542428 56.0474878,54.2125958 55.4751413,52.7312908 C54.2093953,49.4564917 51.4995097,47.8551956 48.1875452,47.2446219 C46.4078554,46.9165048 44.5867528,46.8124418 42.783702,46.6159963 C42.214541,46.5533462 41.6358233,46.5607792 41.0740954,46.4630874 C40.3913147,46.3452202 39.9718771,45.8174721 40.0302798,45.2196407 C40.0939918,44.5719016 40.4348512,44.1237935 41.1112608,44.1004325 C44.5941859,43.976194 48.0282651,44.2055573 51.2839506,45.6210266 C56.2025204,47.7617513 58.5938458,51.6057113 58.8911687,56.8800067 C59.1226558,60.9724437 58.4738548,64.9056006 56.9596319,68.7198284 C55.5823899,72.1878873 55.2001176,75.8534536 55.0057959,79.5466285 C54.7743088,83.9608113 54.3251388,88.3505712 52.6229654,92.4801736 C51.8775345,94.2885338 50.9048639,96.0119446 49.9247603,97.7098706 C49.5690347,98.3268155 48.9573991,98.8566874 48.3500109,99.2559495 C46.4747531,100.487716 44.8564671,100.09801 43.640629,98.2174432 C42.3716974,96.2561741 41.7335151,94.0825315 41.4032743,91.787836 C40.8829593,88.16793 40.396624,84.5405909 39.7435756,80.9451079 C39.2646734,78.3074292 38.1327227,75.8693816 36.7862748,73.5619438 C35.1244523,70.7150772 31.7179817,70.4973944 29.6430927,73.1584342 C28.7235156,74.337107 27.9387956,75.6856786 27.3876864,77.075663 C25.5294184,81.7648695 24.5291393,86.6452121 24.4856027,91.7113816 C24.4749841,93.029159 24.34756,94.3469365 24.2392495,95.6615283 C24.0735982,97.6716433 22.8779355,99.3366514 21.3084954,99.7953781 C19.3196178,100.377281 17.3679055,99.7061813 16.1117163,97.9349864 C13.2701591,93.9253751 11.5828518,89.4644701 11.2589823,84.5607664 C11.0296189,81.1096973 11.0402376,77.6427002 10.9446695,74.1831362 C10.8735244,71.6027984 10.4370969,69.0872345 9.6481294,66.6300733 C8.22522707,62.2073955 7.833398,57.7220676 8.8304915,53.1517903 C10.0155355,47.7171529 14.0421367,44.1344122 19.5723422,43.6024166 C23.1232268,43.2604953 26.6316368,43.415528 30.0635922,44.4827047 C30.2292436,44.5347362 30.4023279,44.5644685 30.5711649,44.6037576 C31.7211673,44.8639151 32.4156286,44.3372289 32.4326184,43.1405043 C32.4538558,41.620972 32.4379278,40.1003779 32.4379278,38.5808457 L32.4379278,37.7239187 Z" id="Fill-1" stroke="#000000" stroke-width="0.8" fill="#000000"></path>
            <path d="M33.666296,25.2153329 L33.666296,25.2110855 C36.1064673,25.2110855 38.5466386,25.2100236 40.9868099,25.2110855 C41.2098021,25.2110855 41.4338561,25.2206423 41.6579101,25.2291372 C44.2000207,25.3247053 45.8321109,26.9674142 45.8820187,29.5020917 C45.903256,30.572454 45.8703381,31.6449401 45.9011323,32.7153024 C45.9584731,34.6617054 46.9332674,35.6237573 48.882856,35.7012736 C49.0315174,35.7065829 49.1812407,35.7087067 49.3299022,35.7087067 C52.118366,35.7087067 54.9089535,35.6556133 57.6952936,35.7235728 C59.7563783,35.7734806 61.0051344,34.89744 61.8302053,32.9998829 C64.2215307,27.4941004 65.0965095,21.7281603 64.8767029,15.7912597 C64.6653913,10.1092071 61.8514427,6.1548129 56.4985691,4.1606259 C52.4284313,2.64534111 48.1990134,2.11759301 43.8729655,2.5773816 C42.4670531,2.7271049 41.0770687,3.03292271 39.6838986,3.28883276 C39.0573968,3.40351444 38.5392055,3.70614665 38.4489468,4.40591728 C38.3608118,5.08551242 38.8131673,5.44867107 39.3409154,5.73431341 C40.2158942,6.20790627 41.1004297,6.66450926 41.9679754,7.14978267 C42.2684839,7.31861958 42.6581892,7.49276584 42.7824277,7.76672763 C42.9576358,8.15006177 43.0861218,8.70435656 42.9289654,9.04415413 C42.7877371,9.35103381 42.251494,9.5697785 41.8586031,9.63349054 C41.5634039,9.68233644 41.202369,9.45509681 40.8986749,9.2958167 C39.2028727,8.40490995 37.5134416,7.50444638 35.8271962,6.59654974 C31.0912675,4.04594422 26.1450891,2.37562679 20.6605439,2.5349069 C16.9769259,2.64215551 13.3580818,2.89275622 9.96116791,4.49936161 C5.29850811,6.70379835 2.54720965,10.2334456 2.55039249,15.5183597 C2.55145712,18.1995749 2.71923217,20.8988419 3.06221535,23.5577579 C3.54642689,27.3125211 4.78031682,30.8602201 6.62902798,34.1817413 C7.20349825,35.2149383 8.00733188,35.7246347 9.22317006,35.7076448 C12.2855957,35.6651701 15.3490832,35.7033973 18.4104469,35.6810981 C20.4407374,35.6651701 21.4112842,34.6277257 21.4102223,32.6059301 C21.4091605,31.3624834 21.3836757,30.1094798 21.5164091,28.8766518 C21.7500199,26.7019473 23.1272619,25.4362013 25.3019664,25.2556839 C25.7224659,25.2195804 26.1472129,25.2174567 26.5698361,25.2163948 C28.9356767,25.2142711 31.3004554,25.2153329 33.666296,25.2153329 M33.6641723,27.5875447 C31.2739087,27.5875447 28.8836452,27.5886066 26.4933816,27.5864829 C24.4875141,27.5843591 23.7569493,28.3276663 23.7771248,30.3537093 C23.7877435,31.3752258 23.8004859,32.3967422 23.7983621,33.4182587 C23.7919909,35.6184479 21.8317837,37.8812874 19.6294707,37.9418138 C15.350145,38.0596811 11.0676338,38.0480006 6.78724622,38.0118971 C6.35188059,38.0076496 5.76254417,37.5616653 5.5140672,37.1570938 C2.84240879,32.7896332 1.21562792,28.0399002 0.479753804,22.9790402 C0.0624399114,20.1119981 -0.176480256,17.2332756 0.158007978,14.3428725 C0.859902337,8.28491893 4.11877342,4.16699711 9.74136136,1.9158382 C13.3304732,0.479131591 17.1075356,0.0798694449 20.9398151,0.0586320966 C24.8145693,0.036332881 28.5703943,0.678762665 32.1743723,2.11228367 C33.1343004,2.49349407 34.0528157,2.50092714 35.0021252,2.14307782 C39.6892079,0.380377922 44.5345089,-0.314083365 49.5189146,0.130839081 C53.936283,0.525853757 58.1678246,1.55798888 61.7707408,4.33158656 C64.8448469,6.69955088 66.6967437,9.87453444 67.0556549,13.698319 C67.7118889,20.6875303 67.0344175,27.5344514 63.9411977,33.9629967 C63.4198208,35.0461014 62.7030603,36.0559373 61.9523201,36.9999375 C61.3268802,37.7867812 60.3881894,38.1233932 59.3624255,38.1212794 C55.7276533,38.1127745 52.0928812,38.1340118 48.458109,38.0798566 C46.5796656,38.0522481 45.1068555,37.1379802 44.1363087,35.5547359 C43.7773975,34.9707088 43.5947563,34.216783 43.5352917,33.5233835 C43.4407855,32.4105465 43.5140544,31.2828433 43.5193637,30.1615113 C43.5278586,28.3892546 42.7675616,27.6024109 40.9836243,27.5917922 C38.543453,27.576926 36.1032817,27.5875447 33.6641723,27.5875447" id="Fill-4" stroke="#000000" stroke-width="0.8" fill="#000000"></path>
            <path d="M33.666296,25.2153329 C31.3004554,25.2153329 28.9356767,25.2142711 26.5698361,25.2163948 C26.1472129,25.2174567 25.7224659,25.2195804 25.3019664,25.2556839 C23.1272619,25.4362013 21.7500199,26.7019473 21.5164091,28.8766518 C21.3836757,30.1094798 21.4091605,31.3624834 21.4102223,32.6059301 C21.4112842,34.6277257 20.4407374,35.6651701 18.4104469,35.6810981 C15.3490832,35.7033973 12.2855957,35.6651701 9.22317006,35.7076448 C8.00733188,35.7246347 7.20349825,35.2149383 6.62902798,34.1817413 C4.78031682,30.8602201 3.54642689,27.3125211 3.06221535,23.5577579 C2.71923217,20.8988419 2.55145712,18.1995749 2.55039249,15.5183597 C2.54720965,10.2334456 5.29850811,6.70379835 9.96116791,4.49936161 C13.3580818,2.89275622 16.9769259,2.64215551 20.6605439,2.5349069 C26.1450891,2.37562679 31.0912675,4.04594422 35.8271962,6.59654974 C37.5134416,7.50444638 39.2028727,8.40490995 40.8986749,9.2958167 C41.202369,9.45509681 41.5634039,9.68233644 41.8586031,9.63349054 C42.251494,9.5697785 42.7877371,9.35103381 42.9289654,9.04415413 C43.0861218,8.70435656 42.9576358,8.15006177 42.7824277,7.76672763 C42.6581892,7.49276584 42.2684839,7.31861958 41.9679754,7.14978267 C41.1004297,6.66450926 40.2158942,6.20790627 39.3409154,5.73431341 C38.8131673,5.44867107 38.3608118,5.08551242 38.4489468,4.40591728 C38.5392055,3.70614665 39.0573968,3.40351444 39.6838986,3.28883276 C41.0770687,3.03292271 42.4670531,2.7271049 43.8729655,2.5773816 C48.1990134,2.11759301 52.4284313,2.64534111 56.4985691,4.1606259 C61.8514427,6.1548129 64.6653913,10.1092071 64.8767029,15.7912597 C65.0965095,21.7281603 64.2215307,27.4941004 61.8302053,32.9998829 C61.0051344,34.89744 59.7563783,35.7734806 57.6952936,35.7235728 C54.9089535,35.6556133 52.118366,35.7087067 49.3299022,35.7087067 C49.1812407,35.7087067 49.0315174,35.7065829 48.882856,35.7012736 C46.9332674,35.6237573 45.9584731,34.6617054 45.9011323,32.7153024 C45.8703381,31.6449401 45.903256,30.572454 45.8820187,29.5020917 C45.8321109,26.9674142 44.2000207,25.3247053 41.6579101,25.2291372 C41.4338561,25.2206423 41.2098021,25.2110855 40.9868099,25.2110855 C38.5466386,25.2100236 36.1064673,25.2110855 33.666296,25.2110855 L33.666296,25.2153329 Z" id="Fill-7" fill="#FFFFFF"></path>
        </g>
    </g>
</svg>