<?xml version="1.0" encoding="UTF-8"?>
<svg width="92px" height="100px" viewBox="0 0 92 100" version="1.1" xmlns="http://www.w3.org/2000/svg" xmlns:xlink="http://www.w3.org/1999/xlink">
    <title>Group 37 Copy 2</title>
    <defs>
        <polygon id="path-1" points="1.47529366e-15 1.18023493e-14 79.1452527 1.18023493e-14 79.1452527 92.6230674 1.47529366e-15 92.6230674"></polygon>
        <polygon id="path-3" points="0 5.90117465e-15 90.2303022 5.90117465e-15 90.2303022 42.1158958 0 42.1158958"></polygon>
    </defs>
    <g id="Page-1" stroke="none" stroke-width="1" fill="none" fill-rule="evenodd">
        <g id="Group-37-Copy-2">
            <g id="Group-3" transform="translate(12.131833, 0.000000)">
                <mask id="mask-2" fill="white">
                    <use xlink:href="#path-1"></use>
                </mask>
                <g id="Clip-2"></g>
                <path d="M64.7916022,40.9901418 C65.9775797,41.0989394 65.9858849,41.0931258 66.4451605,39.9578098 C66.545653,39.7103158 66.6511286,39.4653135 66.7557737,39.2203111 C67.3645423,37.7976364 68.0355996,36.4015381 69.4333589,35.5818183 C70.3303167,35.0569319 71.2928853,34.6433347 72.2321995,34.1907032 C73.4480756,33.6051891 73.5103644,33.4947304 73.2886165,32.1617514 C73.2786503,32.0961406 73.2470906,32.0321908 73.2445991,31.96658 C73.2014122,30.9251123 73.0585634,29.874509 73.1465982,28.8430075 C73.2794808,27.2741618 74.1955405,26.0350312 75.1680753,24.8606809 C76.1422712,23.6830085 76.1630341,23.3101066 75.2436523,22.1091797 C75.1622617,22.0037041 75.0650913,21.9098557 74.9820396,21.8052107 C74.0776071,20.6607589 73.2304803,19.458171 73.138293,17.9582582 C73.0726822,16.9018413 73.1582254,15.8238308 73.2944301,14.7715664 C73.4804658,13.3430781 73.4057193,13.1271438 72.0893507,12.6230203 C72.0685877,12.6147151 72.0453333,12.6122235 72.0254009,12.6030879 C70.4540637,11.9162507 68.8137936,11.2983464 67.8645132,9.74694162 C67.3246775,8.86327207 66.9127413,7.89738138 66.4949915,6.94477896 C66.0573093,5.94982019 65.5814234,5.6583089 64.5167012,5.83770047 C64.1006125,5.90829437 63.6820321,5.96975259 63.2617908,6.00712583 C61.5891306,6.15412725 59.9704539,6.04034649 58.5419655,5.0138281 C57.8210772,4.49641632 57.0802565,4.00558107 56.3709954,3.47155896 C55.9266691,3.13686081 55.5330043,3.0405209 55.0637624,3.42671107 C54.6534873,3.76639232 54.185076,4.03381863 53.7698177,4.36768626 C52.2101078,5.62176618 50.4660231,6.26790801 48.4445459,6.04117701 C47.6929285,5.95729484 46.9404806,5.87590422 46.1905242,5.78039483 C45.6847396,5.71561454 45.3674823,5.86427699 45.1748025,6.38584135 C44.9065457,7.11171277 44.6092208,7.84256729 44.2089118,8.50116688 C43.7189071,9.3075984 43.1757493,10.1024027 42.5362516,10.7917314 C41.5720219,11.8323686 40.2033307,12.2227113 38.93181,12.7417841 C38.3230414,12.9901085 37.9576141,13.31401 38.0821916,14.0315762 C38.1577686,14.4684279 38.1677348,14.9169068 38.203447,15.3612332 C38.3504484,17.1750812 38.4193813,18.9764715 37.2848958,20.5635885 C36.7425685,21.3235111 36.2118684,22.0933999 35.6437952,22.8342206 C35.3257073,23.2503094 35.2916562,23.6041094 35.6255238,24.0268423 C36.0806468,24.6032207 36.5116849,25.1987011 36.9261126,25.8049781 C37.6843742,26.9162092 38.3496179,28.063983 38.2599221,29.4899798 C38.1868367,30.6452283 38.1527855,31.8029683 38.076378,32.9582167 C38.0406658,33.4880862 38.1727179,33.8202928 38.7250114,34.0270914 C39.5962232,34.3526539 40.4466721,34.7463187 41.2763581,35.1673906 C42.959815,36.0228226 43.840993,37.5219049 44.5834747,39.1929041 C45.6158068,41.5166892 45.0170044,41.103092 47.590775,40.9145648 C49.4237249,40.7800211 51.2467086,40.6778676 52.8388087,41.8920827 C53.5979008,42.4709527 54.4109765,42.9792288 55.1816958,43.542319 C55.518055,43.7881519 55.8178714,43.8147284 56.1509085,43.571387 C56.5620142,43.2707401 56.9864081,42.9858729 57.3892086,42.6744292 C58.843443,41.5482489 60.3682713,40.6396638 62.3241377,40.8481234 C63.1421964,40.9353277 63.9685603,40.9452939 64.7916022,40.9901418 L64.7916022,40.9901418 Z M35.1313665,16.613652 C31.8109615,17.1784032 31.811792,17.139369 28.5445401,15.9027299 C26.4532996,15.1104172 24.3554149,14.2583072 22.1852753,13.767472 C17.913929,12.8015813 13.7812789,13.3829429 10.1020908,15.8553905 C6.94778911,17.9756991 4.92548144,20.9888129 3.90477666,24.66634 C2.43476246,29.9675268 3.26361793,35.0677286 5.23443358,40.0641159 C5.94867777,41.8746418 6.79663511,43.6345063 7.47848916,45.4566595 C8.65616155,48.604317 9.47255927,51.8566196 10.0389715,55.1687194 C10.6278077,58.6062272 11.1917284,62.0487181 11.7614627,65.4895479 C12.2556201,68.4719327 12.6658952,71.4700973 13.2539009,74.4333801 C13.7854314,77.1101348 14.4207766,79.7744317 15.1782076,82.3955418 C15.6623987,84.0706936 16.3849481,85.6893702 17.135735,87.2698431 C17.4754162,87.9874094 18.0866764,88.6094662 18.6780041,89.1642512 C19.2510605,89.7024259 19.8506934,89.5263564 20.0649667,88.7847052 C20.3141216,87.917646 20.5558019,87.0198576 20.5915141,86.1262219 C20.6529724,84.5922579 20.5624461,83.0516498 20.5151066,81.5135333 C20.3764104,76.9639639 20.3780714,72.4102419 21.1155701,67.9121646 C21.5781677,65.0933916 22.3156664,62.3178054 22.9892153,59.5372362 C23.5423393,57.2475022 24.9068779,55.4502645 26.8585916,54.2152865 C30.3583882,51.998638 34.0450509,51.8308736 37.7724089,53.6704677 C39.7789368,54.6596128 41.2854937,56.206865 42.1218238,58.2756816 C42.6840835,59.6676273 43.0478497,61.1476077 43.4157686,62.6101473 C44.5851358,67.2510734 45.1067001,71.9750513 45.0768015,76.7571653 C45.0568692,79.8782463 44.9563767,82.9993273 44.9655123,86.1195778 C44.9680039,86.9492637 45.1590227,87.8038652 45.4114997,88.6003305 C45.727096,89.5994419 46.4255603,89.7032565 47.1746862,88.9690799 C48.0982206,88.0629864 48.7277521,86.9559079 49.2011465,85.780727 C50.6495672,82.1812685 51.5697795,78.427334 52.2466505,74.6169243 C52.9417928,70.701039 53.5190018,66.7635603 54.2182966,62.847675 C54.9283882,58.8686704 55.6891414,54.8988016 56.4980644,50.9388989 C56.8153217,49.3874941 57.3252589,47.8759541 57.783704,46.2107685 C55.9158724,47.4324582 54.3337384,46.8369779 52.8122322,45.7506623 C52.6129083,45.608644 52.4368388,45.433405 52.2325317,45.2988614 C51.316472,44.6917538 50.4967522,43.8612373 49.2642657,43.9550857 C48.5541741,44.0098998 47.8382689,44.0348153 47.137313,44.1452739 C44.8708335,44.5032266 43.2770723,43.7972875 42.3277919,41.9203202 C41.9175168,41.1089056 41.6459379,40.223575 41.19912,39.4362454 C40.9026256,38.914681 40.4798927,38.3889641 39.9815828,38.0766899 C39.2166771,37.5983124 38.3479569,37.2793941 37.5058131,36.9322382 C35.7799999,36.219655 34.9021439,34.9722192 34.9303815,33.1135233 C34.9420087,32.3594143 35.0275519,31.6028138 35.1330275,30.8553489 C35.2958087,29.7067446 35.1629261,28.67026 34.4096476,27.710183 C33.7410819,26.8572425 33.1422795,25.9370302 32.6090879,24.992733 C32.0077939,23.9271803 32.0725742,22.8001694 32.6788513,21.7437524 C33.0650414,21.0718646 33.5409274,20.4514688 33.9678129,19.8028354 C34.6064801,18.8319616 35.4785224,17.9441395 35.1313665,16.613652 L35.1313665,16.613652 Z M23.7964773,80.2013172 C23.7964773,82.2294385 23.8504609,84.2600513 23.7806975,86.2865116 C23.7142562,88.2016826 23.2989979,90.0188527 21.9477476,91.5212571 C20.5175982,93.1108656 18.2361694,92.7313196 17.0302594,91.8592773 C15.2770391,90.5935701 14.2596564,88.826231 13.4515638,86.9044159 C12.1908398,83.9045903 11.3279331,80.7768651 10.7233171,77.5885123 C9.95425884,73.5289477 9.27240479,69.4519422 8.57394042,65.3782587 C8.02912159,62.2023636 7.53994738,59.0173329 6.98433184,55.8430988 C6.42705527,52.6672037 5.66713267,49.5361565 4.53347765,46.513907 C3.83252173,44.6452449 2.97459819,42.8355494 2.22630282,40.9834976 C1.09596987,38.1863181 0.409132724,35.2836629 0.107655235,32.2738711 C-0.203788452,29.1610953 0.172435522,26.1313711 1.08185109,23.1739018 C1.81104457,20.8011162 2.96795405,18.6326376 4.57334245,16.7033478 C6.13222191,14.8297026 7.97015492,13.317332 10.1187011,12.1961348 C12.0670928,11.1795826 14.1550113,10.5857633 16.3459138,10.3432525 C20.6014803,9.87234961 24.6037393,10.7834262 28.4822514,12.4726968 C29.5984656,12.9585489 30.7420868,13.4111804 31.9156066,13.7184715 C32.5252057,13.8771002 33.244433,13.7641499 33.8831002,13.6271147 C34.4835636,13.4983846 34.9677547,13.1861104 35.1180782,12.4295099 C35.4004538,11.000191 36.6096858,10.4121853 37.77407,9.82833224 C37.9518005,9.73946697 38.1478024,9.68631392 38.3363296,9.62070312 C39.9973626,9.03934157 41.2398153,8.05684055 41.7771595,6.28617937 C41.980636,5.61761359 42.3460633,4.98392951 42.7156431,4.38263556 C43.5320409,3.0554702 44.7761546,2.542211 46.3001523,2.65682228 C46.8997853,2.70167017 47.5044013,2.73987393 48.092407,2.85199365 C49.7758639,3.17423406 51.1304363,2.54885513 52.3787026,1.49326866 C52.8321646,1.11040056 53.3612036,0.812245135 53.8761238,0.508276097 C55.4590883,-0.424393931 56.9133227,0.0440173744 58.3077599,0.962568621 C58.716374,1.23165597 59.1249881,1.51320106 59.4821102,1.84457714 C60.5983244,2.87773967 61.9171846,3.0504871 63.345673,2.83870539 C63.7634228,2.77641665 64.1919693,2.77309459 64.604736,2.68921242 C66.7009596,2.26731004 68.5405537,3.79878246 69.3287138,5.61429153 C69.3810364,5.73637745 69.4267148,5.86261596 69.4615965,5.9905155 C70.0039237,7.94721237 71.3709539,9.02439227 73.212209,9.71205993 C74.043556,10.0218426 74.8516485,10.5301187 75.5144007,11.1231075 C76.4429181,11.953624 76.5708177,13.1337879 76.4653421,14.3322232 C76.384782,15.2408083 76.2128651,16.1576985 76.2710012,17.0579784 C76.3150186,17.7323578 76.5658346,18.4382968 76.8930581,19.0370992 C77.3805713,19.9282434 78.0441539,20.7213866 78.5856507,21.5851238 C79.5457278,23.1141047 79.1686733,24.5641865 78.2326812,25.9461659 C77.7825412,26.6097486 77.2975196,27.2492463 76.8183116,27.8928966 C76.0899486,28.8753976 76.1871191,29.9824761 76.3058829,31.0995208 C76.3789684,31.7855274 76.4777998,32.4740256 76.4811219,33.1616933 C76.4885965,34.9099305 75.5692148,36.221316 73.9447245,36.8774241 C73.5120254,37.0526631 73.0975977,37.2793941 72.6549324,37.4180903 C70.8527116,37.9811805 70.0138899,39.3739567 69.3860194,41.0192098 C69.1061354,41.7542169 68.6850635,42.4668001 68.1933978,43.0813823 C67.2457784,44.2640378 65.8745957,44.2607157 64.5158707,44.1718505 C63.8722204,44.1294941 63.2260786,44.0829852 62.5890724,43.9816622 C62.1505597,43.9118988 61.9329644,44.0547476 61.8009123,44.4641923 C61.256924,46.1526323 60.6572911,47.824462 60.149015,49.5245293 C58.8841383,53.7477057 58.1483007,58.0879849 57.4008359,62.42162 C56.5628447,67.2834636 55.8627193,72.1693921 54.966592,77.020439 C54.3578234,80.3175895 53.4907642,83.5657395 52.1984805,86.6768543 C51.3380654,88.7498235 50.285801,90.6791133 48.3390704,91.9871768 C46.6273758,93.1382727 44.3409639,92.6806581 43.1699357,90.9855739 C42.1151797,89.4590846 41.8070581,87.7507122 41.7896172,85.9858646 C41.7663628,83.6678931 41.8834656,81.349091 41.9341271,79.0302889 C42.0130262,75.3261854 41.9183473,71.6220818 41.2622393,67.9727923 C40.7880144,65.3342414 40.1800763,62.7098092 39.4467302,60.131886 C38.7432827,57.6610994 36.8696375,56.328951 34.4254275,55.7708439 C31.2387357,55.0433114 28.0561964,56.3131712 26.5355207,59.1269611 C25.8727686,60.3544644 25.5613249,61.789597 25.2033723,63.1607797 C24.839606,64.5552169 24.511552,65.9745696 24.3512623,67.4038885 C24.0489543,70.0781516 23.8338506,72.7648725 23.6718998,75.4524239 C23.577221,77.0295747 23.654459,78.6175222 23.654459,80.2013172 L23.7964773,80.2013172 Z" id="Fill-1" fill="#000000" mask="url(#mask-2)"></path>
            </g>
            <g id="Group-6" transform="translate(0.000000, 57.884104)">
                <mask id="mask-4" fill="white">
                    <use xlink:href="#path-3"></use>
                </mask>
                <g id="Clip-5"></g>
                <path d="M90.2303022,0.186024582 L90.2303022,2.73238817 C89.9479266,2.73238817 89.7087379,2.73487971 89.4695491,2.73238817 C86.0793808,2.69999802 82.6900429,2.68255718 79.3007051,2.6235905 C78.4220187,2.60781069 77.8796914,3.02888256 77.4710773,3.72402486 C75.647263,6.82268192 75.0584268,10.2909188 74.4612855,13.7591557 C73.7030239,18.1650457 73.2628502,22.6299024 72.0411604,26.9502493 C71.1167955,30.2183317 69.9441062,33.380108 67.9309342,36.1631688 C66.2507994,38.4877844 64.140457,40.2908358 61.4271596,41.2816419 C58.8251514,42.2325833 56.1641765,42.4858909 53.5256256,41.4311349 C51.1619756,40.4860071 49.7393009,38.6638539 48.9278863,36.2869157 C48.2726087,34.3684226 48.2385576,32.3934544 48.2543374,30.40852 C48.2643036,29.1826776 48.2809139,27.9543437 48.3623045,26.7309929 C48.5516623,23.8848129 48.0982003,21.0834807 47.8241298,18.2688603 C47.6206533,16.1850944 47.5035505,14.0855487 47.1655302,12.0225457 C46.9304941,10.5923963 46.5210494,9.1522807 45.9396879,7.82594585 C45.3242752,6.41988142 44.6714892,6.47801757 43.8866511,7.80601345 C43.0719144,9.18384032 42.8277426,10.7319231 42.620944,12.2725312 C41.8510552,17.9864847 41.6168495,23.7228621 41.9557002,29.4841551 C42.0894134,31.7597703 41.918327,34.0137921 41.2813209,36.2337627 C40.4225668,39.2286052 37.8255417,41.5490683 34.7235626,41.9601739 C31.4538191,42.3945341 28.5129602,41.5665091 25.8254088,39.6986775 C23.1229081,37.8192187 21.3871287,35.1981086 20.045014,32.2663854 C17.8765354,27.5316108 17.0534936,22.4530024 16.3002151,17.3669194 C15.7595489,13.7084942 15.2504423,10.0475775 14.0304135,6.53947579 C13.6890712,5.55946633 13.2115242,4.61766062 12.7132143,3.70409247 C12.3079223,2.9607802 11.6717467,2.59286139 10.7390766,2.61611586 C7.41784116,2.69667596 4.09411413,2.69999802 0.772048137,2.73155765 C0.530367836,2.7340492 0.289518051,2.73238817 -0.000332206599,2.73238817 L-0.000332206599,0.139515658 C0.187364522,0.130379976 0.360111954,0.114600163 0.532028869,0.11293913 C3.96621459,0.0797184699 7.40123083,0.0830405359 10.834586,0.00164991907 C12.8394529,-0.0456895213 14.1799065,0.928506331 15.1208817,2.5579797 C16.8068302,5.47807571 17.5260575,8.71625953 18.1065885,11.9893251 C18.8756468,16.3262822 19.5450431,20.6831718 20.4054582,25.0018575 C20.9444634,27.7085108 21.8713198,30.3221462 23.2225701,32.753068 C25.1518599,36.226288 27.8327672,38.7618549 31.9164168,39.3780981 C34.1098109,39.7094742 36.152051,39.3133178 37.6718962,37.5011308 C38.6037357,36.3907303 39.0688249,35.0469546 39.1551986,33.634246 C39.2714709,31.7240581 39.298878,29.8014124 39.2332672,27.8887329 C39.025638,21.8110132 39.2548606,15.7607005 40.3901767,9.77599859 C40.7489598,7.88325149 41.4399495,6.08767482 43.026236,4.80452683 C43.9406347,4.06370611 45.5402095,3.86770422 46.4604217,4.58443996 C47.177988,5.14420808 47.8332655,5.86675743 48.3016768,6.6457819 C49.4776882,8.60164826 49.7177074,10.8398902 49.9560657,13.0573693 C50.3181709,16.4242832 50.7051916,19.789536 50.9850756,23.1639245 C51.106331,24.623142 51.0232794,26.1039529 50.9684653,27.5731366 C50.8737864,30.0671777 50.6902423,32.5620492 51.3264179,35.0203781 C52.0348485,37.758591 53.7590007,39.2726225 56.568638,39.4378953 C59.6888885,39.62227 62.2834221,38.3573934 64.4535617,36.173135 C66.761567,33.8510108 68.0114943,30.937559 69.0056226,27.8903939 C70.0736668,24.61982 70.6525368,21.2412788 71.1491857,17.8494495 C71.7239031,13.9285811 72.2695524,10.0043906 73.479615,6.21225229 C73.9887216,4.61599958 74.6190836,3.06874735 75.643941,1.72829372 C76.451203,0.671876733 77.5267219,0.01327715 78.893752,0.0207517985 C82.617788,0.0390231615 86.3409935,0.0880236349 90.06586,0.12705791 C90.1065553,0.12705791 90.1455895,0.154464955 90.2303022,0.186024582" id="Fill-4" fill="#000000" mask="url(#mask-4)"></path>
            </g>
            <path d="M66.3278852,25.6673615 C66.3328544,27.2353767 65.0015365,28.5725082 63.4418265,28.5658888 C61.8970658,28.55922 60.5848497,27.2553091 60.5781665,25.7188536 C60.5699004,24.1425332 61.884608,22.8278256 63.4642504,22.8319684 C65.0322656,22.8369613 66.3237187,24.1151262 66.3278852,25.6673615" id="Fill-11" fill="#000000"></path>
            <path d="M65.8002507,15.9968274 C65.8035662,17.6038769 64.5320455,18.8762281 62.9308097,18.8679634 C61.3710997,18.8596178 60.1078841,17.586436 60.1012142,16.0159293 C60.0945958,14.4088799 61.3719302,13.1348676 62.9798101,13.1448338 C64.5611136,13.1556305 65.7969221,14.4047273 65.8002507,15.9968274" id="Fill-13" fill="#000000"></path>
            <path d="M73.5579073,23.4503808 C73.5512885,21.8640943 74.8502163,20.591743 76.4614184,20.6058618 C78.0551795,20.6199806 79.3075984,21.8665858 79.3042829,23.4354315 C79.3009543,25.0051077 78.0452133,26.2724759 76.4747066,26.2940693 C74.8942337,26.3148322 73.5645768,25.0183959 73.5579073,23.4503808" id="Fill-15" fill="#000000"></path>
            <path d="M71.9816954,16.7591585 C71.1669587,16.7525144 70.5133422,16.0955758 70.5050371,15.2750255 C70.4959014,14.4204241 71.1686198,13.7452141 72.0165771,13.7560109 C72.8371274,13.7668076 73.4865913,14.4204241 73.4965575,15.2442964 C73.5056932,16.0839486 72.8238391,16.7658027 71.9816954,16.7591585" id="Fill-17" fill="#000000"></path>
            <path d="M69.1746327,19.7309093 C70.0807262,19.7292516 70.6961389,20.3405118 70.6795286,21.2283339 C70.6654098,22.0380875 69.993522,22.7257551 69.2045313,22.7398739 C68.4387951,22.7523317 67.6672453,21.9699851 67.6788725,21.1926217 C67.6913302,20.3828681 68.356574,19.7325737 69.1746327,19.7309093" id="Fill-19" fill="#000000"></path>
            <path d="M72.7237619,34.4863671 C72.7154567,35.3575789 72.1116712,35.9713306 71.2562393,35.9779747 C70.435689,35.9854494 69.7189532,35.2496117 69.7463603,34.4290614 C69.7729368,33.6450539 70.4996387,32.9515726 71.2786632,32.9673524 C72.1108407,32.9839627 72.7320671,33.6375792 72.7237619,34.4863671" id="Fill-21" fill="#000000"></path>
            <path d="M65.2281014,33.7292682 C65.2139826,34.5356998 64.5238234,35.2075876 63.7182224,35.1992824 C62.8752481,35.1901468 62.2465471,34.5589542 62.244044,33.717641 C62.2407335,32.8838024 62.9558082,32.1670667 63.7655618,32.1928127 C64.5155182,32.2177282 65.2413896,32.9801424 65.2281014,33.7292682" id="Fill-23" fill="#000000"></path>
            <path d="M56.8717766,28.9476525 C55.9989037,28.9302117 55.4158811,28.3280872 55.4299999,27.459367 C55.4424577,26.6504439 56.1209896,25.9860307 56.9290822,25.990986 C57.7811921,25.9959969 58.4248424,26.681173 58.3949438,27.5498933 C58.3642147,28.4294103 57.7803616,28.9659239 56.8717766,28.9476525" id="Fill-25" fill="#000000"></path>
            <path d="M69.4134892,28.4119694 C69.4267775,27.7608445 69.9882067,27.4161801 70.4873471,27.7691496 C71.0803359,28.1877299 71.6276462,28.6852093 72.1267866,29.2125873 C72.2613303,29.3554361 72.2521946,29.7922878 72.1309392,29.9766625 C72.0038702,30.1701728 71.5429336,30.3877682 71.4333054,30.3088691 C70.7414851,29.8113897 70.1019874,29.2391638 69.4583371,28.6760737 C69.3952179,28.6212596 69.4209639,28.4651225 69.4134892,28.4119694" id="Fill-27" fill="#000000"></path>
            <path d="M58.6236681,20.7398241 C57.7914905,20.4059565 57.0531614,20.157632 56.3713073,19.8013405 C56.1993904,19.7116447 56.0673383,19.2000465 56.1670003,19.0198244 C56.2924082,18.7922629 56.7051749,18.5439385 56.9385501,18.5904474 C57.5855224,18.7175164 58.2316643,18.9359423 58.8180089,19.2357587 C59.0538756,19.3570141 59.2639963,19.7980184 59.2407418,20.0720888 C59.2208094,20.307125 58.8495685,20.5114321 58.6236681,20.7398241" id="Fill-29" fill="#000000"></path>
            <path d="M75.9387743,31.4651972 C75.7635353,31.4651972 75.5600588,31.5283165 75.4612273,31.4527395 C75.2037672,31.2592291 74.8242212,31.0150573 74.8092719,30.7717159 C74.7951531,30.5316967 75.1323428,30.0998281 75.3781757,30.0475055 C76.023487,29.9104703 76.7011885,29.9204365 77.3680932,29.8996736 C77.7750463,29.8863853 78.136321,30.1048112 78.0599135,30.5134253 C78.0042689,30.8107502 77.7094355,31.1944488 77.4353651,31.2899582 C76.9652927,31.4519089 76.4287791,31.4186883 75.9387743,31.4651972" id="Fill-31" fill="#000000"></path>
            <path d="M67.0127983,12.9209265 C67.1705964,12.6053303 67.2719194,12.3619889 67.4081241,12.140241 C67.6630927,11.7249828 67.9296885,11.3147076 68.2095725,10.9160597 C68.4877956,10.5207338 68.937105,10.4426653 69.2543623,10.7150747 C69.4528557,10.8845001 69.5599924,11.4035729 69.4478726,11.6444227 C69.1605139,12.2606659 68.761866,12.8370444 68.3308279,13.3669139 C68.1971148,13.5313562 67.7826871,13.596967 67.5584476,13.5222205 C67.3391912,13.449135 67.1980034,13.1385218 67.0127983,12.9209265" id="Fill-33" fill="#000000"></path>
            <path d="M76.3216424,16.6270233 C76.9262584,16.6868205 77.4735688,16.6776849 77.9801839,16.8180421 C78.2251862,16.8861445 78.5706811,17.2524023 78.5524097,17.4533873 C78.5266637,17.7199831 78.1961182,18.1618178 77.9843365,18.1692925 C77.2592956,18.195869 76.5168138,18.1178005 75.8075527,17.9608328 C75.5966015,17.9143239 75.3217006,17.4592009 75.3515992,17.2249952 C75.3790062,17.0024168 75.7519081,16.8055844 76.0010631,16.6369895 C76.0924199,16.5755313 76.2610147,16.6270233 76.3216424,16.6270233" id="Fill-35" fill="#000000"></path>
            <path d="M76.3216424,16.6270233 C76.2610147,16.6270233 76.0924199,16.5755313 76.0010631,16.6369895 C75.7519081,16.8055844 75.3790062,17.0024168 75.3515992,17.2249952 C75.3217006,17.4592009 75.5966015,17.9143239 75.8075527,17.9608328 C76.5168138,18.1178005 77.2592956,18.195869 77.9843365,18.1692925 C78.1961182,18.1618178 78.5266637,17.7199831 78.5524097,17.4533873 C78.5706811,17.2524023 78.2251862,16.8861445 77.9801839,16.8180421 C77.4735688,16.6776849 76.9262584,16.6868205 76.3216424,16.6270233 M67.0132135,12.9212587 C67.1984187,13.1388541 67.338776,13.4486367 67.5588629,13.5225527 C67.7822718,13.5972992 68.19753,13.5316884 68.3312432,13.3672461 C68.7622813,12.8373766 69.1600987,12.2601676 69.4482879,11.6439244 C69.5604076,11.4030746 69.4524405,10.8848323 69.2547775,10.7145764 C68.9375202,10.4429975 68.4882108,10.5210661 68.2099878,10.9163919 C67.9292732,11.3150398 67.6635079,11.7244845 67.4077089,12.1405732 C67.2715041,12.3614906 67.1701811,12.6048319 67.0132135,12.9212587 M75.9387743,31.4650311 C76.4287791,31.4185222 76.9652927,31.4517428 77.4353651,31.2897921 C77.7094355,31.1951132 78.0042689,30.8105841 78.0599135,30.5140897 C78.1371515,30.1046451 77.7750463,29.8862192 77.3680932,29.8995075 C76.702019,29.9202704 76.023487,29.9111347 75.3781757,30.04817 C75.1323428,30.1004925 74.7951531,30.5323611 74.8092719,30.7715498 C74.8242212,31.0148912 75.2037672,31.259063 75.4612273,31.4534039 C75.5600588,31.5281504 75.7635353,31.4650311 75.9387743,31.4650311 M58.6233359,20.739741 C58.8492363,20.511349 59.2204772,20.3070419 59.2412401,20.0720058 C59.2644946,19.7979353 59.0535434,19.3569311 58.8176767,19.2365062 C58.2321626,18.9358592 57.5851902,18.7174334 56.9390484,18.5903643 C56.7056733,18.5446859 56.2929066,18.7921799 56.1674986,19.0197414 C56.0678366,19.1999635 56.1990582,19.7115616 56.3718056,19.8012574 C57.0528292,20.157549 57.7911583,20.4058734 58.6233359,20.739741 M69.4134062,28.4120525 C69.4208808,28.4652055 69.3951348,28.6213426 69.4582541,28.6761567 C70.1019044,29.2392469 70.7414021,29.8114728 71.4332223,30.3089521 C71.5428505,30.3878512 72.0037872,30.1702559 72.1308562,29.9767455 C72.2521116,29.7923709 72.2612473,29.3555192 72.1267036,29.2126704 C71.6275632,28.6852924 71.0802528,28.187813 70.4880945,27.7692327 C69.9881236,27.4162632 69.4266945,27.7609275 69.4134062,28.4120525 M56.8717766,28.9477356 C57.7803616,28.966007 58.3642147,28.4294933 58.3949438,27.5499763 C58.4248424,26.6804256 57.7811921,25.99608 56.9290822,25.991069 C56.1209896,25.9861138 55.4424577,26.650527 55.4299999,27.45945 C55.4158811,28.3281703 55.9989037,28.9302948 56.8717766,28.9477356 M65.2284336,33.7290191 C65.2417218,32.9798932 64.5150199,32.2174791 63.7650635,32.1933941 C62.9561404,32.1668175 62.2402352,32.8843838 62.2435458,33.7182224 C62.2468793,34.5587051 62.8755803,35.1907281 63.7177241,35.1990333 C64.5241556,35.2073384 65.2143148,34.5354506 65.2284336,33.7290191 M72.723845,34.4864501 C72.7321501,33.6376623 72.1109238,32.9840458 71.2787463,32.9674354 C70.4997218,32.9516556 69.7730198,33.6451369 69.7464433,34.4291445 C69.7190363,35.2496948 70.435772,35.9855324 71.2563223,35.9780578 C72.1117543,35.9714136 72.7155398,35.3576619 72.723845,34.4864501 M69.175048,19.7306601 C68.3561587,19.733155 67.6917455,20.382619 67.6792877,21.1923725 C67.66683,21.969736 68.4383798,22.7520825 69.204116,22.7396248 C69.9931067,22.7263365 70.6649946,22.0378383 70.6799439,21.2280847 C70.6965542,20.3410931 70.0803109,19.7290025 69.175048,19.7306601 M71.9813632,16.7590755 C72.8235069,16.7657196 73.505361,16.0838656 73.4962253,15.2442134 C73.4870896,14.420341 72.8376257,13.7667245 72.0162449,13.7559278 C71.1682876,13.7451311 70.4963997,14.420341 70.5055354,15.2749425 C70.51301,16.0954928 71.1666265,16.7524313 71.9813632,16.7590755 M73.5576641,23.4505469 C73.5643277,25.018562 74.8948151,26.3149983 76.475288,26.2942354 C78.0449642,26.272642 79.3007051,25.0044433 79.3040375,23.4355976 C79.3081798,21.8667519 78.0549304,20.6201467 76.4611692,20.6060279 C74.8499672,20.5919091 73.5518699,21.8642604 73.5576641,23.4505469 M65.8006659,15.9966613 C65.7965068,14.4045612 64.5606983,13.1554644 62.9802254,13.1454982 C61.3723455,13.1347015 60.0950111,14.4095443 60.1016294,16.0157632 C60.1082994,17.5862699 61.3715149,18.8594517 62.9303944,18.8677973 C64.5324607,18.876062 65.8039815,17.6037107 65.8006659,15.9966613 M66.3280514,25.6671954 C66.3230543,24.1157906 65.0324317,22.8376257 63.4644165,22.8326285 C61.8847741,22.8276595 60.5700665,24.1423671 60.5775095,25.7186875 C60.5850158,27.255143 61.8964014,28.5598844 63.4419926,28.5657227 C65.0017026,28.5723421 66.3330205,27.2352106 66.3280514,25.6671954" id="Fill-9" fill="#FFFFFF"></path>
        </g>
    </g>
</svg>