<?xml version="1.0" encoding="UTF-8"?>
<svg width="81px" height="100px" viewBox="0 0 81 100" version="1.1" xmlns="http://www.w3.org/2000/svg" xmlns:xlink="http://www.w3.org/1999/xlink">
    <title>Group 12</title>
    <defs>
        <polygon id="path-1" points="0 0 20.0420723 0 20.0420723 19.8256933 0 19.8256933"></polygon>
    </defs>
    <g id="Page-1" stroke="none" stroke-width="1" fill="none" fill-rule="evenodd">
        <g id="Group-12">
            <path d="M51.528815,96.5632589 C53.1474546,95.1055227 53.8955351,93.4496592 54.4322798,91.6929309 C55.8623983,87.0231317 56.5396333,82.203236 56.5276256,77.3521203 C56.5120155,70.6722301 56.1277687,63.9923399 55.9464523,57.3124496 C55.9236376,56.4875198 56.0281047,55.594146 56.3306991,54.8364594 C58.6325775,49.0619506 60.7543402,43.2370095 62.114814,37.1527018 C63.0406086,33.0172457 62.9217323,29.000666 61.038923,25.1413874 C59.4779204,21.9425329 56.8962623,20.0621251 53.3323734,20.1353722 C50.6642597,20.1894069 47.9553199,20.5700514 45.3556502,21.1872478 C38.8955011,22.7206326 32.4761782,22.9956092 25.9595929,21.5666915 C22.8844178,20.8930588 19.7444011,20.2842678 16.6127898,20.1545845 C12.5721946,19.9864766 9.74077613,22.1106408 8.19658436,25.8822632 C6.75685968,29.3993221 6.58514939,32.9956318 7.37285531,36.6940072 C8.7369314,43.1037239 10.9679643,49.2192517 13.4619661,55.2555285 C13.6636957,55.7430416 13.824599,56.3050026 13.7945797,56.8213342 C13.6624949,59.1628381 13.4115337,61.4983381 13.2830512,63.8398419 C12.863982,71.5067661 12.7919358,79.1688872 14.107981,86.7697689 C14.5810849,89.5003227 15.0962157,92.2440849 16.5935774,94.6552335 C16.9874304,95.2880399 17.5133682,95.8379931 18.0465106,96.5128265 C19.5330653,94.6672412 20.0421923,92.6787641 20.3928175,90.6962908 C21.1889288,86.1970011 21.7905152,81.662889 22.5530049,77.1575954 C23.1413828,73.6777604 24.0059381,70.2627671 25.9595929,67.2512329 C30.215126,60.6878175 39.510296,60.6854159 43.7382114,67.2692445 C44.4910949,68.4399964 45.0794728,69.7452347 45.5693875,71.0528746 C47.1015716,75.1499059 47.4798145,79.4894931 48.1654549,83.7702425 C48.7142073,87.1936412 49.4863032,90.5834183 50.2620014,93.96479 C50.4601286,94.8269438 51.0473058,95.6014412 51.528815,96.5632589 M9.42857562,70.1919216 C9.62310055,67.0819242 9.93650184,62.2428162 10.2102777,57.4013067 C10.240297,56.8837743 10.1214206,56.3182111 9.92689567,55.8330995 C7.44370081,49.6251123 5.1418224,43.3642912 3.86180029,36.7708565 C2.97443036,32.2055244 3.40550723,27.809501 5.42160209,23.6176087 C7.58539181,19.1159174 11.247744,16.6735488 16.212933,16.6231164 C18.878645,16.5954987 21.6296119,16.8848845 24.2028646,17.5633203 C31.5467813,19.5001642 38.7946363,19.4245156 46.0857191,17.3880077 C49.078041,16.5534717 52.1508145,16.231665 55.2596112,16.7455951 C59.5295536,17.4516485 62.524277,19.8303763 64.3710631,23.6992611 C66.5900883,28.3474465 66.7401847,33.1637398 65.6306721,38.1253265 C64.3386423,43.9034375 62.4186091,49.4714136 60.2031862,54.9421273 C59.7132716,56.1501031 59.6148083,57.3148512 59.6724454,58.5864679 C59.9258081,64.1712548 60.2716302,69.759644 60.272831,75.3480332 C60.2740317,81.1417543 59.6652407,86.9030545 57.9925664,92.4974476 C57.3585592,94.615608 56.4627839,96.6052859 54.9534145,98.2551456 C52.6503353,100.770761 49.8525384,100.530607 48.0549839,97.6199376 C46.4195335,94.9734379 45.8383602,91.9631044 45.3184263,88.9575741 C44.5079057,84.2613579 43.8486824,79.5375239 42.9312931,74.8629216 C42.5830695,73.0917841 41.8914253,71.318245 41.0172638,69.7320262 C38.2434823,64.6983933 31.7521132,64.6671733 28.8162276,69.6083468 C27.2324103,72.2764604 26.5984031,75.2711838 26.0724654,78.2767142 C25.2523386,82.9717296 24.6087253,87.6991659 23.6709229,92.3689651 C23.3022862,94.2097474 22.5482019,96.0481281 21.6103995,97.6823777 C19.9641422,100.552221 17.1951638,100.741943 14.9076946,98.3343965 C12.8351635,96.1525952 11.9862183,93.3848175 11.2825664,90.5630052 C9.75638616,84.4438751 9.50542498,78.1962625 9.42857562,70.1919216" id="Fill-1" fill="#000000"></path>
            <g id="Group-5" transform="translate(60.408398, 0.000000)">
                <mask id="mask-2" fill="white">
                    <use xlink:href="#path-1"></use>
                </mask>
                <g id="Clip-4"></g>
                <path d="M20.0420723,9.90492156 C15.2377867,11.7769239 11.9848974,14.9649714 10.0396481,19.8256933 C8.08839487,15.0298131 4.8715288,11.7673177 0,9.90372079 C4.78267173,8.01130536 8.06077713,4.83046242 9.96640104,-0.000240154242 C11.9068473,4.75721538 15.1225126,8.03291924 20.0420723,9.90492156" id="Fill-3" fill="#000000" mask="url(#mask-2)"></path>
            </g>
            <path d="M6.35568201,13.2216918 C5.35423883,14.2375442 4.20269923,15.4046939 3.22166916,16.3989324 C2.17819897,15.3710723 0.990636248,14.1991196 -2.13299815e-15,13.2216918 C1.01945476,12.2046386 2.19621054,11.0326859 3.22166916,10.0096288 C4.18828998,11.0002651 5.33262494,12.1734185 6.35568201,13.2216918" id="Fill-6" fill="#000000"></path>
            <path d="M13.3896797,33.9460423 C16.6869974,35.2885045 18.7955517,37.427078 20.0767746,40.5863071 C21.3543951,37.4234757 23.5025748,35.2921068 26.7386532,33.9628531 C23.4797602,32.6323986 21.3267774,30.504632 20.0467553,27.3117813 C18.7595285,30.4674081 16.6485727,32.6023793 13.3896797,33.9460423 M51.5285749,96.5626585 C51.0470656,95.6008408 50.4610893,94.8275441 50.262962,93.9641896 C49.4872638,90.5828179 48.7139671,87.1930408 48.1652147,83.7708428 C47.4795743,79.4900935 47.1025322,75.1505063 45.5691473,71.053475 C45.0804335,69.7446343 44.4908548,68.4405968 43.7379712,67.2686441 C39.5100558,60.6860163 30.2160867,60.6884179 25.9593527,67.2506325 C24.005698,70.2633675 23.1423435,73.6771601 22.5527648,77.156995 C21.7914758,81.6634894 21.1886887,86.1976015 20.3925774,90.6968912 C20.0419522,92.6793645 19.5328252,94.6666408 18.0462704,96.5134269 C17.513128,95.8385935 16.9871902,95.2874395 16.5933373,94.6558339 C15.0959756,92.2446853 14.5808447,89.5009231 14.1089416,86.7703693 C12.7916956,79.1682868 12.8637419,71.5073665 13.282811,63.8404423 C13.4112936,61.4977377 13.6622548,59.1622377 13.7943396,56.8207338 C13.8243589,56.305603 13.6634555,55.7424413 13.461726,55.2549282 C10.9677242,49.2198521 8.73669125,43.1031235 7.37261515,36.6946076 C6.58490924,32.9950315 6.75782029,29.3987217 8.1963442,25.8816628 C9.74053598,22.1100404 12.5719545,19.9870769 16.6137504,20.1539841 C19.7441609,20.2848682 22.8841776,20.8936592 25.9593527,21.5672919 C32.4759381,22.9950088 38.8964617,22.721233 45.3566108,21.1878482 C47.9562805,20.5706518 50.6640196,20.1900073 53.3321332,20.1347718 C56.8960222,20.0615248 59.4776803,21.9431332 61.0386828,25.140787 C62.9214921,29.0000656 63.0403684,33.0166453 62.1157746,37.1533022 C60.7541001,43.2376099 58.6323373,49.0613503 56.3304589,54.835859 C56.0278646,55.5947464 55.9233975,56.4869194 55.9462121,57.3118492 C56.1275286,63.9929402 56.5129761,70.6716297 56.5273854,77.3527207 C56.5393931,82.2026356 55.8621582,87.0225313 54.4332404,91.6935313 C53.8952949,93.4502596 53.1472144,95.1061231 51.5285749,96.5626585" id="Fill-8" fill="#FFFFFF"></path>
            <path d="M13.3896797,33.9460423 C16.6485727,32.6023793 18.7595285,30.4674081 20.0467553,27.3117813 C21.3267774,30.504632 23.4797602,32.6323986 26.7386532,33.9628531 C23.5025748,35.2921068 21.3543951,37.4234757 20.0767746,40.5863071 C18.7955517,37.427078 16.6869974,35.2885045 13.3896797,33.9460423" id="Fill-10" fill="#000000"></path>
        </g>
    </g>
</svg>