<svg xmlns="http://www.w3.org/2000/svg" xmlns:xlink="http://www.w3.org/1999/xlink" preserveAspectRatio="xMidYMid" width="154.375" height="45.19" viewBox="0 0 154.375 45.19">
  <defs>
    <style>
      .cls-1 {
        fill: #F7A5F9;
        fill-rule: evenodd;
      }
    </style>
  </defs>
  <path d="M135.463,21.829 C134.843,20.148 134.280,18.603 133.703,17.064 C133.335,16.082 132.904,15.123 132.575,14.129 C131.925,12.169 132.736,10.056 134.415,9.205 C136.133,8.334 137.747,8.823 138.358,10.641 C140.335,16.519 143.322,21.861 146.821,26.937 C149.009,30.110 151.311,33.203 153.498,36.376 C155.269,38.946 154.274,42.519 151.410,43.701 C150.482,44.084 149.354,44.136 148.327,44.099 C137.112,43.703 125.951,44.844 114.764,45.185 C112.722,45.247 110.629,44.670 108.614,44.170 C107.006,43.771 106.355,42.747 106.471,41.373 C106.593,39.937 107.493,39.156 108.833,38.867 C117.122,37.079 125.301,34.582 133.927,34.931 C134.776,34.965 135.630,34.864 136.579,34.820 C136.488,34.612 136.472,34.467 136.393,34.412 C125.831,26.948 114.803,20.286 102.618,15.800 C91.520,11.713 80.000,9.595 68.147,9.764 C61.172,9.864 54.306,11.067 47.441,12.336 C36.029,14.444 25.681,19.103 15.952,25.166 C12.640,27.231 9.891,30.209 6.943,32.835 C6.489,33.240 6.326,33.990 6.076,34.600 C5.381,36.295 3.923,37.049 2.149,36.602 C0.485,36.184 -0.218,35.023 0.062,33.095 C0.406,30.729 1.718,28.904 3.245,27.133 C9.544,19.835 17.636,15.039 26.009,10.600 C35.136,5.761 44.880,2.874 55.031,1.196 C63.896,-0.269 72.842,-0.372 81.675,0.767 C96.590,2.689 110.674,7.359 123.595,15.224 C127.303,17.482 131.054,19.669 134.789,21.882 C134.853,21.920 134.969,21.872 135.463,21.829 Z" class="cls-1"/>
</svg>
