<svg xmlns="http://www.w3.org/2000/svg" xmlns:xlink="http://www.w3.org/1999/xlink" preserveAspectRatio="xMidYMid" width="156.156" height="45.03" viewBox="0 0 156.156 45.03">
  <defs>
    <style>
      .cls-1 {
        fill: #F7A5F9;
        fill-rule: evenodd;
      }
    </style>
  </defs>
  <path d="M136.770,23.924 C136.119,25.614 135.527,27.167 134.921,28.714 C134.535,29.701 134.085,30.664 133.737,31.664 C133.051,33.636 133.840,35.783 135.525,36.668 C137.249,37.574 138.887,37.104 139.531,35.275 C141.617,29.363 144.715,24.007 148.327,18.928 C150.585,15.753 152.958,12.660 155.216,9.485 C157.044,6.915 156.091,3.288 153.214,2.051 C152.282,1.650 151.142,1.580 150.103,1.602 C138.761,1.838 127.497,0.518 116.193,0.008 C114.131,-0.085 112.006,0.467 109.962,0.943 C108.331,1.322 107.657,2.348 107.754,3.738 C107.856,5.192 108.754,5.995 110.105,6.307 C118.457,8.237 126.687,10.881 135.412,10.657 C136.270,10.635 137.132,10.750 138.091,10.808 C137.996,11.017 137.978,11.163 137.897,11.218 C127.110,18.607 115.864,25.177 103.481,29.532 C92.202,33.498 80.526,35.469 68.548,35.122 C61.499,34.918 54.576,33.601 47.656,32.217 C36.152,29.917 25.760,25.055 16.016,18.781 C12.698,16.646 9.964,13.595 7.023,10.896 C6.570,10.480 6.416,9.719 6.172,9.099 C5.495,7.376 4.033,6.592 2.233,7.017 C0.545,7.415 -0.183,8.578 0.072,10.531 C0.384,12.928 1.683,14.793 3.201,16.605 C9.459,24.075 17.568,29.043 25.966,33.654 C35.121,38.680 44.927,41.743 55.163,43.589 C64.103,45.201 73.143,45.437 82.089,44.417 C97.193,42.695 111.499,38.183 124.676,30.424 C128.458,28.197 132.282,26.041 136.090,23.860 C136.156,23.822 136.272,23.873 136.770,23.924 Z" class="cls-1"/>
</svg>
