<?xml version="1.0" encoding="utf-8"?>
<!-- Generator: Adobe Illustrator 19.1.1, SVG Export Plug-In . SVG Version: 6.00 Build 0)  -->
<svg version="1.1" id="Layer_1" xmlns="http://www.w3.org/2000/svg" xmlns:xlink="http://www.w3.org/1999/xlink" x="0px" y="0px"
	 width="503.8px" height="504.9px" viewBox="0 0 503.8 504.9" style="enable-background:new 0 0 503.8 504.9;" xml:space="preserve"
	>
<style type="text/css">
	.st0{clip-path:url(#SVGID_2_);fill:#27378A;}
	.st1{clip-path:url(#SVGID_2_);fill:#E0EDF8;}
	.st2{clip-path:url(#SVGID_2_);fill:#FDFDFD;}
	.st3{clip-path:url(#SVGID_2_);fill:#F4562D;}
</style>
<g>
	<g>
		<defs>
			<rect id="SVGID_1_" x="0" y="0" width="503.8" height="504.9"/>
		</defs>
		<clipPath id="SVGID_2_">
			<use xlink:href="#SVGID_1_"  style="overflow:visible;"/>
		</clipPath>
		<path class="st0" d="M252,504.9c-68,0-135.9,0-203.9,0c-25.1,0-43.6-15.7-47.7-40.3c-0.4-2.6-0.5-5.3-0.5-8c0-61,0-121.9,0-182.9
			c0-21.1,11.8-36.2,32.1-41.5c23.7-6.2,47.8-6.2,71.9-4.5c27.1,1.9,53.8,7,80.1,13.9c6.6,1.7,8.9,0,10-6.9
			c1.3-8.4,2.7-16.8,3.9-25.1c1.6-10.9,10.5-19.2,21.6-19.3c21.5-0.2,43-0.2,64.5,0c11.1,0.1,20,8.3,21.7,19.2
			c1.3,8.6,2.7,17.1,4,25.6c1,6.4,3.4,8.1,9.8,6.7c7.1-1.6,14.2-3.5,21.4-5.1c32.5-7.3,65.3-11.1,98.6-9.4
			c12.3,0.6,24.5,2.6,36.3,6.2c16.4,5,27.9,20.4,27.9,37.5c0.1,62.8,0.2,125.6,0,188.4c-0.1,25.6-20.9,45.5-47.2,45.5
			c-64.6,0.1-129.3,0-193.9,0C259,504.9,255.5,504.9,252,504.9 M159.8,248.3c-20-4.7-40.2-7.8-60.7-9c-21.8-1.4-43.6-0.8-65,4.9
			c-13.4,3.6-22,14.1-22.1,27.9c-0.1,62.1-0.1,124.3,0,186.4c0,8.6,2.8,16.4,8.6,22.8c7.5,8.4,17.1,11.6,28.1,11.6
			c135.4,0,270.9,0,406.3,0c1.2,0,2.3,0,3.5,0c18.7-0.9,33-15.4,33-34c0.1-62.5,0.1-124.9,0-187.4c0-12.5-7.8-22.9-19.8-26.5
			c-5.4-1.6-10.9-2.9-16.5-3.8c-37.7-5.5-74.7-0.9-111.5,7.2c-1.3,0.2-2.6,0.5-3.9,0.7c-2.2,0.4-2.3,1.4-1,3c8,9.8,7.1,19.9,0.5,30
			c-9.4,14.5-14.4,30.5-17,47.5c-3.3,20.9-5.1,42-9.7,62.6c-1.8,8-3.8,15.9-8.6,22.7c-7.9,11.1-20.5,10.2-26.7-1.8
			c-2.8-5.5-4.4-11.5-5.7-17.5c-5.1-23.3-7.2-47-12-70.3c-1.3-6.5-2.7-13-5.4-19.2c-0.5-1.1-0.9-2.8-2.6-2.7c-1.6,0-2.1,1.6-2.5,2.8
			c-1.3,3.6-2.6,7.2-3.5,10.9c-4.7,18.9-6.7,38.3-9.9,57.5c-2,11.8-3.6,23.7-8,35c-2.6,6.6-6,12.7-14.1,13.1
			c-8.3,0.4-13-4.9-16.6-11.5c-2.4-4.6-4-9.5-5.2-14.5c-4-16-5.8-32.4-8-48.7c-3.2-23-6.3-45.9-19.7-65.8c-6.7-10-7.4-20.1,0.5-30
			c1.3-1.6,1.3-2.6-1-3C162.4,248.8,161.1,248.6,159.8,248.3 M332.7,266.8c-0.5-4.5-2.7-8-7.5-9.8c-6.3-2.4-13-2.9-19.3-4.8
			c-4.3-1.3-6.5-3.9-7.1-8.5c-1.4-10.7-3.2-21.4-4.9-32.1c-1-6.3-4.5-9.4-10.9-9.4c-20.7-0.1-41.3-0.1-62,0c-6.6,0-10,3-11.1,9.7
			c-1.7,10.5-3.5,21-4.9,31.6c-0.6,4.8-2.8,7.7-7.4,8.8c-5,1.2-10.1,2.1-15,3.5c-11.9,3.3-14.7,9.4-8.1,19.9
			c11.4,18,16.6,37.8,19.6,58.6c2.9,20.2,4.7,40.7,9.8,60.6c1.1,4.4,2.4,8.7,4.9,12.5c1,1.5,2.1,3.3,4.1,3.3
			c2.2-0.1,2.8-2.2,3.4-3.8c1.3-3.9,2.7-7.9,3.6-11.9c4.9-21.6,7-43.7,11.1-65.4c2-10.4,3.7-21,9-30.5c6.4-11.3,17.3-11.4,23.8-0.3
			c3.1,5.2,4.8,11,6.2,16.8c5.1,21.2,7.2,43,11,64.4c1.6,9.2,3.1,18.4,6.8,27c2.1,4.9,4.2,5,7.2,0.7c2.6-3.7,3.8-8.1,5-12.4
			c4-15.7,5.8-31.7,7.9-47.7c3.4-25.8,7.4-51.5,22.7-73.6C331.8,271.8,332.6,269.5,332.7,266.8"/>
		<path class="st0" d="M251.8,147.3c-28.6,0-57.3-0.2-85.9,0.1c-10.4,0.1-17-4.3-20.7-13.8c-8.8-22.3-15.6-45.1-14.2-69.4
			c1.8-30.6,17.4-55.9,49.6-62.5c16.9-3.5,33.5-1.6,49.4,5.2c9,3.8,17.8,7.3,27.9,5.5c5-0.9,9.6-2.7,14.2-4.7
			c16.5-7.2,33.6-9.5,51.3-5.9c26.8,5.5,44.8,25.8,48.6,53.6c3.5,25.8-2.5,49.9-11.5,73.7c-0.6,1.7-1.3,3.4-2,5.1
			c-3.9,9.6-9.2,13.2-19.5,13.2C309.7,147.3,280.8,147.3,251.8,147.3 M256.2,25.8c1.6,0.4,3.2,0.9,4.8,1.2c4,0.8,5.8,3.3,5,7.2
			c-0.9,4-3.8,5.1-7.6,4.4c-5.4-0.9-10.4-3-14-7c-14-15.6-32.2-20.1-52-19.1c-21.1,1.1-37.2,10.6-45,31.3
			c-2.7,7.2-4.2,14.7-4.5,22.4c-0.8,20.9,4.8,40.5,12.2,59.7c3.6,9.5,3.7,9.4,13.6,9.4c53,0,105.9,0.1,158.9-0.1
			c20-0.1,16.3,3.7,23.8-16.9c7.3-20,12-40.6,8.3-62.1c-2.9-17.1-10.5-31.3-27.2-38.7c-18.6-8.2-37.3-6.6-55.7,1.1
			c-6,2.5-11.9,5.1-18.5,5.6C257.3,24.3,256.8,24.9,256.2,25.8"/>
		<path class="st1" d="M343.9,248.3c36.8-8.1,73.8-12.7,111.5-7.2c5.6,0.8,11.1,2.1,16.5,3.8c12,3.6,19.8,14,19.8,26.5
			c0.1,62.5,0.1,124.9,0,187.4c0,18.7-14.3,33.1-33,34c-1.2,0.1-2.3,0-3.5,0c-135.4,0-270.9,0-406.3,0c-11.1,0-20.6-3.2-28.1-11.6
			c-5.8-6.5-8.6-14.2-8.6-22.8c-0.1-62.1-0.1-124.3,0-186.4c0-13.8,8.6-24.3,22.1-27.9c21.4-5.7,43.1-6.2,65-4.9
			c20.5,1.3,40.7,4.3,60.7,9c-1.3,2.1-2.8,4.2-3.9,6.4c-5.9,11.6-2.3,22.2,4,32.1c8.2,12.9,12.7,27,15,42c3,19.9,5.7,39.8,9.1,59.6
			c1.8,10.8,4.4,21.6,11,30.8c8.8,12.4,25,13,33.9,1.2c2.6-3.5,4.3-7.5,5.6-11.6c6.9-21.5,8.5-44,12.4-66.1c1.3-7.3,2.1-14.6,5-21.7
			c1,1.8,1.7,3.6,2,5.5c3,18.2,6,36.4,9,54.6c2,12.3,4,24.7,9.9,35.9c7.8,15,26.1,16.1,35.9,2.3c3.9-5.5,6.4-11.7,8.1-18.1
			c4-14.6,6-29.7,7.9-44.7c3.4-25.8,6.5-51.5,21.3-74.1C353.4,271,352.1,259.2,343.9,248.3"/>
		<path class="st2" d="M332.7,266.8c-0.1,2.8-0.9,5-2.2,6.9c-15.3,22.2-19.3,47.8-22.7,73.6c-2.1,16-3.9,32.1-7.9,47.7
			c-1.1,4.4-2.4,8.7-5,12.4c-3,4.4-5.2,4.2-7.2-0.7c-3.7-8.6-5.1-17.9-6.8-27c-3.8-21.4-6-43.2-11-64.4c-1.4-5.8-3.1-11.6-6.2-16.8
			c-6.5-11.1-17.4-11-23.8,0.3c-5.3,9.4-7,20-9,30.5c-4.1,21.7-6.2,43.8-11.1,65.4c-0.9,4-2.3,8-3.6,11.9c-0.6,1.7-1.2,3.8-3.4,3.8
			c-2,0.1-3.1-1.7-4.1-3.3c-2.5-3.8-3.8-8.1-4.9-12.5c-5-19.9-6.8-40.3-9.8-60.6c-3-20.8-8.2-40.6-19.6-58.6
			c-6.6-10.5-3.8-16.5,8.1-19.9c5-1.4,10-2.3,15-3.5c4.6-1.1,6.8-4,7.4-8.8c1.4-10.6,3.1-21.1,4.9-31.6c1.1-6.7,4.5-9.7,11.1-9.7
			c20.7-0.1,41.3-0.1,62,0c6.3,0,9.8,3.1,10.9,9.4c1.8,10.7,3.5,21.3,4.9,32.1c0.6,4.6,2.8,7.2,7.1,8.5c6.4,1.9,13.1,2.3,19.3,4.8
			C330,258.8,332.3,262.2,332.7,266.8"/>
		<path class="st3" d="M343.9,248.3c8.3,10.9,9.5,22.6,2.2,34c-14.7,22.6-17.9,48.3-21.3,74.1c-2,15-3.9,30-7.9,44.7
			c-1.8,6.5-4.2,12.6-8.1,18.1c-9.8,13.8-28.1,12.6-35.9-2.3c-5.9-11.2-7.9-23.6-9.9-35.9c-3-18.2-5.9-36.4-9-54.6
			c-0.3-1.9-0.9-3.7-2-5.5c-2.9,7.1-3.8,14.4-5,21.7c-3.9,22.1-5.4,44.6-12.4,66.1c-1.3,4.1-3,8.2-5.6,11.6
			c-8.9,11.8-25.1,11.2-33.9-1.2c-6.6-9.2-9.2-20-11-30.8c-3.3-19.8-6-39.8-9.1-59.6c-2.3-15-6.8-29.1-15-42
			c-6.3-9.9-9.9-20.5-4-32.1c1.1-2.2,2.6-4.3,3.9-6.4c1.3,0.2,2.6,0.5,3.9,0.7c2.3,0.4,2.3,1.4,1,3c-8,9.8-7.3,20-0.5,30
			c13.4,19.9,16.5,42.9,19.7,65.8c2.2,16.3,4,32.7,8,48.7c1.3,5,2.8,9.9,5.2,14.5c3.6,6.7,8.3,12,16.6,11.5
			c8.1-0.4,11.5-6.5,14.1-13.1c4.4-11.2,6.1-23.1,8-35c3.2-19.2,5.3-38.6,9.9-57.5c0.9-3.7,2.2-7.3,3.5-10.9
			c0.4-1.2,0.9-2.7,2.5-2.8c1.6,0,2,1.6,2.6,2.7c2.7,6.1,4.1,12.6,5.4,19.2c4.8,23.3,6.9,47.1,12,70.3c1.3,6,2.9,12,5.7,17.5
			c6.2,12,18.8,12.9,26.7,1.8c4.8-6.8,6.9-14.7,8.6-22.7c4.6-20.7,6.4-41.7,9.7-62.6c2.7-17,7.6-33,17-47.5
			c6.5-10.1,7.4-20.2-0.5-30c-1.3-1.6-1.2-2.6,1-3C341.3,248.8,342.6,248.6,343.9,248.3"/>
		<path class="st1" d="M256.2,25.8c0.6-0.9,1.1-1.4,2-1.5c6.6-0.5,12.5-3.1,18.5-5.6c18.4-7.7,37.1-9.3,55.7-1.1
			c16.7,7.3,24.3,21.6,27.2,38.7c3.7,21.5-1,42.1-8.3,62.1c-7.6,20.6-3.8,16.8-23.8,16.9c-53,0.2-105.9,0.1-158.9,0.1
			c-9.9,0-10,0-13.6-9.4c-7.4-19.2-13-38.8-12.2-59.7c0.3-7.7,1.7-15.2,4.5-22.4c7.9-20.7,23.9-30.2,45-31.3c19.8-1,38,3.4,52,19.1
			c3.6,4.1,8.6,6.2,14,7c3.8,0.6,6.8-0.4,7.6-4.4c0.8-3.9-1-6.4-5-7.2C259.4,26.6,257.8,26.2,256.2,25.8"/>
	</g>
</g>
</svg>
