<?xml version="1.0" encoding="utf-8"?>
<!-- Generator: Adobe Illustrator 19.1.1, SVG Export Plug-In . SVG Version: 6.00 Build 0)  -->
<svg version="1.1" id="Layer_1" xmlns="http://www.w3.org/2000/svg" xmlns:xlink="http://www.w3.org/1999/xlink" x="0px" y="0px"
	 width="960px" height="960px" viewBox="0 0 960 960" style="enable-background:new 0 0 960 960;" xml:space="preserve">
<style type="text/css">
	.st0{fill:#E0ECF7;}
	.st1{fill:#FCEAEA;}
	.st2{fill:#FFFFFF;}
	.st3{fill:#293A8A;}
	.st4{fill:none;}
</style>
<g>
	<path class="st0" d="M480,960C214.9,960,0,745.1,0,480S214.9,0,480,0s480,214.9,480,480"/>
	<path class="st0" d="M960,480c0,265.1-214.9,480-480,480"/>
	<path class="st1" d="M749.26,145.83c11.22,21.92,26.75,37.22,48.77,48.95c-20.74,12.36-37.9,26.71-48.8,50.53
		c-11.91-22.28-27.58-38.57-49.84-50.17C721.54,183.48,736.99,167.03,749.26,145.83"/>
	<path class="st2" d="M198.86,286.26c17.19,13.36,33.07,35.43,38.81,54.64c2.83,9.47-6.08,19.71,8.68,19.66
		c14.74-0.05,2.95-1.14,4.6-10.72c7.11-41.33,34.5-67.75,75.06-74.3c2.57-0.41,5.61-3.63,8.17-4.09c8.27-1.47,0.49,6.74,0-3.58
		c-0.49-10.3-6.18-4.75-14.3-6.38c-17.42-3.5-37.74-21.39-55.15-34.21c53.42-10.57,133.38,13.89,181.53,22.21
		c-10.6,15.18-22.02,33.61-26.3,50.3c-2.29,8.96-15.36,4.39-5.87,7.4c9.86,3.14,5.65,6.26,8.17-2.3c10-33.94,33.8-57.31,68.17-65.36
		c15.75-3.69,35.24-6.28,50.89-10.48c46.89-12.59,88.67-2.49,122.4,33.07c33.71,35.54,47,80.52,32.24,127.54
		c-14.77,47.05-35.08,91.63-50.74,138.39c-7.85,23.46-1.33,45.6,6.06,69.19c30.79,98.29,9.85,192.27-40.73,280.41
		c-3.97,6.92-8.47,11.99-17.03,11.66c-9.36-0.37-13.38-6.73-16.81-14.38c-23.18-51.68-53.31-102.74-76.07-154.62
		c-12.46-28.41-25.79-46.29-56.97-46.58c-31.88-0.29-52.21,17.19-64.93,46.25c-22.3,50.93-39.64,100.44-62.44,151.14
		c-3.74,8.31-10.56,11.76-21.62,12.08c-11.06,0.33-17.15-1.97-21.68-9.92c-50.55-88.63-69.44-183.55-38.4-281.4
		c7-22.06,8.78-39.77,1.53-61.53c-15.75-47.28-31.03-94.83-46.47-142.21C179.57,357.11,185.26,311.28,198.86,286.26"/>
	<path class="st1" d="M245.93,203.78c13.39,30.51,31.73,50.72,62.72,63.34c-29.15,13.23-49.93,31.7-62.74,64.46
		c-12.43-31.39-33.2-50.38-63.69-63.71C212.69,254.86,232.86,235.65,245.93,203.78"/>
	<path class="st3" d="M709.58,324c-6.74-33.3-23.5-61.56-48.47-81.71c-24.49-19.77-54.85-30.22-87.78-30.22
		c-14.98,0-30.22,2.22-45.31,6.59c-13.65,3.96-25.06,7.43-34.22,10.23c-25.12,7.66-37.73,11.51-50.88,11.51
		c-13.13,0-25.65-3.83-50.58-11.45c-9.12-2.79-20.47-6.26-34.06-10.2c-16.84-4.89-31.95-7.26-46.18-7.26
		c-10.17,0-20.12,1.26-29.57,3.73c-2.66,0.7-4.96,1.03-7.05,1.03c-11.54,0-14.08-10.46-15.03-14.39c-1.08-4.47-2.44-9.03-3.76-13.44
		c-1.42-4.77-2.89-9.7-4.08-14.7c-1.72-7.22-4.13-7.81-6.89-7.81c-0.09,0-0.19,0-0.28,0c-2.44,0.06-4.96,0.66-6.48,7.13
		c-1.67,7.1-3.57,14.22-5.41,21.11c-0.52,1.95-1.04,3.9-1.56,5.85c-7.47,28.28-25.56,46.38-53.78,53.81
		c-2.28,0.6-4.56,1.21-6.84,1.82c-6.56,1.75-13.35,3.57-20.12,5.15c-6.51,1.52-7.12,4.02-7.19,6.45c-0.08,2.89,0.43,5.62,7.62,7.2
		c3.39,0.74,6.7,1.7,9.89,2.62c3.72,1.07,7.23,2.09,10.77,2.77c4.4,0.84,9.21,2.3,11.6,6.71c2.45,4.53,0.89,9.68-0.75,13.67
		c-12.77,31.09-13.1,63.12-1.01,97.93c8.23,23.7,16.36,47.87,24.22,71.25c6.27,18.65,12.76,37.94,19.25,56.86
		c7.17,20.89,7.97,39.41,2.44,56.62c-15.45,48.11-20.75,96.05-15.74,142.48c4.94,45.86,20.1,91.7,45.03,136.25
		c5.6,10,12.2,20.17,22.45,27.52c0.99,0.71,2.2,1.06,3.42,1.06h23.25c1.37,0,2.7-0.48,3.78-1.33c11.2-8.86,18.28-21.27,25.24-36.94
		c10.5-23.64,21.45-47.54,32.04-70.65c9.75-21.27,19.82-43.26,29.51-64.97c10.07-22.56,25.06-33.53,45.84-33.54
		c20.79,0,35.79,10.97,45.86,33.52c9.65,21.61,19.68,43.49,29.38,64.66c10.64,23.21,21.64,47.21,32.19,70.96
		c7.18,16.16,14.07,28.2,25.24,36.97c1.07,0.84,2.39,1.32,3.76,1.32h22.24c1.4,0,2.77-0.49,3.84-1.4c1.73-1.46,3.49-2.81,5.22-4.12
		c4.38-3.33,8.51-6.48,11.13-10.94c26.75-45.56,43.64-91.91,50.2-137.76c6.85-47.88,2.68-96.89-12.4-145.69
		c-6.91-22.35-6.54-43.78,1.12-65.49c9.83-27.87,19.4-56.38,28.66-83.95c4.85-14.44,9.86-29.38,14.85-44.05
		C712.57,372.19,714.38,347.71,709.58,324 M193.54,273.32c-4.82-2.11-4.79-8.95,0.05-11.02c23-9.82,37.4-24.3,46.68-46.94v0
		c2.01-4.9,8.92-4.98,11.04-0.14l0,0c10.4,23.7,24.13,37.59,45.88,46.45c4.88,1.99,5.01,8.84,0.22,11.02h0
		c-23.49,10.66-37.26,24.78-46.02,47.2v0c-1.98,5.08-9.16,5.09-11.17,0.03l0,0C231.56,298.02,217.16,283.65,193.54,273.32
		L193.54,273.32z M692.65,389.86c-11.2,35.09-23.33,70.5-35.06,104.74c-3.52,10.27-7.04,20.55-10.54,30.83
		c-7.42,21.79-7.71,42.81-0.88,64.25c29.59,92.89,18.27,185.09-33.63,274.04c-3.87,6.63-9.76,14.23-21.11,14.23
		c-0.33,0-0.67-0.01-1.01-0.02c-14.04-0.54-19.23-11.92-21.72-17.38c-8.05-17.66-16.31-35.59-24.3-52.92
		c-14.56-31.61-29.61-64.3-44.04-96.64c-5.92-13.27-13.43-23.39-22.34-30.09c-9.57-7.21-20.83-10.77-34.42-10.9
		c-0.24,0-0.48,0-0.72,0c-26.35,0-45.14,13.43-57.43,41.05c-15.42,34.64-31.53,69.66-47.1,103.53
		c-6.52,14.19-13.27,28.86-19.87,43.3l-0.32,0.69c-3.64,7.99-8.63,18.93-22.9,19.35c-0.27,0.01-0.53,0.01-0.79,0.01
		c-12.95,0-18.14-9.15-22.32-16.5c-0.37-0.65-0.73-1.29-1.11-1.94c-50.72-87.45-60.96-179.78-30.42-274.42
		c6.03-18.68,5.42-38.21-1.87-59.71c-3.1-9.16-6.21-18.31-9.31-27.47c-12.16-35.84-24.73-72.91-36.84-109.46
		c-10.39-31.35-8.13-64.19,6.2-90.1c1.77-3.21,5.98-4.09,8.89-1.86c16.44,12.56,21.57,30.2,26.53,47.25
		c0.62,2.15,1.27,4.36,1.92,6.52c0.74,2.43,1.17,4.99,1.58,7.46c1.63,9.71,2.75,11.29,7.96,11.29h0.05
		c6.06-0.02,7.26-2.85,8.53-13.27c0.2-1.62,0.4-3.3,0.68-4.9c7.41-42.34,32.57-67.2,74.8-73.9c0.89-0.14,1.94-0.46,3.04-0.79
		c1.28-0.39,2.73-0.83,4.31-1.1c9.79-1.71,10.41-4.18,10.24-7.76c-0.2-4.15-1.69-5.11-10.61-6.85l-1-0.2
		c-20.81-4.11-37.1-11.03-52.82-22.42c-4.25-3.08-2.78-9.74,2.37-10.75c8.08-1.57,16.41-2.37,24.77-2.37
		c26.15,0,50.2,7.65,73.46,15.04c14.96,4.76,30.43,9.67,45.97,12.31c4.36,0.74,6.45,5.78,3.89,9.39v0
		c-10.96,15.44-18.52,27.93-22.31,42.47c-0.97,3.71-1.19,6.48-0.65,8.22c0.22,0.7,0.67,2.16,4.15,3.25
		c1.04,0.32,1.96,0.49,2.73,0.49c1.15,0,3.55,0,5.99-8.12c10.51-35.09,33.75-57.01,69.06-65.15c8.48-1.96,17.06-4.65,25.36-7.27
		c6.57-2.07,13.37-4.21,20.2-6.01c13.06-3.45,25.85-5.2,38-5.2c33.55,0,63.12,13.03,87.91,38.72
		C697.93,298.18,707.89,342.11,692.65,389.86"/>
	<path class="st3" d="M756.55,123.74c-1.37-9.98-5.31-9.98-7.42-9.98c-0.18,0-0.37,0.01-0.56,0.01c-2.26,0.11-6.04,0.28-7.29,9.51
		c-5.13,37.86-27.12,59.54-65.36,64.45c-0.34,0.04-0.96,0.25-1.56,0.44c-0.66,0.22-1.41,0.47-2.26,0.67c-5,1.2-5.77,3.74-5.86,6.08
		c-0.11,2.7,0.58,5.42,6.35,6.97c1,0.27,1.99,0.54,2.99,0.82c3.95,1.09,7.68,2.11,11.45,2.81c28.47,5.26,45.81,22.5,51.54,51.27
		c1.25,6.26,2.49,11.27,3.92,15.76c1.43,4.52,3.98,5.15,6.52,5.15c0.04,0,0.09,0,0.14,0c4.17-0.31,6.14-1.98,7.4-11.13
		c5.12-37.05,26.72-58.49,64.19-63.73c9.8-1.37,10.54-4.03,10.52-7.65c-0.02-3.58-0.8-6.22-10.68-7.58
		C783.18,182.44,761.64,160.96,756.55,123.74 M784.65,200.2c-10.84,6.45-22.89,15.19-30.13,31.01l-5.04,11.01l-5.71-10.68
		c-7.55-14.13-17.3-23.96-30.69-30.93l-10.16-5.29l10.14-5.34c12.89-6.79,22.69-16.49,30.83-30.54l5.52-9.52l5.02,9.8
		c6.86,13.39,16.1,22.66,29.97,30.05l9.4,5L784.65,200.2z"/>
	<polyline class="st4" points="0,960 0,0 960,0 960,960 	"/>
</g>
</svg>
