<?xml version="1.0" encoding="utf-8"?>
<!-- Generator: Adobe Illustrator 19.1.1, SVG Export Plug-In . SVG Version: 6.00 Build 0)  -->
<svg version="1.1" id="Layer_1" xmlns="http://www.w3.org/2000/svg" xmlns:xlink="http://www.w3.org/1999/xlink" x="0px" y="0px"
	 width="949.6px" height="800.2px" viewBox="0 0 949.6 800.2" style="enable-background:new 0 0 949.6 800.2;" xml:space="preserve"
	>
<style type="text/css">
	.st0{clip-path:url(#SVGID_2_);fill:#E0EDF8;}
	.st1{clip-path:url(#SVGID_2_);fill:#FCEAEA;}
	.st2{clip-path:url(#SVGID_2_);fill:#27378A;}
</style>
<g>
	<g>
		<defs>
			<rect id="SVGID_1_" x="0" y="0" width="949.6" height="800.2"/>
		</defs>
		<clipPath id="SVGID_2_">
			<use xlink:href="#SVGID_1_"  style="overflow:visible;"/>
		</clipPath>
		<path class="st0" d="M627.5,117.8h6.8c50.8,0,101.6,0.5,152.4-0.2c37-0.5,61.6,17.6,78.2,48.9c8.3,15.7,11.9,32.7,11.9,50.5
			c0,138.5,0,277,0,415.5c0,1.5-0.2,3.1-0.3,4.9c-26.3,0-79,1.1-105.8,1.1c0-2.8,4.5-6.4,4.6-9.2c0.3-20.9,0.8-39.5-5.4-59.7
			c-19.8-65.3-59.4-99.5-127.7-99.6c-30,0-58.9-3.3-88.9-3.6c-3,0-6.7-10.4-9-12.3c-20.4-16-29.2-37.7-30-63.2
			c-0.1-3.5-4.1-12.5-1.8-13.4c48.1-18.4,79.6-43.1,97.5-91.4c6.9-18.5,8.8-38.1,8.7-57.9c-0.2-35.8,0-70.1,0-105.9
			C618.9,121.5,627.4,119.4,627.5,117.8"/>
		<path class="st0" d="M321.7,119.3h-6.8c-50.8,0-101.6,0.5-152.4-0.2c-37-0.5-61.6,17.6-78.2,48.9c-8.3,15.7-11.9,32.7-11.9,50.5
			c0,138.5,0,277,0,415.5c0,1.5,0.2,3.1,0.3,4.9c26.3,0,79,1.1,105.8,1.1c0-2.8-4.6-6.4-4.6-9.2c-0.3-20.9-0.8-39.5,5.4-59.7
			c19.8-65.3,59-101.1,127.3-101.1c30,0,57.8-3.3,87.8-3.6c3,0,8.1-8.9,10.5-10.7c20.4-16,29.2-37.7,30-63.2
			c0.1-3.5,4.1-12.5,1.8-13.4c-48.1-18.4-78-45.7-95.9-94c-6.9-18.5-10.4-35.5-10.3-55.3c0.2-35.8,0-70.1,0-105.9
			C330.3,123.1,321.8,120.9,321.7,119.3"/>
		<path class="st0" d="M7.1,639.5h936.6c-2.3,13.1-3.7,25.9-6.8,37.9c-16.7,64.6-66.2,108-122.9,108c-189.9,0.1-379.8,0-569.7,0
			c-36.8,0-73.5,0.1-110.3,0c-67-0.3-123.3-64.4-127.1-144.6C6.9,640.7,7,640.5,7.1,639.5"/>
		<path class="st1" d="M474.1,372.9c-74.5-1-134.5-61.6-133.4-134.7c1.1-74.5,61.9-134.2,135.6-133.1c73.9,1.1,133.7,62,132.6,135
			C607.8,314.1,547,374,474.1,372.9"/>
		<path class="st1" d="M465.7,632.4H175.4c0-14.3-1.4-28.6,0.2-42.5c6.5-55,45.6-97.4,99.7-108.9c7.5-1.6,15.4-2.5,23.1-2.6
			c31.8-0.3,63.7-0.1,95.5-0.2c2.9,0,5.2,0,6.7,3.5c21.1,49,42.4,97.9,63.7,146.9C464.8,629.6,465.1,630.7,465.7,632.4"/>
		<path class="st1" d="M774.1,632.2h-289c1.3-3.2,2.5-6.1,3.7-9c20.2-46.6,40.5-93.1,60.5-139.7c1.7-4,3.8-5.1,8-5.1
			c30.2,0.2,60.5,0.1,90.7,0.1c69.6,0,125.4,55.2,126.1,124.8C774.2,612.8,774.1,622.2,774.1,632.2"/>
		<path class="st0" d="M614.8,178.9c-38.5-44.8-81.1-83.7-139.4-83.7c-58.4,0-102.8,62.6-141.4,107.7c-0.2-2.8-4.7-55.7-4.6-57.3
			c0.2-18.3-0.7-36.7,1-54.8c5.9-61.2,75.3-96.7,128.6-66.1c30.9,17.7,63.2,22.8,99.2,23c20.9,0.1,41.1-17.5,61.3-25
			C619.4,58.8,614.8,142.2,614.8,178.9"/>
		<path class="st0" d="M410.3,472c26.6-28.4,39-61.8,41.5-99.2H496c2.9,37.4,14.9,71.6,42.2,99.9C495.2,495,453.2,494.5,410.3,472"
			/>
		<path class="st0" d="M416.2,484.8c39.9,11.9,78.2,11.9,118.3-0.5c-19.9,46-39.2,90.6-59.2,136.7
			C455.4,575.2,436.2,530.8,416.2,484.8"/>
		<path class="st2" d="M249,253.2c3.3,0.7,6.7,1.1,9.9,2c22.6,6.3,37.9,27.2,37,50.6c-0.5,11.7-2.5,23.2-4.9,34.7
			c-3.8,18.1-8.6,35.9-15.8,53c-4,9.5-8.6,18.7-15.8,26.3c-3.2,3.3-6.8,6-11.4,6.8c-5.8,1.1-10.6-1.1-14.9-4.8
			c-4.9-4.1-8.3-9.4-11.3-14.9c-2.4-4.4-4.4-9-6.6-13.6c-1.8-3.7-5.3-5.2-8.5-3.3c-1.4,0.8-2.4,2.4-3.2,3.9
			c-3.4,6.3-6.5,12.7-10.1,19c-2.2,3.9-5.2,7.1-8.8,9.8c-7.5,5.7-15.6,5.4-22.7-0.7c-5.2-4.4-8.9-9.9-12.1-15.8
			c-6.7-12.2-11.3-25.2-15.2-38.5c-5-16.9-8.6-34-10.9-51.5c-1-7.9-1.6-15.9,0.4-23.8c5.1-19.5,17.5-31.9,36.7-37.6
			c2.9-0.9,5.9-1.2,8.9-1.8h8.1c0.3,0.1,0.6,0.3,0.9,0.3c4.9,0.5,9.7,1.7,14.2,3.6c2.4,1,4.8,2.3,7.3,3.2c7.5,2.7,14.7,1.9,21.9-1.4
			c3.9-1.8,8.1-3.1,12.2-4.4c2.1-0.7,4.4-0.8,6.6-1.2H249z"/>
		<path class="st0" d="M275.2,305.8c-1.3,8.5-2.3,17-4,25.4c-1.9,9.4-4.4,18.7-6.6,28c-0.6,2.4-2.6,3.9-4.8,3.8
			c-2.1-0.2-3.8-1.7-4.1-3.9c-0.1-0.9,0-1.8,0.3-2.7c3.5-12.7,6.5-25.5,8.4-38.5c0.6-4.3,0.8-8.7,1.4-13c0.2-1.4,0.7-3,1.5-4.1
			c1.1-1.4,2.9-1.7,4.6-1c1.7,0.7,2.8,2.1,2.9,4c0,0.6,0,1.2,0,1.9C274.9,305.8,275.1,305.8,275.2,305.8"/>
		<path class="st0" d="M143.8,302.9c0.4-15.6,13.8-28.6,29.4-28.6c2.6,0,4.8,2,4.8,4.5c0,2.5-2,4.4-4.7,4.5
			c-10.5,0.6-18.3,7.2-20.1,17.1c-0.2,1.2-0.2,2.5-0.4,3.7c-0.3,2.8-2.3,4.5-4.9,4.3c-2.4-0.2-4.1-2.2-4.1-4.9
			C143.8,303.4,143.8,303.1,143.8,302.9"/>
		<path class="st2" d="M186.7,611.4"/>
		<path class="st2" d="M0,641.8c-0.1,7.5,0.1,14.3,0.5,20.7C2.9,699.4,19.4,734,47,759.9c27.6,25.9,63.1,40.2,100,40.2h1
			c103.9,0,211.4,0.1,317.1,0.1c127.9,0,234.9-0.1,336.8-0.2c41.6-0.1,77.6-15.7,106.8-46.5c14.2-15,24.9-31.9,31.6-50.3
			c6.6-17.9,9.7-37.8,9.2-59.2c-0.2-8.6-2.2-10.7-10.5-10.7c-4.8,0-9.5,0-14.3,0l-33.2,0l0-110.5c0-97,0-197.2,0-295.8
			c0-16.2-2.8-32-8.3-46.9c-7.7-20.7-20.4-38.5-36.8-51.4c-18.8-14.7-41.8-22.2-66.4-21.5c-16.3,0.5-33.7,0.7-54.7,0.7
			c-14.7,0-29.4-0.1-43.7-0.2l-0.4,0c-14.1-0.1-28.7-0.2-43-0.2H621V8.9c-3.2,1.9-6.3,3.6-9.3,5.5c-21.9,13.1-43.5,19.4-66.1,19.4
			c-6.5,0-13.1-0.6-19.6-1.6c-21.2-3.5-39.6-12.6-53.3-20.2c-14.4-8-30-12-46.3-12c-21.8,0-43.4,7.5-60.7,21.1
			c-18.1,14.2-30.3,33.7-35,56.4c-0.9,4.4-1.5,9-2,13.9c-0.3,2.4-0.6,4.9-0.9,7.4l-1.2,8.7l-88.5,0c-22.4,0-49,0-76.1,0.1
			c-25.3,0.1-47.6,9.3-66.4,27.6c-24.8,24.1-37.5,55.2-37.5,92.3c-0.1,94.1-0.1,189.5-0.1,281.8c0,35.9,0,71.8,0,107.7v16.5h-10
			c-4,0-7.8,0-11.7,0l-0.7,0c-4,0-7.8,0-11.7,0c-5.9,0-10.7,0-15.1,0h0C2.6,633.4,0.1,635.9,0,641.8 M612.8,287.7
			c5.7-15.3,8.4-32,8.3-50.9c-0.1-24.3-0.1-48.9-0.1-72.7v-0.3c0-9.5,0-19,0-28.4c0-1,0.1-1.8,0.1-2.6c0-0.4,0.1-0.8,0.1-1.2
			l0.7-9.3h15.8c14.4,0,29.1,0,43.2,0.1l0.6,0c14,0,28.4,0.1,42.5,0.1c22.2,0,40.5-0.1,57.5-0.3c0.5,0,1,0,1.5,0
			c36.4,0,63,16.9,81.4,51.5c8.2,15.6,12.4,33.2,12.4,52.3c0,135.9,0,273.9,0,392.5c0,1.3-0.1,2.5-0.2,3.7c0,0.5-0.1,1-0.1,1.5
			l-0.5,9.5h-94.2l0-12.4c0-1.8,0-3.7,0-5.5c0.3-21.1-0.5-38.5-5.5-55.3c-8.5-28.2-25.5-52.4-49-69.9
			c-23.5-17.5-51.5-26.8-80.9-26.8l-5.9,0l-29.9,0c-14.7,0-32,0-49.2-0.2c-5.1,0-10.6-2-14.6-5.1c-20.4-16-31.2-38.6-32.2-67.2
			c-0.2-6.8,3.2-11.5,10.1-14.1l0.4-0.2c21.3-8.1,39.4-19.7,54-34.3C593.5,327.3,604.9,309.1,612.8,287.7 M182.8,611.5l4-0.2
			L182.8,611.5c-0.3-8.8-0.5-17.9,0.5-27c6.1-52.3,43.6-93.3,95.4-104.4c7.5-1.6,15-2.4,22.3-2.5c14.7-0.1,29.4-0.2,40.5-0.2
			c5.7,0,11.5,0,17.2,0l1.4,0c8.3,0,16.6,0,24.9,0h0.3c2.7,0,10.8,0,14.7,9.1c14.3,33.3,29,67.1,43.2,99.7l12.8,29.4
			c0.4,0.9,0.7,1.7,1,2.6c0.1,0.4,0.3,0.8,0.5,1.3l4.8,13.4H183v-10C183,619.3,182.9,615.4,182.8,611.5 M418.4,491.9l20.6,6.1
			c12.4,3.7,24.1,5.4,36,5.4c12.2,0,24.2-1.9,36.7-5.7l20.7-6.4l-57.1,131.8L418.4,491.9z M411.9,469.3l9-9.6
			c16.6-17.7,25.5-39,27.2-65.3l0.6-9.3h50.5l0.7,9.2C502,421.5,511,443,527.5,460l9.4,9.7l-11.9,6.2c-16.6,8.6-33.5,13-50.1,13
			c-16.9,0-34.2-4.5-51.2-13.4L411.9,469.3z M492.9,619.3c0.4-0.9,0.7-1.8,1.1-2.6c0.8-1.9,1.5-3.7,2.3-5.5c4.3-10,8.6-19.9,13-29.9
			l0.1-0.3c13.2-30.5,26.9-62,40.3-93.1c3-7,8.4-10.5,16.1-10.5h0.2c15,0.1,29.9,0.1,41.1,0.1c5.5,0,10.9,0,16.4,0l3.6,0
			c5.5,0,10.9,0,16.4,0l2.4,0c67.3,0,120.6,52.7,121.2,120c0.1,5.7,0,11.3,0,17.2c0,2.7,0,5.5,0,8.3v10H487.3L492.9,619.3z
			 M606.6,240.2c-1,72-59.7,130.5-130.8,130.5c-0.6,0-1.2,0-1.8,0c-35.4-0.5-68.5-14.6-93.3-39.6c-24.9-25.1-38.3-58.1-37.8-92.9
			c1.1-72.1,60-130.8,131.3-130.8c0.7,0,1.4,0,2,0C549.1,108.5,607.6,168.1,606.6,240.2 M343.8,88.5c4-41.4,40.3-73.8,82.7-73.8h0
			c14,0,27.8,3.7,40,10.7c27.2,15.6,52.8,23.3,78.3,23.4l0.8,0c15.7,0,31.1-2.9,47.1-8.8l13.5-5v132.3l-17.6-20.5
			c-15.3-17.8-32.5-31.4-51.2-40.3c-19-9.1-40-13.7-62.6-13.7c-22.7,0-43.7,4.6-62.7,13.7c-18.7,9-35.9,22.6-51.3,40.5l-16,18.6
			l-1.6-24.5c-0.1-0.8-0.1-1.4-0.1-2c-0.1-1.4-0.2-2.6-0.2-4c0.1-4.6,0-9.4,0-14C342.8,110.6,342.7,99.5,343.8,88.5 M72.7,227
			c0-36.8,13.6-66.3,40.2-87.6c14.1-11.3,30-17,47.3-17.1c22.1,0,45.7-0.1,76.5-0.1c13.6,0,27.2,0,40.8,0l37.2,0c1.1,0,2,0.1,3,0.2
			c0.4,0,0.9,0.1,1.4,0.1l9.3,0.7v14.6c0,10.7,0,21.5,0,32.2c0,23.5-0.1,47.8,0.1,71.7c0.4,57.8,36.8,111,90.6,132.5
			c1.7,0.7,3.4,1.4,5.2,2.1l9.3,3.7l-0.1,6.9c-0.3,29.3-9.8,51.7-29,68.4c-6.1,5.4-12.8,7.9-21.1,7.9l-0.3,0
			c-4.6,0-9.2-0.1-13.7-0.1l-0.8,0c-11.6-0.1-23.5-0.2-35.3-0.2c-14.4,0-26.4,0.2-37.8,0.6c-53.4,1.8-103,38.9-120.5,90.4
			c-5.7,16.7-8.1,35.3-7.5,58.6c0.1,2.4,0,4.7,0,7.2l0,0.1c0,1.1,0,2.2,0,3.4v10h-95v-15.6c0-35,0-69.9,0-104.9
			C72.6,419,72.6,322.2,72.7,227 M15.5,656.6c0-0.1,0.1-0.2,0.1-0.4l1.7-7.9h920.4l-2.6,12.1c-0.7,3.3-1.3,6.6-1.9,9.7
			c-1.3,7.1-2.7,14.4-4.9,21.6c-17.4,56-68.6,93.7-127.6,93.7c-125.8,0-251.5,0-377.2,0l-170.5,0c-10.5,0-20.9,0-31.4,0l-1.5,0
			c-11,0-21.9,0-32.9,0c-15.4,0-28.1,0-40-0.1C77.1,785.1,19.1,730,15.2,659.9C15.1,658.3,15.4,657.1,15.5,656.6"/>
	</g>
</g>
</svg>
