<?xml version="1.0" encoding="utf-8"?>
<!-- Generator: Adobe Illustrator 19.1.1, SVG Export Plug-In . SVG Version: 6.00 Build 0)  -->
<svg version="1.1" id="Layer_1" xmlns="http://www.w3.org/2000/svg" xmlns:xlink="http://www.w3.org/1999/xlink" x="0px" y="0px"
	 width="816.6px" height="980.5px" viewBox="0 0 816.6 980.5" style="enable-background:new 0 0 816.6 980.5;" xml:space="preserve"
	>
<style type="text/css">
	.st0{clip-path:url(#SVGID_2_);fill:#27378A;}
	.st1{clip-path:url(#SVGID_2_);fill:#FFFFFF;}
	.st2{clip-path:url(#SVGID_2_);fill:#FCEAEA;}
	.st3{clip-path:url(#SVGID_2_);fill:#F4562D;}
	.st4{clip-path:url(#SVGID_2_);fill:#E0EDF8;}
	.st5{clip-path:url(#SVGID_2_);fill:#F6552A;}
	.st6{clip-path:url(#SVGID_2_);fill:#FEFEFE;}
	.st7{clip-path:url(#SVGID_2_);fill:#FBB786;}
	.st8{clip-path:url(#SVGID_2_);fill:#E87E94;}
</style>
<g>
	<g>
		<defs>
			<rect id="SVGID_1_" width="816.6" height="980.5"/>
		</defs>
		<clipPath id="SVGID_2_">
			<use xlink:href="#SVGID_1_"  style="overflow:visible;"/>
		</clipPath>
		<path class="st0" d="M281.77,693.11c7.05,7.55,13.67,14.87,20.53,21.95c19.09,19.68,40.8,27.23,67.24,15.02
			c7.83-3.61,16.47-5.17,25.07-6.69c15.88-2.8,29.41,1.31,41.25,11.95c3.38,3.04,6.93,5.9,10.41,8.83
			c29.06,24.43,50.8,26.83,83.59,7.4c55.79-33.07,93.86-81.06,117.33-141.26c19.7-50.55,28.21-103.42,34.19-156.92
			c2.11-18.88,2.51-37.99,7.19-56.53c3.79-15.04,10.82-28.56,20.51-40.62c14.4-17.92,32.29-29.03,56.08-23.82
			c25.34,5.55,40.51,22.53,47.79,47.03c5.35,18,0.58,35.27-3.9,52.47c-33.09,127.06-72.97,252.11-111.67,377.52
			c-8.4,27.2-16.46,54.53-25.68,81.46c-18.35,53.58-65.54,88.53-121.96,88.91c-98.08,0.67-196.18,1.18-294.25-0.17
			c-57.32-0.79-97.5-30.63-120.11-82.85c-31.73-73.27-53.89-149.82-74.83-226.69c-22.48-82.49-42.19-165.65-58.8-249.54
			c-7.81-39.45,11.03-75.4,46.01-86.74c22.5-7.3,41.48-1.99,56.96,15.91c15.61,18.06,25.94,39.21,35.16,60.92
			c6.93,16.32,13.36,32.87,19.68,49.44c6.14,16.11,11.85,32.39,20.12,48.55c0-4.06,0.18-8.13-0.03-12.18
			c-2.26-44.26,3.1-87.53,17.42-129.5c13.7-40.14,8.08-79.94-1.02-119.83c-9.02-39.58-16.47-79.12-11.69-120.29
			C191.92,61.79,234.1,12.31,295.52,2.35c44.92-7.29,87.83,1.96,121.32,33.57c29.49,27.84,63.26,28.78,99.04,25.4
			c16.79-1.59,33.29-6.12,49.99-8.9c34.45-5.75,67.64-1.28,99,14.12c52.65,25.85,80.01,82.9,70.18,143.3
			c-6.31,38.78-22.86,73.01-43.65,105.68c-11.31,17.77-22.46,35.65-33.34,53.68c-18.14,30.05-20.62,63.77-23.79,97.71
			c-7.98,85.29-42.47,158.07-106.55,215.86c-16.97,15.31-35.95,27.77-57.3,36.31c-16.23,6.49-29.89,4.09-39.62-6.89
			c-9.83-11.1-11.1-25.09-3.24-40.35c28.11-54.56,41.33-112.15,35.2-173.61c-1.81-18.18-6.04-35.83-14.39-52.24
			c-17.81-35.02-46.56-40.38-75.16-13.62c-23.6,22.08-37.04,50.4-46.92,80.51c-14.54,44.28-18.73,89.62-12.89,135.9
			C316.44,672.98,308.09,684.79,281.77,693.11 M164.73,917.38c0.84,0.98,1.68,1.96,2.53,2.94c1.58,4.58,5.36,7.18,8.95,9.95
			c1.06,0.88,2.12,1.76,3.18,2.63l-0.16-0.08c22.34,23.07,50.27,32.02,81.61,32.04c94.29,0.06,188.59,0.19,282.88-0.04
			c57.23-0.14,99.02-31.25,116.11-86.38c30.3-97.76,60.69-195.49,90.19-293.49c17.84-59.26,36.64-118.32,48.89-179.1
			c3.65-18.12-1.6-34.23-15.69-46.9c-2.2-2.85-4.83-5.06-8.46-5.84c-16.86-10.14-31.73-9.02-46.09,4.85
			c-15.63,15.09-25.13,33.67-27.57,55.47c-5.93,52.97-10.57,106.13-24.75,157.83c-19.92,72.64-55.25,135.08-117.71,179.87
			c-26.45,18.97-54.04,33.86-88.33,27.04l0.15,0.17c-0.91-2.47-3.08-2.2-5.07-2.31c-12.04-6.01-22.24-14.69-32.99-22.59
			c-14.2-18.57-32.6-17.78-52.02-10.94c-16.74,5.9-33.5,11.08-51.6,8.35l0.1,0.17c-1.04-2.28-3.12-2.12-5.11-2.16
			c-12.95-6.6-24.96-14.62-34.71-25.44c-43.28-48.06-82.35-99.14-106.83-159.63c-19.01-46.98-35.87-94.82-54.57-141.93
			c-8.62-21.72-17.71-43.54-34.4-60.87c-12.88-15.41-24.43-18.67-42.57-12.02c-26.27,9.63-40.38,37.49-33.92,67.97
			c8.65,40.78,16.96,81.65,26.64,122.19c26.56,111.19,55.14,221.83,96.58,328.64c6.03,15.55,10.59,32.04,22.2,44.92l-0.09-0.14
			c-0.16,2.28,0.95,3.85,2.77,5.04L164.73,917.38z M244.12,641.75c0.89,1.28,1.78,2.56,2.67,3.84
			c6.67,10.11,14.53,19.13,24.39,26.28c5.91,6.1,12.5,5.53,19.09,1.53c8.26-5.01,9.41-12.86,8.19-21.67
			c-4.85-35.14-3.6-70.18,3.18-104.89c8-40.97,21.71-79.73,48.54-112.6c18.09-22.16,39.87-37.26,70.45-33.46
			c22.33,7.73,35.74,24.27,44.68,45.23c10.39,24.35,14.27,50.04,14.43,76.2c0.32,54.24-12.29,105.54-37.17,153.77
			c-3.85,7.46-8.07,14.74-1.76,22.91c5.57,10.35,14.19,9.92,23.35,6.24c20.93-8.4,39.59-20.61,56.08-35.83
			c59.8-55.19,91.74-124.24,98.99-204.66c3.02-33.51,5.99-66.54,22.29-96.91c10.57-19.69,22.79-38.31,34.88-57.03
			c20.75-32.15,38.67-65.58,43.52-104.21c4.96-39.5-2.2-75.69-32.1-104.7l-0.26-0.33c-1.12-1.04-2.24-2.08-3.37-3.13
			c-1.28-0.98-2.56-1.96-3.83-2.94c-0.76-1.71-2.03-2.65-3.93-2.67l0.21,0.07c-31.39-25.02-67.62-31.26-106.09-25.54
			c-30.99,4.61-61.37,13.77-93.25,10.48c-2.34-0.24-5.65-2.56-7.42,1.81c8.14,7.05,17.19,12.62,26.92,17.14
			c1.74,1.08,3.44,2.24,5.23,3.23c5.25,2.87,13.36,4.84,9.67,12.86c-4.15,9.02-10.99,3.42-16.7,0.66
			c-23.19-11.21-42.98-27.17-62.09-44.15c-9.15-8.13-17.41-17.38-28.19-23.58c-0.7-1.81-2.03-2.69-3.96-2.66l0.26,0.05
			C366.34,15.88,327.04,9.56,285.39,20.3c-48.15,12.42-80.64,56.62-86.03,111.29c-3.76,38.18,2.88,74.99,11.65,111.63
			c11.05,46.19,13.86,91.63-1.78,137.89c-18.54,54.84-19.69,111.3-6.58,167.61c7.38,31.73,18.17,62.39,38.73,88.56l-0.12-0.27
			c-0.09,2.31,0.93,3.94,3,4.94L244.12,641.75"/>
		<path class="st0" d="M816.6,137.4c-0.09,13.81-5.27,25.57-13.74,36.3c-15.76,19.95-15.49,36.84,0.4,56.99
			c16.73,21.21,17.84,48.69,2.68,68.73c-3.48,4.6-7.26,10.42-13.96,5.52c-6.08-4.46-2.1-9.27,0.94-13.9
			c11.91-18.11,11.2-33.97-2.06-51.25c-20.33-26.49-20.19-49.55,0.46-76.46c12.66-16.5,13.35-32.85,1.95-50.31
			c-3.21-4.91-7.89-10.21-0.71-14.65c6.66-4.11,10.45,1.82,13.89,6.53C813.09,113.98,816.75,125.8,816.6,137.4"/>
		<path class="st0" d="M113.45,87.75c3.78-0.17,5.93,0.68,7.54,2.92c2.28,3.17,1.85,6.22-0.37,9.1
			c-16.46,21.31-12.15,40.45,3.94,60.35c15.81,19.57,14.82,46.3-1.47,66.47c-15.21,18.82-18.21,37.3-3.09,57.29
			c3.15,4.16,3.89,8.63-0.92,11.81c-4.63,3.07-8.38,0.56-11.8-3.16c-15.76-17.13-16.72-47.17-2-67.84
			c20.22-28.4,20.21-36.42-0.07-64.88c-14.17-19.89-13.92-47.47,0.68-65.86C108.14,91.09,110.12,87.6,113.45,87.75"/>
		<path class="st1" d="M439.62,699.8c-6.64-8.6-2.68-16.23,1.15-23.61l0.46-0.9c24.87-48.2,37.33-99.7,37.01-153.07
			c-0.17-28.72-4.85-53.46-14.31-75.62c-9.99-23.41-23.9-37.52-43.8-44.4l-0.54-0.18l-0.28-0.5c-8.82-15.69-23.1-24.33-40.2-24.33
			c-14.35,0-29.19,6.25-40.71,17.15c-23.58,22.32-40.63,51.85-52.12,90.29c-18.75,62.72-19.63,114.28-2.76,162.27
			c4.73,13.47-3.08,20.33-11.49,26.21l-0.88,0.61l-0.86-0.63c-9.24-6.7-17.35-15.43-24.76-26.67l-2.54-3.66l-0.01,0.01l-0.12-0.18
			l-0.12-0.17l0-0.47c-0.01-1.99-0.15-2.78-0.79-3.16h-0.58c-0.47,0-0.8-0.18-1.03-0.42l-0.83-0.16l0.26-0.81l-1.04-2.28l1.56,0.24
			c0.25-2.23-0.68-4.29-1.73-6.61c-0.22-0.49-0.45-0.99-0.66-1.49c-28.26-65.92-33.45-136.37-15.43-209.39
			c1.48-6.01,3.12-12.08,4.7-17.95c6.28-23.27,12.77-47.33,10.9-72.56c-1.7-22.97-6.72-45.65-11.57-67.59
			c-0.65-2.93-1.29-5.85-1.93-8.78c-7.57-34.62-13.98-75.74-4.14-118.25c13.94-60.23,62.42-100.7,120.63-100.7
			c6.3,0,12.74,0.48,19.13,1.43c5.69,0.84,11.26,2.34,16.65,3.78c8.13,2.18,15.8,4.24,24.01,4.33l0.22,0l0.01-0.02l0.11,0.02l0.12,0
			l0.05,0.03l14.55,3.08l-10.02-0.08c7.89,4.63,14.5,10.88,20.9,16.93c2.32,2.19,4.71,4.46,7.12,6.6
			c18.04,16.03,38.01,32.44,61.75,43.92c0.85,0.41,1.71,0.88,2.59,1.35c2.52,1.36,5.12,2.76,7.3,2.76c1.26,0,3.13-0.42,4.8-4.05
			c2.35-5.11-0.83-6.95-6.22-9.51c-0.94-0.45-1.91-0.91-2.81-1.4c-1.28-0.7-2.51-1.49-3.7-2.25c-0.53-0.34-1.06-0.68-1.59-1.01
			l-2.31-1.44l2.45-1.19c2.82-1.37,5.7-1.53,7.63-1.53c1.29,0,2.57,0.08,3.82,0.16c0.49,0.03,0.97,0.06,1.46,0.09
			c3.18,0.17,6.44,0.25,9.67,0.25c16.94,0,34.8-2.27,54.6-6.94c16.72-3.94,31.45-5.86,45.04-5.86c8.61,0,17.06,0.78,25.12,2.31
			c4.24,0.81,8.38,2.15,12.38,3.46c6.42,2.09,12.48,4.06,19.04,4.06c0.52,0,1.04-0.01,1.57-0.04l0.5-0.02l0.14,0.09l7.26,2.52
			l-3.3,0.18l0.13,0.09l4.47,3.42l0.01,0.73c0.03,1.86,0.38,1.86,0.61,1.86c0.16,0,0.43-0.03,0.85-0.15l0.98-0.28l0.62,0.8
			c0.38,0.49,0.67,0.87,0.54,1.54l-0.04,0.21l-0.1,0.19c-1.35,2.57-0.41,4.88,0.67,7.55c0.42,1.04,0.86,2.12,1.15,3.23l0.19,0.73
			c3.06,11.56,6.22,23.5,6.66,35.89c0.97,27.36-5.44,55.27-20.18,87.85c-9.26,20.47-21.62,39.49-33.58,57.89
			c-5.32,8.19-10.82,16.65-15.97,25.12c-18.46,30.38-28.03,58.07-30.12,87.15c-1.48,20.59-3.16,43.94-8.54,66.17
			c-14.41,59.62-41.17,116.15-81.83,172.82c-17.31,24.12-39.59,42.08-66.21,53.38l-1.07,0.45L439.62,699.8z"/>
		<path class="st0" d="M341.05,33.55c6.19,0,12.5,0.46,18.91,1.41c13.85,2.05,26.77,7.97,40.86,8.13c1.29,0.87,2.59,1.74,3.88,2.6
			c10.77,6.2,19.04,15.45,28.19,23.58c19.12,16.99,38.91,32.94,62.09,44.15c3.38,1.64,7.16,4.26,10.54,4.26
			c2.33,0,4.47-1.25,6.16-4.92c3.69-8.02-4.42-9.99-9.67-12.86c-1.79-0.98-3.49-2.14-5.22-3.22c2.26-1.1,4.61-1.38,6.97-1.38
			c1.73,0,3.48,0.15,5.2,0.24c3.26,0.17,6.51,0.25,9.75,0.25c18.55,0,36.77-2.69,54.95-6.98c14.78-3.48,29.65-5.82,44.7-5.82
			c8.22,0,16.5,0.7,24.84,2.28c10.7,2.04,20.59,7.54,31.7,7.54c0.54,0,1.09-0.01,1.64-0.04c1.27,0.86,2.54,1.73,3.82,2.59
			c1.28,0.98,2.55,1.96,3.83,2.93c0.03,1.83,0.37,3.33,2.11,3.33c0.36,0,0.78-0.07,1.26-0.2c0,0,0.26,0.33,0.26,0.34
			c-2.28,4.34,0.69,8.04,1.7,11.86c3.16,11.94,6.36,23.82,6.8,36.29c1.09,30.87-7.54,59.52-20.04,87.17
			c-13.33,29.46-32.76,55.37-49.46,82.86c-16.48,27.13-28.01,55.56-30.34,87.82c-1.59,22.04-3.26,44.24-8.5,65.93
			c-15.25,63.11-43.97,119.85-81.59,172.29c-16.9,23.55-38.7,41.47-65.58,52.87c-6.3-8.17-2.09-15.45,1.76-22.91
			c24.88-48.23,37.5-99.52,37.17-153.77c-0.15-26.16-4.04-51.85-14.43-76.2c-8.94-20.96-22.35-37.5-44.68-45.23
			c-9.78-17.39-25.33-25.09-41.51-25.09c-14.69,0-29.89,6.35-41.74,17.56c-26.64,25.21-42.27,56.65-52.53,90.95
			c-16.15,54.01-21.95,108.52-2.74,163.19c4.29,12.2-2.39,18.52-10.93,24.48c-9.86-7.15-17.72-16.16-24.39-26.28
			c-0.85-1.22-1.69-2.43-2.53-3.65c-0.01-2.19-0.04-4.37-2.8-4.89c1.21-3.85-0.75-7.04-2.18-10.39
			c-29.03-67.71-32.9-137.35-15.35-208.44c7.4-29.97,18-59.12,15.64-90.97c-1.93-26.09-8-51.26-13.54-76.58
			c-8.53-38.99-13.32-77.94-4.15-117.59C235.36,74.87,282.47,33.55,341.05,33.55 M400.75,43.04L400.75,43.04 M400.75,43.04
			c0,0,0.26,0.05,0.26,0.05c-0.06,0-0.12,0-0.18,0C400.8,43.07,400.77,43.06,400.75,43.04 M676.43,92.72L676.43,92.72 M676.43,92.72
			c0,0,0.21,0.07,0.21,0.07c-0.03,0-0.06,0-0.09,0.01C676.5,92.77,676.46,92.74,676.43,92.72 M241.25,637.02
			c0.07,0.01,0.14,0.02,0.2,0.03c-0.02,0.08-0.05,0.16-0.08,0.24C241.38,637.29,241.25,637.02,241.25,637.02 M244.12,641.75
			C244.12,641.75,244.12,641.75,244.12,641.75C244.12,641.75,244.12,641.75,244.12,641.75 M244.12,641.75
			c0.05,0.07,0.09,0.13,0.14,0.2v0.02C244.26,641.97,244.13,641.77,244.12,641.75 M341.05,30.55c-29.19,0-56.31,9.91-78.44,28.65
			c-21.73,18.41-36.83,43.73-43.65,73.21c-9.91,42.8-3.47,84.13,4.14,118.91c0.64,2.93,1.29,5.86,1.93,8.78
			c4.84,21.89,9.85,44.52,11.54,67.38c1.85,24.97-4.61,48.91-10.85,72.05c-1.59,5.88-3.22,11.95-4.71,17.98
			c-8.93,36.18-12.25,71.98-9.87,106.41c2.44,35.39,10.98,70.36,25.38,103.93c0.22,0.51,0.45,1.02,0.68,1.52
			c0.76,1.67,1.33,3,1.55,4.23l-2.53-0.39l1.96,4.29l-0.59,1.87l2.1,0.4c0.43,0.31,0.93,0.48,1.49,0.51
			c0.07,0.46,0.08,1.22,0.08,1.67l0,0.93l0.36,0.53l0.11,0.16l5.53,8.62v-0.64c6.71,9.34,13.99,16.81,22.17,22.74l1.73,1.25
			l1.75-1.22c8.49-5.93,17.13-13.47,12.04-27.93c-16.75-47.67-15.87-98.94,2.79-161.34c11.57-38.71,28.01-67.2,51.72-89.63
			c11.24-10.64,25.7-16.74,39.67-16.74c16.54,0,30.35,8.37,38.89,23.56l0.56,0.99l1.08,0.37c19.46,6.74,33.1,20.59,42.91,43.57
			c9.38,21.98,14.02,46.52,14.19,75.04c0.32,53.12-12.08,104.39-36.84,152.37l-0.46,0.89c-3.86,7.44-8.23,15.87-1.01,25.22
			l1.42,1.83l2.13-0.91c26.88-11.4,49.37-29.53,66.84-53.88c40.77-56.82,67.62-113.52,82.07-173.34c5.4-22.36,7.09-45.76,8.57-66.42
			c2.08-28.83,11.58-56.31,29.91-86.47c5.13-8.45,10.63-16.91,15.94-25.08c11.99-18.45,24.38-37.52,33.69-58.09
			c14.83-32.79,21.29-60.92,20.31-88.52c-0.45-12.55-3.63-24.59-6.7-36.22l-0.19-0.73c-0.32-1.21-0.77-2.33-1.21-3.41
			c-1.12-2.77-1.71-4.43-0.73-6.29l0.25-0.47l0.07-0.53c0.16-1.24-0.43-2.01-0.86-2.56l-1.24-1.6l-1.5,0.43c0-0.05,0-0.11,0-0.16
			l-0.02-1.45l-1.15-0.88l-0.77-0.59l6.81-0.35l-14.27-4.99l-0.39-0.26l-1,0.05c-0.49,0.02-0.99,0.04-1.49,0.04
			c-6.33,0-12.28-1.94-18.58-3.99c-4.05-1.32-8.23-2.68-12.56-3.5c-8.15-1.55-16.7-2.34-25.4-2.34c-13.71,0-28.55,1.93-45.38,5.9
			c-19.69,4.64-37.44,6.9-54.26,6.9c-3.21,0-6.43-0.08-9.59-0.25c-0.48-0.03-0.96-0.05-1.44-0.08c-1.27-0.08-2.58-0.16-3.91-0.16
			c-2.07,0-5.18,0.17-8.28,1.68l-4.9,2.37l4.62,2.87c0.52,0.33,1.04,0.66,1.57,0.99c1.21,0.78,2.47,1.58,3.8,2.31
			c0.93,0.51,1.92,0.98,2.88,1.44c6.19,2.95,7.06,4.15,5.51,7.53c-1.46,3.18-2.85,3.18-3.44,3.18c-1.8,0-4.23-1.31-6.58-2.58
			c-0.87-0.47-1.77-0.95-2.65-1.38c-23.58-11.4-43.45-27.74-61.41-43.7c-2.39-2.13-4.78-4.38-7.09-6.57
			c-6.55-6.19-13.32-12.59-21.51-17.32l-3.8-2.55l-0.74-0.5l-0.29,0l-24.71-9.51l12.08,8.09c-3.83-0.79-7.67-1.81-11.61-2.87
			c-5.43-1.46-11.05-2.96-16.82-3.82C353.94,31.03,347.43,30.55,341.05,30.55"/>
		<path class="st2" d="M93.27,360.99c16.7,17.33,25.78,39.15,34.4,60.87c18.7,47.11,35.56,94.95,54.57,141.93
			c24.48,60.48,63.55,111.56,106.83,159.62c9.75,10.83,21.77,18.84,34.71,25.45c1.7,0.72,3.41,1.44,5.11,2.16l-0.1-0.17
			c-0.32,2.98,1.75,4.25,3.82,5.74c15.7,11.27,32.82,12.39,50.57,6.53c16.05-5.29,31.85-11.35,49.23-9.68
			c10.74,7.9,20.95,16.58,32.99,22.59c1.11,2.04,3.13,2.1,5.07,2.31l-0.15-0.17c1.22,4.51,5.17,6.13,8.69,8.21
			c20.72,12.22,41.79,10.85,62.67,0.9c41.58-19.82,74.6-49.78,100.69-87.41c41.37-59.68,57.18-128.04,66.2-198.54
			c3.03-23.67,4.52-47.55,7.9-71.16c5.17-36.17,28.59-59.13,58.3-77.05c3.62,0.78,6.26,2.99,8.46,5.84
			c-2.88,10.8-9.75,19.91-12.39,30.91c-19.14,79.7-43.74,157.86-67.36,236.27c-22.1,73.36-46.85,145.96-67.58,219.7
			c-15.77,56.1-67.18,95.59-126.52,94.4c-79.35-1.6-158.76-0.33-238.15-0.43c-28.79-0.04-57.83,2.49-85.85-7.21
			c-1.8-0.62-4.08,0.13-6.13,0.24c0,0,0.16,0.08,0.16,0.08c-0.34-1.75-1.46-2.56-3.18-2.63c-3.59-2.77-7.38-5.37-8.95-9.95
			c-0.84-0.98-1.68-1.96-2.53-2.94c0,0,0.14,0.21,0.14,0.21c-0.49-1.92,0.21-4.48-2.77-5.04l0.09,0.15
			c1.17-4.79-1.01-8.85-2.68-13.09c-6.51-16.51-13.45-32.88-19.28-49.63C93.66,716.11,59.83,578.87,32.88,439.86
			C23.94,393.71,48.46,362.01,93.27,360.99"/>
		<path class="st3" d="M179.23,932.83c2.06-0.11,4.33-0.86,6.13-0.24c28.02,9.7,57.06,7.17,85.85,7.21
			c79.39,0.11,158.79-1.17,238.15,0.43c59.34,1.2,110.75-38.3,126.52-94.4c20.73-73.74,45.48-146.33,67.58-219.7
			c23.62-78.42,48.22-156.58,67.36-236.28c2.64-11.01,9.51-20.12,12.39-30.91c14.09,12.67,19.34,28.79,15.69,46.91
			c-12.24,60.78-31.05,119.84-48.89,179.1c-29.5,98-59.89,195.73-90.19,293.49c-17.09,55.13-58.88,86.24-116.11,86.38
			c-94.29,0.23-188.58,0.1-282.88,0.04C229.5,964.85,201.57,955.9,179.23,932.83"/>
		<path class="st4" d="M440.81,698.88c26.88-11.4,48.68-29.32,65.58-52.87c37.63-52.44,66.35-109.18,81.59-172.29
			c5.24-21.69,6.91-43.89,8.5-65.93c2.32-32.26,13.85-60.69,30.34-87.82c16.7-27.49,36.13-53.39,49.46-82.85
			c12.51-27.65,21.14-56.31,20.04-87.17c-0.44-12.47-3.64-24.35-6.8-36.29c-1.01-3.82-3.98-7.52-1.7-11.86
			c29.9,29.01,37.07,65.2,32.11,104.7c-4.85,38.63-22.78,72.06-43.52,104.21c-12.09,18.72-24.3,37.35-34.88,57.03
			c-16.31,30.37-19.27,63.41-22.29,96.91c-7.25,80.42-39.18,149.48-98.99,204.66c-16.49,15.22-35.15,27.43-56.08,35.83
			C454.99,708.81,446.38,709.24,440.81,698.88"/>
		<path class="st4" d="M401,43.09c-14.16-0.12-27.13-6.07-41.04-8.13c-67.17-9.95-120.25,33.75-135.15,98.12
			c-9.18,39.65-7.32,78.61,1.21,117.6c5.54,25.32,11.61,50.49,13.54,76.58c2.36,31.85-8.24,61.01-15.64,90.97
			c-17.55,71.09-13.68,140.72,15.35,208.44c1.46,3.42,5.12,8.75,3.76,12.71c-20.56-26.17-33-58.91-40.38-90.64
			c-13.11-56.32-11.96-112.78,6.59-167.61c15.64-46.26,12.84-91.7,1.78-137.89c-8.77-36.64-15.41-73.46-11.65-111.63
			c5.39-54.67,37.87-98.88,86.02-111.29C327.04,9.56,366.34,15.88,401,43.09"/>
		<path class="st5" d="M774.76,353.11c-29.71,17.92-53.12,40.88-58.3,77.05c-3.38,23.61-4.87,47.49-7.89,71.16
			c-9.02,70.5-24.82,138.86-66.2,198.54c-26.09,37.63-59.11,67.59-100.69,87.41c-20.88,9.95-41.95,11.32-62.67-0.89
			c-3.52-2.08-7.47-3.7-8.69-8.21c34.29,6.82,61.88-8.07,88.33-27.04c62.46-44.8,97.78-107.23,117.71-179.87
			c14.18-51.7,18.82-104.85,24.75-157.82c2.44-21.8,11.94-40.38,27.57-55.47C743.03,344.09,757.9,342.97,774.76,353.11"/>
		<path class="st4" d="M271.18,671.87c8.54-5.96,15.22-12.28,10.93-24.48c-19.21-54.67-13.4-109.18,2.74-163.19
			c10.26-34.3,25.89-65.74,52.53-90.95c24.89-23.56,64.59-25.66,83.25,7.53c-30.58-3.8-52.35,11.29-70.45,33.46
			c-26.83,32.87-40.54,71.63-48.54,112.6c-6.78,34.72-8.03,69.76-3.18,104.9c1.22,8.81,0.07,16.66-8.19,21.67
			C283.68,677.4,277.09,677.98,271.18,671.87"/>
		<path class="st6" d="M93.27,360.99c-44.81,1.01-69.33,32.71-60.38,78.86c26.95,139.01,60.78,276.25,107.35,410.13
			c5.83,16.75,12.77,33.11,19.28,49.63c1.67,4.23,3.85,8.3,2.68,13.09c-11.61-12.88-16.16-29.37-22.2-44.92
			C98.55,760.97,69.97,650.33,43.41,539.14c-9.68-40.54-17.99-81.41-26.64-122.19c-6.46-30.48,7.65-58.34,33.92-67.97
			C68.84,342.33,80.38,345.59,93.27,360.99"/>
		<path class="st6" d="M676.64,92.79c-11.82,0.63-22.18-5.35-33.44-7.5c-23.61-4.49-46.68-1.85-69.53,3.53
			c-21.35,5.03-42.76,7.87-64.69,6.73c-4.07-0.21-8.25-0.77-12.17,1.14c-9.74-4.53-18.79-10.09-26.93-17.15
			c1.78-4.37,5.08-2.05,7.42-1.81c31.88,3.29,62.27-5.87,93.25-10.48C609.01,61.53,645.25,67.77,676.64,92.79"/>
		<path class="st5" d="M432.41,753.44c-17.38-1.67-33.18,4.39-49.23,9.68c-17.75,5.86-34.87,4.74-50.57-6.53
			c-2.07-1.48-4.13-2.76-3.81-5.74c18.09,2.73,34.85-2.45,51.59-8.35C399.81,735.65,418.21,734.87,432.41,753.44"/>
		<path class="st7" d="M687.56,101.45c-2.85,0.81-3.33-0.92-3.37-3.13C685.31,99.36,686.44,100.41,687.56,101.45"/>
		<path class="st4" d="M241.25,637.02c2.96,0.46,2.99,2.69,3,4.94C242.19,640.97,241.16,639.33,241.25,637.02"/>
		<path class="st0" d="M328.9,751.02c-1.7-0.72-3.41-1.44-5.11-2.16C325.78,748.9,327.85,748.74,328.9,751.02"/>
		<path class="st0" d="M470.47,778.33c-1.95-0.21-3.96-0.27-5.07-2.31C467.39,776.13,469.55,775.86,470.47,778.33"/>
		<path class="st6" d="M162.1,912.55c2.97,0.55,2.28,3.12,2.77,5.04C163.05,916.4,161.94,914.83,162.1,912.55"/>
		<path class="st6" d="M404.71,45.7c-1.32-0.89-2.64-1.77-3.96-2.66C402.68,43.01,404.01,43.88,404.71,45.7"/>
		<path class="st6" d="M680.36,95.39c-1.31-0.89-2.62-1.78-3.93-2.67C678.33,92.73,679.6,93.68,680.36,95.39"/>
		<path class="st6" d="M244.12,641.75c0.89,1.28,1.78,2.56,2.67,3.84C245.9,644.32,245.01,643.03,244.12,641.75"/>
		<path class="st6" d="M164.73,917.38c0.84,0.98,1.68,1.96,2.53,2.94C166.41,919.34,165.57,918.36,164.73,917.38"/>
		<path class="st8" d="M176.21,930.28c1.73,0.07,2.84,0.88,3.18,2.63C178.33,932.03,177.27,931.15,176.21,930.28"/>
	</g>
</g>
</svg>
