<?xml version="1.0" encoding="utf-8"?>
<!-- Generator: Adobe Illustrator 19.1.1, SVG Export Plug-In . SVG Version: 6.00 Build 0)  -->
<svg version="1.1" id="Layer_1" xmlns="http://www.w3.org/2000/svg" xmlns:xlink="http://www.w3.org/1999/xlink" x="0px" y="0px"
	 width="960px" height="960px" viewBox="0 0 960 960" style="enable-background:new 0 0 960 960;" xml:space="preserve">
<style type="text/css">
	.st0{clip-path:url(#SVGID_2_);fill:#E0EDF8;}
	.st1{clip-path:url(#SVGID_2_);fill:#27378A;}
	.st2{clip-path:url(#SVGID_2_);fill:#FCEAEA;}
	.st3{clip-path:url(#SVGID_2_);fill:#FFFFFF;}
</style>
<g>
	<g>
		<defs>
			<rect id="SVGID_1_" width="960" height="960"/>
		</defs>
		<clipPath id="SVGID_2_">
			<use xlink:href="#SVGID_1_"  style="overflow:visible;"/>
		</clipPath>
		<path class="st0" d="M960,480c0,265.1-214.9,480-480,480S0,745.1,0,480S214.9,0,480,0S960,214.9,960,480"/>
		<path class="st1" d="M134.2,596.3c-7.9,0-15-4.2-20.6-12.1c-5.6-7.9-9.6-17.4-12.5-29.6c-0.5-2.3-1.1-4.5-1.6-6.8
			c-2.4-10-4.8-20.3-6.9-30.6c-1.9-9.1-3.4-18.4-4.8-27.4l-0.8-5c-0.3-2.1-0.6-4.3-0.8-6.4c-0.3-3.1-0.7-6.3-1.4-9.3
			c-0.7-2.8-2.2-5.6-4-7.4c-15.2-14.7-20.9-33.6-18.1-59.5c0.6-5.6,1-11.2,1.4-16.7c0.3-4.6,0.7-9.4,1.2-14.1
			c1.2-11.8,2.5-23.6,4-35.2c0.6-4.9,3.3-8.2,7.9-9.9c7.7-2.8,15.4-5.8,22.9-8.6c12.1-4.6,24.6-9.4,37-13.7
			c12.2-4.2,25.7-8.2,42.5-12.4c15.3-3.8,32.7-8.2,50.1-11c18.1-2.9,36.3-4.7,58-6.5c7.9-0.7,16.1-1,24.4-1c18,0,37.6,1.6,59.6,4.8
			c24.7,3.6,45.9,9.1,64.6,16.7c11.2,4.6,22,10.4,32.5,16c2.5,1.3,4.9,2.6,7.4,3.9c1.6,0.8,2.7,1.2,3.6,1.2c0.9,0,1.9-0.3,3-1.1
			c15.4-10.1,33.4-18.4,55.2-25.3c23.5-7.5,48.9-12.2,79.8-14.8c9.4-0.8,19.3-1.2,29.3-1.2c17.4,0,36,1.2,56.8,3.7
			c19.2,2.3,38.9,5.8,60.4,10.6c16,3.6,33.1,8.6,54,15.5c13.8,4.6,27.6,9.7,41,14.7c7.7,2.8,15.6,5.8,23.4,8.6
			c6.3,2.3,7.4,7.5,8,12.6c0.5,4.5,1,9.1,1.5,13.6c1.9,17,3.8,34.6,5.3,51.9c2.1,24.6-3.5,42.4-17.7,56.2c-3.5,3.4-4.6,7.4-5.2,12.4
			c-1.2,10.3-3.2,20.6-5.2,30.6l-0.8,4.3c-2.7,14.2-5.7,28.3-7.9,39c-2.5,11.7-6.2,25.3-14.7,37.2c-5.4,7.6-11.8,11.7-18.9,12
			c-0.3,0-0.7,0-1.1,0c-4.8,0-10.4-1.7-15.1-4.5c-3.8-2.3-7-5.6-10.1-8.7c-1.2-1.2-2.5-2.5-3.7-3.7c-0.9-0.8-1.6-1.7-2.4-2.5
			c0,0,0,0,0,0c-1.1,0.7-2.1,1.4-3.1,2.1c-2.8,1.9-5.4,3.7-8.2,5.3c-4.8,2.8-9.8,4.2-14.8,4.2c-5.2,0-10.4-1.5-15.4-4.6
			c-14.3-8.6-25.4-18.3-34-29.4c-14.8-19.2-16.2-40.7-4.2-62.2c6-10.7,3-19.9-0.2-29.6c-0.5-1.5-1-3-1.5-4.6c-0.1-0.2-0.8-0.6-1.4-1
			l-0.5,4.2c-0.5,4.3-1,8.3-1.5,12.3c-0.3,2.6-0.6,5.3-0.9,7.9c-0.9,7.5-1.8,15.2-3,22.7c-0.4,2.4-3.9,5.4-6.4,5.4
			c-8.9,0.2-17.7,0.2-28.1,0.2l-11.1,0c-3.4,0-6.8,0-10.2,0c-3.8,0-6.1-2-6.6-5.5c-0.6-4.8-1.2-9.5-1.7-14.3
			c-0.5-4.5-1.1-9-1.6-13.5c-0.4-3.4-0.9-6.9-1.5-10.5c-0.1-0.8-0.2-1.6-0.4-2.4c-0.2,0.2-0.3,0.4-0.4,0.5c-3.2,6.7-8.8,10-16.9,10
			c-0.7,0-1.5,0-2.3-0.1c-8.2-0.5-11.9-6.3-14.7-11.7c-6.4-12.1-14.1-24.1-27.9-30.8c-8.2-4-17.3-6.1-26.1-6.1
			c-18.8,0-35.6,9.1-46.2,25.1c-3.6,5.4-7,10.8-9.8,16.5c-2.1,4.4-7.5,7.2-14,7.2c-6.3,0-11.6-2.6-13.8-6.7
			c-3-5.5-6.2-10.9-9.6-16.1c-1.2-1.8-2.7-3.5-4.2-5.3c-0.3-0.3-0.6-0.7-0.9-1c0,0,0,0,0,0c0,1.4-0.1,2.8-0.5,4.3
			c-0.5,1.7-1.3,3.2-2.1,4.6c-0.2,0.4-0.4,0.7-0.6,1.1c-0.3,0.6-0.7,1.1-1.1,1.7c-0.5,0.7-1,1.4-1.1,1.9c-1.2,10-2.3,20.2-3.3,30
			l-0.9,8.5c0,0.4-0.1,0.9-0.1,1.3c-0.1,0.9-0.1,1.8-0.3,2.8c-1.4,7.5-2.7,8.5-10.2,8.5h-0.6c-4.1,0-8.2,0-12.2,0
			c-4.1,0-8.2,0-12.2,0c-7.6,0-13.7,0-19.4,0.1l-0.3,0c-5.5,0-8.2-2.4-8.7-7.8c-0.2-2-0.4-4.1-0.6-6.1c-0.9-9.5-1.8-19.4-3.4-29
			c-0.2-1.1-0.3-2.3-0.4-3.5c-0.3-3.8-0.5-7.4-4.3-9.6c-1.3-0.8-1.5-2.6-1.7-4.2c0-0.3-0.1-0.7-0.1-1c-0.2-1.3-0.3-2.5-0.4-3.7
			l0-0.2c-0.9,1.3-1.9,2.7-2.8,4c-2.8,3.9-5.4,7.5-6.7,11.6c-4.3,13.4-7.3,26.3-9.1,38.2c-1.1,7.4-1.6,15.1-2,22.5
			c-0.4,6.8-0.8,13.8-1.8,20.7c-0.8,6.1-5.8,11.6-7.9,13.7c-7.8,7.8-18.3,10.3-29.2,12.4c-7.4,1.4-14.9,2.1-22.3,2.1
			c-9.5,0-19-1.2-28.3-3.5c-5.9-1.5-11.4-3.5-16.5-6.1c-1-0.5-1.9-0.8-2.5-0.8c-0.9,0-1.8,0.5-3.5,1.9l-2.5,2.2
			c-7.5,6.6-15.3,13.4-23.7,19.1c-5.3,3.7-11,5.5-17,5.5c-7.5,0-15.1-3-22-8.7c-1-0.8-2-1.7-3.2-2.7c-0.2-0.2-0.5-0.4-0.7-0.6
			c-0.5,0.5-0.9,1.1-1.4,1.6c-1.7,2-3.4,4.2-5.5,5.8c-0.9,0.7-1.7,1.4-2.6,2.1c-4.1,3.4-8.2,6.9-13.1,8.7
			C139.8,595.7,137,596.3,134.2,596.3 M95.6,468.7c0.6,3.3,1.2,6.6,1.8,9.9c1.4,7.4,2.8,15.1,4.3,22.6c0.6,3.2,1.3,6.3,1.9,9.5
			c2.8,14,5.6,28.4,8.8,42.5c2.7,11.8,6.7,20.3,12.6,26.9c3.4,3.7,6.5,5.5,9.7,5.5c2.1,0,4.2-0.8,6.4-2.3c4.6-3.3,8.6-7.7,12.5-12.1
			c1.1-1.2,2.1-2.4,3.2-3.6c0.1-0.5-0.1-1.9-0.5-2.6c-10.9-17.3-14.4-36.8-16.4-55.4c-0.5-4.4-1.2-9.4-3.6-12
			c-10-11-20.5-21.2-32.2-32.3c-1.2-1.2-3.1-1.8-5.1-2.5c-0.5-0.2-0.9-0.3-1.4-0.5L95.6,468.7z M861.8,462.2
			c-1.5,0.5-2.9,0.9-4.3,1.4c-0.6,0.2-1.2,0.8-1.8,1.4c-2.5,2.5-5,5-7.5,7.4c-7.9,7.7-16,15.8-23.7,23.8c-1.8,1.9-3.2,4.9-4,8.4
			c-1,4.6-1.5,9.4-2,14c-0.1,1.2-0.3,2.3-0.4,3.5c-1.4,11.8-4.7,23.5-9.9,34.6c-0.5,1.1-1.2,2.3-1.8,3.4c-1.6,2.8-3.2,5.6-2.8,7.7
			c0.5,2.5,2.8,4.7,5.2,7.1c1.1,1.1,2.2,2.2,3.2,3.3c0,0,0.1,0,0.1,0.1c0.2,0.1,0.4,0.2,0.5,0.4c4.6,4.2,8.7,6.3,12.5,6.3
			c4.5,0,8.8-3,13-9.1c0.8-1.1,1.5-2.4,2.2-3.6c6-10.9,8.5-23,11-34.8c0.6-2.6,1.1-5.3,1.7-7.9c1.9-8.2,3.4-16.7,4.9-24.9
			c0.4-2.1,0.7-4.1,1.1-6.2c1.2-6.8,2.4-13.7,3.6-20.4c0.4-2.5,0.9-5,1.3-7.5l-0.4-0.1v-1.3c0-0.4,0-0.8,0-1.2c0-0.7,0.1-1.4,0-2
			c-0.3-1.3-0.7-2.6-1.1-4c0-0.1-0.1-0.2-0.1-0.3C862.1,462.1,862,462.2,861.8,462.2 M162,417.7c-8.1,0-11,6.8-11.9,12.4
			c-1.2,6.9-2.3,14.4-2,21.5c0.6,17.3,1.6,40,3.6,62.6c1.5,17.7,6.2,32.2,14.1,44.3c5.8,8.9,12.6,17.7,25.3,18.8
			c1.2-0.4,2.4-0.7,3.5-1c2.7-0.7,5.3-1.4,7.1-2.8c9.2-6.8,18-14.5,25.5-21.1c0.4-0.3,0.7-2.1,0.4-4.3c-0.2-1.2-0.6-2.5-1-3.8
			c-0.7-1.9-1.3-3.9-1.2-6c0.4-8.4,0.9-16.9,1.4-25.1c0.5-7.1,0.9-14.5,1.3-21.7c0.2-3.4-0.4-6.3-1.6-7.9
			c-8.4-11.8-17.2-23.6-25.7-35l-5.2-6.9c-6.4-8.5-13.8-17.1-24.8-21.8C167.6,418.4,164.6,417.7,162,417.7 M798.5,417.7
			c-1,0-2.1,0.2-3.2,0.5c-5.4,1.5-10.9,3.3-14.4,6.6c-9.2,8.7-17.1,17.5-23.7,26.3c-10.9,14.6-22.4,30.2-32.3,46.8
			c-9.3,15.7-9,31.7,1,46.4c8.8,13,21,22.1,31.9,29.4c3.4,2.3,7,3.4,10.7,3.4h0c3.6,0,7.2-1.1,10.9-3.1c10.2-5.8,15.6-15.9,20-24.8
			c6.7-13.8,8.5-29.1,10.2-44l0.3-2.9c1.1-8.9,1.5-17.9,1.9-27.4c0.2-4.4,0.4-8.9,0.7-13.6c-0.2-2.6-0.4-5.3-0.6-8.1
			c-0.5-6.7-1-14.4-1.8-21.8C809.1,423,804.6,417.7,798.5,417.7 M236.6,526.1l0.1,1.4c0,0.9,0,1.8,0,2.6c0,1.9,0.1,3.9-0.1,5.9
			c-0.4,6.7,2.6,11.5,8.9,14.3c5.4,2.4,12.1,5.4,18.7,6.5c7.2,1.3,14.4,1.9,21.2,1.9h0c11.4,0,22.6-1.8,33.1-5.3
			c11-3.7,14.9-9.1,14.6-20c-0.2-5.6-0.7-11.2-1.1-16.7c-0.2-1.8-0.3-3.7-0.5-5.5c-1.6-20.2-5.8-39.1-12.6-56
			c-4.3-10.7-10.5-21-15.9-29.7c-3.4-5.4-8.6-8.9-14.6-9.7c-1.6-0.2-3.3-0.3-4.8-0.3c-10.2,0-18.7,5-25.9,15.1
			c-11.1,15.7-14.6,34-17.5,53c-1.5,10-2.2,20.4-2.9,30.4c-0.3,4-0.5,8.1-0.9,12.2L236.6,526.1z M652.6,456.6
			c-1.3,0-2.2,0.2-2.6,0.6c-0.4,0.4-0.5,1.4-0.4,2.8c0.7,5.8,1.3,11.6,1.9,17.3c0.6,5.7,1.2,11.6,1.9,17.5c0.3,2.7,1.2,3.6,3.4,3.6
			l0.1,0c5-0.1,9.9-0.1,15.4-0.1h1.9c6.7,0,12.7,0,18.7-0.1c0.6,0,2.1-1.3,2.3-1.9c1.2-7.9,2.2-15.9,3.2-23.7
			c0.6-4.3,1.1-8.6,1.7-12.9c0.2-1.2,0.1-2-0.3-2.4c-0.3-0.4-1.1-0.6-2.3-0.6l-0.3,0c-2.8,0.1-5.7,0.1-9.3,0.1c-2.3,0-4.6,0-6.9,0
			c-2.1,0-4.2,0-6.2,0c-2.1,0-4.2,0-6.3,0c-2.1,0-4.2,0-6.3,0c-3.4,0-6.3,0-8.9-0.1C652.9,456.6,652.8,456.6,652.6,456.6
			 M389.1,497.1c0.3,0.4,1.5,1.1,2.1,1.1c6.9,0.1,12.8,0.1,18.3,0.1c6.5,0,12.4-0.1,18.1-0.2c0.8,0,2.7-1.5,2.8-2.1
			c1.2-9.1,2.1-18.4,3-27.4c0.3-3.1,0.6-6.2,0.9-9.2c0.1-1.2,0-2-0.2-2.3c-0.3-0.3-0.9-0.4-1.8-0.4v-1.5l-0.1,1.5
			c-9.8,0.1-19.7,0.1-29.4,0.1c-5.7,0-11.4,0-17.1,0c-0.5,0-1,0.1-1.6,0.3c0,0,0,0-0.1,0c0,0.1-0.1,0.2-0.1,0.3l0.5,4.2
			C385.9,473.2,387.4,485.2,389.1,497.1 M283.7,403.7c10.7,0,20.3,4.5,27.1,12.8c7.9,9.6,14,20.4,18,31.9c3,8.7,5.6,17.3,8.3,26.5
			c0.6,2.2,1.3,4.3,1.9,6.5c0.2-0.9,0.4-1.9,0.6-2.8c1.4-5.9,2.8-12,4.5-18c5.2-18.3,12-32.1,21.3-43.6c11-13.5,27.1-21.2,44.3-21.2
			c4.9,0,9.8,0.6,14.5,1.9c13.9,3.6,25.1,12,33.2,24.8c3.7,5.8,6.8,12,9.8,18.1c1.2,2.3,2.3,4.7,3.5,7c2.2,4.3,4.5,6.9,9,6.9l0.2,0
			c4-0.1,6.7-2.1,9.1-7.1c1-2,1.9-4.1,2.8-6.1c1.4-3.1,2.8-6.3,4.5-9.3c11.9-21.4,25.8-32.3,45-35.3c3.3-0.5,6.5-0.8,9.7-0.8
			c12.8,0,24.6,4.3,35.1,12.9c12.3,10,19.1,23.7,24.7,37c2.5,6,5.4,8.5,10.2,8.5l0.2,0c5,0,7.5-2.8,10.3-8.1
			c5.3-10,10.2-19,15.9-27.6c5.1-7.8,12.2-12.8,20.1-14.2c2.9-0.5,5.8-0.8,8.6-0.8c12.3,0,23,5.2,31.6,15.3
			c8.4,9.8,14,21.8,18.3,38.9c0.7,2.9,1.5,5.8,2.5,9.1c0.2,0.7,0.4,1.4,0.6,2.1l3.2-4.1c3-3.9,5.9-7.8,8.8-11.7
			c7-9.2,14.2-18.7,21.5-27.9c5.9-7.5,13.7-13,23.1-16.5c4.8-1.8,9-2.7,12.7-2.7c5.3,0,9.9,1.7,14.2,5.1c7.1,5.7,8.6,14,9.1,22.1
			c0.7,10.1,0.9,20.5,1.1,30.4c0.1,4.5,0.2,9,0.3,13.5c0,0.8,0.1,1.6,0.2,2.5c0.6-0.6,1.1-1,1.6-1.4c2.8-2.5,5.5-5,8.3-7.5
			c6.9-6.3,14.1-12.8,21.4-19c2.2-1.9,4.8-2.8,7.6-2.8c2.4,0,5,0.7,7.6,2.1c0.1,0.1,0.4,0.2,1,0.2c0.9,0,1.7-0.3,1.9-0.4
			c3.3-4,6.4-7.9,8.6-12.2c4.4-8.6,5.9-18.4,4.7-31.8c-1.8-20.2-4.1-41.6-7-67.5c-0.1-1-1.9-2.9-3.4-3.4c-5.5-2.1-11-4.2-16.5-6.3
			c-16.8-6.4-34.2-13-51.6-18.5c-19.9-6.2-40.6-10.9-60.7-15.5l-4.7-1.1c-21.4-4.9-45.2-8-72.8-9.4c-7.5-0.4-15-0.6-22.3-0.6
			c-36,0-68.8,4.6-100.3,14.2c-23.7,7.2-43.9,16.4-61.8,28.3c-1.3,0.8-3.2,1.3-5.2,1.3c-1.1,0-2.8-0.2-4-1
			c-20.5-14-44.2-24.2-74.5-32.2c-22.8-6-47.5-9.5-73.5-10.3c-5.7-0.2-11.3-0.3-16.6-0.3c-22.4,0-42.4,1.6-61.2,4.8
			c-5.3,0.9-10.7,1.7-15.9,2.5c-10.1,1.5-20.5,3.1-30.6,5.5c-18.1,4.2-36.4,9.3-54.5,15.3c-18.8,6.2-37.7,13.3-56,20.2
			c-3,1.1-5.9,2.2-8.9,3.3c-1.2,0.4-2.7,2.7-3,4.3c-1.2,6.9-1.9,14-2.4,20.7c-0.4,4.9-0.9,9.8-1.3,14.7c-1.3,14.2-2.6,28.9-3.1,43.4
			c-0.4,11.7,3.9,22.5,12.6,31.2c0.6,0.6,2,1.2,2.7,1.3c2.7-1.8,5.4-2.7,8.1-2.7c5.2,0,9.6,3.3,12.5,5.8c6,5.2,11.8,10.8,17.4,16.2
			c2.6,2.5,5.1,4.9,7.7,7.3c0.5,0.5,1,0.9,1.7,1.4c0-1,0-1.7,0-2.5c-0.7-15.6-0.8-34.1,3.2-53c2.3-10.9,10.4-18.2,20-18.2
			c0.9,0,1.9,0.1,2.8,0.2c7.3,1,15.2,3.9,22.2,8.2c10.4,6.3,17.5,15.9,24.4,25.3c1.7,2.3,3.4,4.6,5.1,6.8c4.1,5.3,8,10.7,12.1,16.4
			c1.4,1.9,2.8,3.9,4.3,5.9c0.6-1.2,1-2.1,1.2-3c0.7-2.4,1.3-5,1.9-7.4c1.1-4.4,2.2-8.9,3.7-13.3c5.8-16.6,13.1-27.3,23.7-34.7
			C267.7,406.2,275.7,403.7,283.7,403.7 M381.6,421c-1.2,0-2,0.2-2.4,0.6c-0.4,0.4-0.6,1.1-0.5,2.3c0.1,6.7,0.1,12.3,0,17.6
			c0,1.5,0.2,2.4,0.7,2.9c0.5,0.5,1.4,0.8,2.9,0.8l0.3,0c3.3-0.1,6.9-0.1,11.3-0.1c2.5,0,5,0,7.5,0c2.5,0,5,0,7.5,0h0.3
			c2.6,0,5.2,0,7.8,0c2.6,0,5.2,0,7.8,0c4.6,0,8.4,0,11.9,0.1l0.2,0c1.3,0,2.1-0.2,2.6-0.7c0.4-0.4,0.6-1.2,0.6-2.4
			c-0.1-5.9-0.1-11.9,0-18.5c0-1-0.1-1.6-0.5-2c-0.3-0.4-1.1-0.5-2.2-0.5c-9.5,0-19.2,0.1-29,0.1C399.4,421,390.5,421,381.6,421
			v-1.5V421z M698.6,445c3.4,0,5.7-0.2,6.5-1c0.8-0.9,0.7-3.1,0.2-6.5c-0.7-6.1-4.6-9.7-10.7-9.7l-4.7,0c-4,0-8.1,0-12.1,0
			c-6.2,0-12.4,0-18.5,0.1l-0.3,0c-1.1,0-3.3,0-3.8,0.5c-4.3,4.6-7.4,9.9-9.5,16.7L698.6,445z M417.5,408.6
			c-2.7-0.7-5.8-1.1-8.9-1.1c-3.2,0-6.1,0.4-8.4,1.1H417.5z"/>
		<path class="st1" d="M312.3,274.6c19.9,0,39.7,1.9,59.4,4.8c22,3.2,43.7,8.2,64.3,16.6c13.7,5.6,26.7,13,39.7,19.9
			c1.6,0.9,3,1.4,4.3,1.4c1.2,0,2.4-0.4,3.8-1.3c17-11.2,35.5-19,54.8-25.2c25.9-8.2,52.4-12.5,79.5-14.8c9.7-0.8,19.4-1.2,29.1-1.2
			c18.9,0,37.8,1.4,56.6,3.7c20.2,2.4,40.3,6.1,60.2,10.6c18.2,4.1,36.1,9.6,53.8,15.5c21.6,7.2,42.9,15.6,64.4,23.3
			c5.6,2,6.5,6.6,7,11.3c2.4,21.8,4.9,43.6,6.8,65.5c1.8,20.6-1.6,39.8-17.3,55c-3.8,3.7-5,8-5.6,13.3c-1.4,11.7-3.8,23.2-6,34.8
			c-2.5,13-5.2,26-7.9,38.9c-2.8,13-6.5,25.6-14.4,36.6c-4.4,6.2-10.3,11-17.7,11.4c-0.3,0-0.7,0-1,0c-4.8,0-10.2-1.8-14.3-4.3
			c-5.1-3.1-9.1-8.1-13.5-12.2c-1.2-1.1-2.2-2.4-3.2-3.4c-4.6,3.1-8.3,5.8-12.3,8.2c-4.7,2.7-9.4,4-14.1,4c-5,0-9.9-1.5-14.7-4.4
			c-12.8-7.7-24.4-17.1-33.6-29.1c-14.8-19.2-15.5-40.2-4.1-60.6c7.3-13,2-23.8-1.6-35.3c-0.3-1.1-2.1-1.7-4-3.1
			c-0.9,7.1-1.6,13-2.3,18.9c-1.2,10.2-2.3,20.5-3.9,30.6c-0.3,1.7-3.2,4.1-4.9,4.1c-9.4,0.2-18.8,0.2-28.2,0.2c-3.7,0-7.4,0-11.1,0
			c-3.4,0-6.9,0-10.3,0c0,0,0,0,0,0c-3,0-4.7-1.4-5.1-4.2c-1.2-9.2-2.2-18.5-3.4-27.7c-0.6-5-1.4-10.1-2.3-16.2
			c-1.4,1.7-2.3,2.4-2.7,3.3c-3.3,6.8-8.7,9.2-15.5,9.2c-0.7,0-1.4,0-2.2-0.1c-7.2-0.5-10.5-5.2-13.5-10.9
			c-6.8-12.9-14.8-24.8-28.6-31.4c-8.6-4.2-17.8-6.2-26.7-6.2c-18.4,0-36.1,8.6-47.4,25.7c-3.6,5.4-7.1,10.9-9.9,16.7
			c-2,4.2-7.3,6.3-12.7,6.3c-5.2,0-10.3-2-12.5-5.9c-3-5.5-6.2-11-9.6-16.2c-1.8-2.8-4.3-5.2-6.4-7.8c-0.5,0.2-0.9,0.4-1.4,0.6
			c-0.1,1.9,0,3.9-0.5,5.6c-0.5,1.9-1.6,3.6-2.5,5.3c-0.7,1.4-2.2,2.7-2.4,4.1c-1.5,12.8-2.9,25.7-4.2,38.6c-0.1,1.3-0.2,2.7-0.4,4
			c-1.3,6.8-1.9,7.3-8.8,7.3c-0.2,0-0.4,0-0.6,0c-8.2,0-16.3,0-24.5,0c-6.5,0-12.9,0-19.4,0.1c-0.1,0-0.2,0-0.3,0
			c-4.6,0-6.8-1.7-7.2-6.4c-1.1-11.8-2-23.6-3.9-35.2c-0.8-4.8,0.3-10.8-5.3-14.2c-0.9-0.5-0.9-2.7-1.1-4.1
			c-0.3-1.7-0.4-3.5-0.5-5.2c-0.6-0.2-1.2-0.4-1.7-0.7c-3.6,5.7-8.6,11-10.6,17.3c-4,12.5-7.2,25.5-9.1,38.5
			c-2.1,14.3-1.9,28.9-3.8,43.2c-0.6,4.6-4,9.4-7.4,12.8c-7.7,7.7-18.1,10-28.4,12c-7.3,1.4-14.7,2.1-22,2.1c-9.4,0-18.7-1.1-28-3.5
			c-5.6-1.4-11.1-3.4-16.2-6c-1.3-0.7-2.3-0.9-3.2-0.9c-1.6,0-2.8,0.9-4.5,2.3c-8.5,7.4-16.9,14.9-26.1,21.2
			c-5.3,3.6-10.7,5.3-16.1,5.3c-7.4,0-14.6-3.1-21-8.4c-1.5-1.3-3-2.6-5-4.3c-2.6,2.9-4.8,6.1-7.7,8.4c-4.8,3.9-9.6,8.5-15.3,10.6
			c-2.7,1-5.4,1.5-8,1.5c-7.5,0-14.2-4.2-19.4-11.5c-6.2-8.8-9.8-18.7-12.2-29.1c-2.9-12.4-5.9-24.8-8.5-37.3
			c-2.2-10.7-3.8-21.6-5.6-32.4c-0.8-5.2-1-10.6-2.2-15.7c-0.7-2.9-2.2-6-4.4-8.1c-16.7-16.2-20-36.3-17.6-58.3
			c1.1-10.3,1.6-20.6,2.6-30.9c1.2-11.7,2.5-23.4,4-35.1c0.5-4.1,2.6-7.1,6.9-8.7c20-7.4,39.8-15.4,59.9-22.3
			c13.9-4.8,28.1-8.8,42.4-12.3c16.5-4.1,33.1-8.3,50-10.9c19.2-3,38.6-4.9,57.9-6.5C296.1,274.9,304.2,274.6,312.3,274.6
			 M479.5,327.1c-1.2,0-2.4-0.2-3.1-0.7C453.5,310.8,428,301,401.5,294c-24.1-6.4-48.9-9.6-73.9-10.4c-5.6-0.2-11.1-0.3-16.7-0.3
			c-20.6,0-41.1,1.3-61.4,4.8c-15.5,2.7-31.3,4.4-46.6,8c-18.4,4.3-36.6,9.4-54.6,15.3c-21.9,7.2-43.4,15.4-64.9,23.5
			c-1.8,0.7-3.6,3.4-4,5.5c-1.2,6.9-1.9,13.8-2.4,20.8c-1.6,19.4-3.8,38.8-4.5,58.2c-0.4,12.2,4.2,23.4,13.1,32.3
			c0.8,0.8,2.7,1.7,3.8,1.7c0.3,0,0.5,0,0.6-0.1c2.6-1.8,5.1-2.6,7.5-2.6c4.2,0,8,2.4,11.5,5.5c8.6,7.5,16.7,15.6,25,23.5
			c1,0.9,2,1.7,4.2,3.6c0-2.9,0.1-4.3,0-5.7c-0.7-17.6-0.5-35.2,3.2-52.6c2-9.7,9.2-17,18.6-17c0.9,0,1.7,0.1,2.6,0.2
			c7.5,1.1,15.1,4,21.6,8c12.6,7.6,20.2,20.4,29,31.8c5.9,7.7,11.5,15.7,17.8,24.3c1-2.4,1.9-3.9,2.4-5.6c1.9-6.9,3.2-13.9,5.5-20.6
			c4.6-13.3,11.1-25.6,23.1-33.9c6.2-4.3,13.9-6.8,21.6-6.8c9.4,0,18.9,3.7,26,12.2c7.8,9.5,13.7,20,17.7,31.4
			c4.3,12.5,7.8,25.3,11.8,38.3c2.1-8.8,3.9-17.6,6.4-26.2c4.4-15.6,10.6-30.3,21-43.1c11-13.6,26.9-20.7,43.1-20.7
			c4.7,0,9.5,0.6,14.1,1.8c13.9,3.6,24.7,12.2,32.4,24.2c5,7.9,9,16.6,13.3,25c2.2,4.3,4.9,7.7,10.3,7.7c0.1,0,0.1,0,0.2,0
			c5.5-0.1,8.3-3.6,10.5-7.9c2.5-5.1,4.5-10.4,7.3-15.3c9.8-17.6,22.6-31.2,44-34.6c3.2-0.5,6.4-0.7,9.4-0.7
			c12.6,0,23.9,4.2,34.2,12.6c11.8,9.6,18.5,22.7,24.3,36.5c2.1,5.1,5.1,9.4,11.5,9.5c0.1,0,0.2,0,0.3,0c6.2,0,9-3.9,11.6-8.9
			c5-9.3,10-18.7,15.8-27.5c4.5-6.8,11.1-12.1,19.1-13.5c2.8-0.5,5.6-0.8,8.3-0.8c11.8,0,22.1,4.9,30.5,14.8
			c9.5,11.2,14.5,24.4,18,38.3c1.1,4.4,2.4,8.7,3.9,14.2c2.2-2.9,3.6-4.7,5-6.6c10.1-13.2,20-26.5,30.3-39.5
			c5.9-7.4,13.5-12.7,22.4-16.1c4.1-1.5,8.2-2.6,12.2-2.6c4.6,0,9,1.3,13.3,4.8c6.7,5.4,8,13.3,8.5,21c1,14.6,1,29.3,1.4,43.9
			c0,1.5,0.3,3,0.6,5.6c1.9-1.7,2.8-2.6,3.7-3.5c9.8-8.9,19.5-17.9,29.6-26.4c2-1.7,4.3-2.5,6.7-2.5c2.3,0,4.6,0.7,6.9,1.9
			c0.4,0.2,1.1,0.3,1.7,0.3c1.2,0,2.5-0.3,3-0.9c3.2-3.9,6.5-8,8.8-12.5c5.3-10.2,5.8-21.5,4.8-32.7c-2.1-22.5-4.5-45-7-67.5
			c-0.2-1.7-2.5-4-4.3-4.6c-22.6-8.5-45.1-17.6-68.1-24.7c-21.5-6.7-43.5-11.6-65.5-16.6c-24-5.5-48.5-8.2-73.1-9.5
			c-7.5-0.4-15-0.6-22.4-0.6c-34.1,0-67.8,4.3-100.8,14.2c-22,6.7-42.9,15.7-62.2,28.5C482.8,326.7,481.1,327.1,479.5,327.1
			 M394.7,410.1h29.9c-4.1-2.8-10.2-4.1-16-4.1C402.6,405.9,397.1,407.4,394.7,410.1 M285.5,560.2c11.3,0,22.5-1.7,33.5-5.4
			c11.3-3.8,16-9.6,15.6-21.5c-0.2-7.5-1-14.9-1.6-22.4c-1.5-19.4-5.5-38.4-12.7-56.4c-4.2-10.5-10-20.4-16.1-29.9
			c-3.4-5.4-8.7-9.4-15.7-10.4c-1.7-0.2-3.4-0.4-5-0.4c-11.6,0-20.3,6.1-27.1,15.8c-11.3,16-14.9,34.8-17.7,53.6
			c-2.2,14.6-2.7,29.4-3.9,44.2c0.1,0,0.2,0,0.4,0c0,2.8,0.1,5.7,0,8.5c-0.5,7.6,3.2,12.8,9.8,15.7c6.2,2.7,12.5,5.5,19.1,6.6
			C271.2,559.6,278.4,560.2,285.5,560.2 M668.7,416.1h15.4c0-0.4,0-0.9,0-1.3h-15.4C668.7,415.2,668.7,415.7,668.7,416.1
			 M768.4,578.5c3.9,0,7.8-1.1,11.6-3.3c10.1-5.8,15.7-15.4,20.6-25.5c7.2-14.9,8.8-31.2,10.7-47.3c1.6-13,1.7-26.2,2.6-41.1
			c-0.7-8.9-1.3-19.5-2.4-30.1c-1-9.2-6.2-15-13-15c-1.2,0-2.4,0.2-3.6,0.5c-5.3,1.5-11.2,3.4-15,7c-8.6,8.1-16.8,17-23.9,26.5
			c-11.4,15.2-22.7,30.6-32.4,46.9c-9.3,15.6-9.6,32.3,1,48c8.4,12.4,20,21.6,32.3,29.8C760.6,577.3,764.5,578.5,768.4,578.5
			 M191.2,579c3.8-1.3,8.3-1.8,11.4-4.1c8.9-6.6,17.3-13.9,25.6-21.2c1.1-1,1.2-3.8,0.9-5.7c-0.5-3.2-2.4-6.4-2.2-9.5
			c0.7-15.6,1.9-31.2,2.7-46.8c0.1-3-0.2-6.6-1.8-8.9c-10.1-14.2-20.5-28-30.9-42c-6.9-9.2-14.5-17.6-25.4-22.3
			c-3.5-1.5-6.7-2.2-9.5-2.2c-7.1,0-11.9,4.6-13.4,13.7c-1.2,7.2-2.3,14.6-2,21.8c0.8,20.9,1.8,41.9,3.6,62.7
			c1.4,15.9,5.4,31.4,14.4,45C170.8,569,177.9,577.9,191.2,579 M408.2,419.5c-8.9,0-17.7,0-26.6-0.1c0,0,0,0,0,0
			c-3.1,0-4.5,1.2-4.4,4.4c0.1,5.8,0.1,11.7,0,17.5c-0.1,3.8,1.4,5.2,5.1,5.2c0.1,0,0.2,0,0.3,0c3.7-0.1,7.5-0.1,11.2-0.1
			c5,0,10,0,15,0c0.1,0,0.2,0,0.2,0c5.2,0,10.4,0,15.6,0c4,0,7.9,0,11.9,0.1c0.1,0,0.1,0,0.2,0c3.2,0,4.7-1.3,4.7-4.6
			c-0.1-6.2-0.1-12.3,0-18.5c0-3-1.3-4-4.2-4c0,0,0,0-0.1,0C427.5,419.5,417.9,419.5,408.2,419.5 M643.6,446.5h6.6
			c9.6,0,19.2,0,28.8,0c6.5,0,13.1,0,19.6,0c8.3,0,9.2-1,8.2-9.2c-0.8-6.9-5.4-11-12.2-11c-5.6,0-11.3,0-16.9,0
			c-6.2,0-12.3,0-18.5,0.1c-1.8,0-4.2,0-5.2,1C649.2,432.5,645.9,438.6,643.6,446.5 M656.8,499.8c0,0,0.1,0,0.1,0
			c5.1-0.1,10.2-0.1,15.4-0.1c0.6,0,1.2,0,1.8,0c6.3,0,12.5,0,18.8-0.1c1.3,0,3.5-1.9,3.7-3.2c1.8-12.2,3.3-24.4,4.9-36.6
			c0.5-3.4-0.8-4.7-4.1-4.7c-0.1,0-0.2,0-0.3,0c-3.1,0.1-6.2,0.1-9.3,0.1c-4.4,0-8.8,0-13.2,0c-4.2,0-8.4,0.1-12.6,0.1
			c-2.9,0-5.9,0-8.8-0.1c-0.2,0-0.4,0-0.6,0c-3.5,0-4.9,1.3-4.4,5.1c1.3,11.6,2.4,23.2,3.7,34.7
			C652.2,497.6,653.2,499.8,656.8,499.8 M409.4,499.8c6,0,12.1-0.1,18.1-0.2c1.5,0,4.1-2.1,4.3-3.4c1.6-12.2,2.7-24.4,3.9-36.7
			c0.3-2.7-0.2-4.4-3.5-4.4c0,0,0,0-0.1,0c-15.5,0.1-31,0-46.4,0.1c-0.9,0-1.9,0.3-2.8,0.5c-0.2,0.7-0.5,1.2-0.4,1.7
			c1.6,13.4,3.2,26.7,5.1,40c0.1,0.9,2.3,2.2,3.5,2.2C397.2,499.7,403.3,499.8,409.4,499.8 M134.6,587c2.3,0,4.7-0.8,7.3-2.6
			c6.1-4.3,10.9-10.4,16-15.9c0.7-0.7,0.3-3.2-0.4-4.4c-10.6-16.7-14.1-35.5-16.2-54.8c-0.5-4.4-1.2-9.9-4-12.9
			c-10.2-11.3-21.3-21.9-32.3-32.4c-2.1-2-5.7-2.6-8.5-3.9c-0.8,2.7-1.6,5.5-2.5,8.4c2.1,11,4,21.9,6.2,32.8
			c3.5,17.4,6.8,34.8,10.7,52c2.3,10,5.8,19.7,12.9,27.5C127.3,584.9,130.9,587,134.6,587 M825,586.7c5.1,0,9.7-3.2,14.2-9.7
			c0.8-1.2,1.6-2.5,2.3-3.9c7.3-13.4,9.5-28.4,12.8-43c2.3-10.3,4.1-20.8,6-31.2c1.8-9.8,3.4-19.6,5.1-29.4c-0.2,0-0.4-0.1-0.6-0.1
			c0-1.2,0.2-2.4,0-3.5c-0.4-2-1-3.9-1.6-5.8c-2.1,0.7-4.2,1.2-6.2,2c-0.9,0.3-1.6,1.1-2.3,1.8c-10.5,10.4-21.1,20.6-31.3,31.3
			c-2.2,2.3-3.7,5.9-4.4,9.2c-1.3,5.8-1.8,11.7-2.4,17.6c-1.4,11.9-4.7,23.3-9.8,34.1c-1.9,4-5.4,8.5-4.7,12
			c0.9,4.1,5.6,7.5,8.7,11.1c0.2,0.2,0.5,0.4,0.8,0.6C816.3,584.5,820.8,586.7,825,586.7 M312.3,271.6c-8.3,0-16.6,0.3-24.5,1
			c-21.7,1.8-39.9,3.6-58.1,6.5c-17.4,2.8-34.9,7.1-50.2,11c-16.9,4.2-30.5,8.2-42.7,12.4c-12.5,4.3-25,9.1-37.1,13.7
			c-7.5,2.9-15.2,5.8-22.9,8.6c-5.1,1.9-8.2,5.7-8.9,11.1c-1.5,11.5-2.8,23.4-4,35.2c-0.5,4.7-0.8,9.5-1.2,14.2
			c-0.4,5.5-0.8,11.2-1.4,16.7c-2.9,26.4,3,45.7,18.5,60.7c1.6,1.5,2.9,4.1,3.5,6.6c0.7,2.9,1,5.9,1.3,9.1c0.2,2.1,0.5,4.3,0.8,6.5
			c0.3,1.7,0.5,3.4,0.8,5.1c1.4,9,2.9,18.3,4.8,27.4c2.1,10.3,4.5,20.6,6.9,30.6c0.5,2.3,1.1,4.5,1.6,6.8c2.9,12.5,7,22.1,12.7,30.2
			c5.9,8.3,13.5,12.7,21.8,12.7c3,0,6-0.6,9-1.7c5.1-1.9,9.4-5.5,13.5-8.9c0.9-0.7,1.7-1.4,2.5-2.1c2.2-1.8,4-4,5.7-6
			c0.1-0.2,0.2-0.3,0.4-0.5c1,0.8,1.8,1.6,2.7,2.4c7.2,5.9,15.1,9,22.9,9c6.2,0,12.2-1.9,17.8-5.8c8.4-5.8,16.3-12.6,23.8-19.2
			l2.5-2.2c1.3-1.1,2-1.6,2.5-1.6c0.3,0,0.8,0.1,1.8,0.6c5.2,2.7,10.9,4.8,16.8,6.3c9.4,2.4,19.1,3.6,28.7,3.6
			c7.5,0,15.1-0.7,22.6-2.2c11.2-2.1,21.8-4.7,30-12.8c2.2-2.2,7.4-8,8.3-14.6c0.9-6.9,1.3-14,1.8-20.8c0.5-7.4,0.9-15,2-22.4
			c1.8-11.9,4.8-24.7,9-38c1.2-3.8,3.8-7.4,6.5-11.2c0.2-0.2,0.3-0.5,0.5-0.7c0,0,0,0,0,0c0,0.3,0.1,0.6,0.1,0.9
			c0.2,1.9,0.5,4.2,2.4,5.3c2.9,1.7,3.2,4.3,3.5,8.4c0.1,1.2,0.2,2.4,0.4,3.6c1.6,9.5,2.5,19.3,3.3,28.8c0.2,2.1,0.4,4.1,0.6,6.2
			c0.6,6.2,3.9,9.2,10.2,9.2l0.3,0c5.6-0.1,11.8-0.1,19.4-0.1c4.1,0,8.2,0,12.2,0c4.1,0,8.2,0,12.3,0h0.3h0.3
			c8.3,0,10.2-1.6,11.7-9.7c0.2-1,0.3-2,0.3-2.9c0-0.4,0.1-0.8,0.1-1.3c0.3-2.9,0.6-5.7,0.9-8.6c1-9.8,2.1-20,3.3-29.9
			c0.1-0.2,0.5-0.8,0.8-1.2c0.4-0.5,0.9-1.2,1.2-1.9c0.2-0.3,0.4-0.7,0.6-1c0.8-1.5,1.7-3.1,2.2-4.9c0.1-0.3,0.2-0.7,0.2-1
			c1,1.1,1.9,2.3,2.7,3.5c3.3,5.2,6.6,10.6,9.5,16c2.5,4.6,8.3,7.5,15.1,7.5c7.1,0,13-3.1,15.4-8c2.7-5.6,6.1-10.9,9.7-16.3
			c10.3-15.5,26.6-24.4,44.9-24.4c8.6,0,17.4,2,25.4,5.9c13.4,6.5,21,18.3,27.3,30.1c3,5.7,7,11.9,16,12.5c0.8,0.1,1.6,0.1,2.4,0.1
			c7.4,0,12.8-2.5,16.4-7.7c0.4,3,0.9,5.9,1.2,8.7c0.6,4.5,1.1,9.1,1.6,13.5c0.6,4.7,1.1,9.5,1.7,14.2c0.6,4.4,3.5,6.8,8,6.8
			c3.5,0,6.9,0,10.3,0l5.5,0l5.5,0c10.5,0,19.3,0,28.2-0.2c3.2-0.1,7.3-3.5,7.8-6.7c1.2-7.6,2.1-15.3,3-22.8
			c0.3-2.6,0.6-5.3,0.9-7.9c0.5-3.9,1-7.9,1.5-12.2c0.2,0.5,0.3,1,0.5,1.5c3.2,9.8,6,18.2,0.4,28.4c-12.3,22.1-10.8,44.1,4.4,63.9
			c8.7,11.3,20,21.1,34.4,29.8c5.3,3.2,10.7,4.8,16.2,4.8c5.3,0,10.5-1.5,15.6-4.5c2.8-1.6,5.5-3.5,8.3-5.4c0.7-0.5,1.3-0.9,2-1.4
			c0.5,0.5,1,1.1,1.6,1.7c1.2,1.2,2.5,2.4,3.7,3.7c3.1,3.2,6.4,6.6,10.4,9c4.9,3,10.8,4.7,15.9,4.7c0.4,0,0.8,0,1.1,0
			c7.6-0.4,14.3-4.7,20-12.7c8.6-12.1,12.4-25.8,14.9-37.7c2.3-10.7,5.2-24.8,7.9-39c0.3-1.4,0.6-2.9,0.8-4.3
			c1.9-10,3.9-20.4,5.2-30.7c0.6-4.7,1.6-8.5,4.7-11.5c14.5-14.1,20.3-32.4,18.2-57.4c-1.5-17.4-3.4-34.9-5.3-51.9
			c-0.5-4.5-1-9.1-1.5-13.6c-0.4-4.1-1.2-11.1-9-13.8c-7.8-2.8-15.7-5.7-23.4-8.6c-13.4-5-27.3-10.1-41.1-14.7
			c-20.9-7-38.1-11.9-54.1-15.5c-21.5-4.9-41.3-8.4-60.5-10.7c-20.9-2.5-39.5-3.7-57-3.7c-10,0-19.9,0.4-29.4,1.2
			c-31,2.7-56.5,7.4-80.1,14.9c-21.9,6.9-40,15.3-55.5,25.5c-1.1,0.7-1.8,0.8-2.2,0.8c-0.7,0-1.6-0.3-2.9-1
			c-2.5-1.3-4.9-2.6-7.4-3.9c-10.5-5.6-21.4-11.5-32.7-16.1c-18.9-7.7-40.1-13.2-65-16.8C350,273.2,330.4,271.6,312.3,271.6
			 M479.5,330.1c2.3,0,4.5-0.6,6-1.6c17.8-11.8,37.8-21,61.4-28.1c31.4-9.5,64.1-14.1,99.9-14.1c7.3,0,14.8,0.2,22.3,0.6
			c27.6,1.4,51.3,4.5,72.6,9.4l4.7,1.1c20,4.6,40.7,9.3,60.6,15.5c17.4,5.4,34.7,12,51.5,18.4c5.4,2.1,11,4.2,16.5,6.3
			c1,0.4,2.2,1.7,2.4,2.2c2.9,25.8,5.2,47.2,7,67.4c1.2,13.1-0.2,22.7-4.5,31c-2.1,4.1-5.1,7.9-8.2,11.7c-0.2,0.1-0.5,0.1-0.9,0.1
			c-0.2,0-0.3,0-0.4,0c-2.8-1.5-5.6-2.2-8.2-2.2c-3.2,0-6.1,1.1-8.6,3.2c-7.3,6.2-14.5,12.7-21.4,19c-2.5,2.3-5,4.6-7.5,6.8
			c-0.1-4.3-0.2-8.7-0.3-12.9c-0.2-10-0.4-20.3-1.1-30.5c-0.6-8.4-2.1-17.1-9.7-23.1c-4.5-3.7-9.5-5.4-15.1-5.4
			c-3.9,0-8.3,0.9-13.2,2.8c-9.6,3.6-17.6,9.3-23.7,17c-7.3,9.2-14.5,18.7-21.5,27.9c-2.9,3.9-5.9,7.8-8.9,11.7
			c-0.4,0.6-0.9,1.1-1.3,1.7c-0.8-3-1.6-5.6-2.2-8.3c-2.9-11.6-7.7-26.7-18.6-39.5c-8.9-10.5-20-15.8-32.8-15.8
			c-2.9,0-5.8,0.3-8.8,0.8c-8.3,1.5-15.8,6.8-21.1,14.9c-5.7,8.7-10.6,17.7-16,27.8c-2.6,4.9-4.7,7.3-9,7.3l-0.2,0
			c-4.1-0.1-6.5-2.1-8.8-7.6c-5.6-13.5-12.5-27.4-25.1-37.6c-10.8-8.8-22.9-13.2-36.1-13.2c-3.2,0-6.5,0.3-9.9,0.8
			c-10.7,1.7-19.8,5.8-27.8,12.6c-6.7,5.7-12.7,13.4-18.3,23.5c-1.7,3.1-3.2,6.3-4.5,9.4c-0.9,2-1.8,4.1-2.8,6
			c-2.2,4.5-4.3,6.2-7.8,6.3l-0.2,0c-3.3,0-5.2-1.5-7.6-6.1c-1.2-2.3-2.4-4.7-3.5-7c-3-6.1-6.2-12.4-9.9-18.2
			c-8.4-13.2-19.9-21.8-34.1-25.5c-4.9-1.3-9.9-1.9-14.9-1.9c-17.6,0-34.1,7.9-45.4,21.8c-9.5,11.6-16.3,25.7-21.6,44.1
			c-1.4,5.1-2.7,10.2-3.9,15.3c-0.1-0.4-0.2-0.7-0.3-1.1c-2.6-8.8-5.3-17.8-8.3-26.6c-4.1-11.7-10.2-22.6-18.3-32.4
			c-7.1-8.6-17.1-13.3-28.3-13.3c-8.3,0-16.6,2.6-23.4,7.4c-13.9,9.7-20.3,24-24.2,35.4c-1.5,4.4-2.7,9-3.7,13.4
			c-0.6,2.4-1.2,4.9-1.9,7.4c0,0.1-0.1,0.3-0.1,0.4c-0.9-1.3-1.8-2.5-2.7-3.8c-4.1-5.7-8-11.1-12.1-16.4c-1.7-2.2-3.4-4.6-5.1-6.8
			c-7-9.5-14.1-19.3-24.8-25.7c-7.2-4.3-15.3-7.3-22.7-8.4c-1-0.1-2-0.2-3-0.2c-10.4,0-19.1,7.8-21.5,19.4
			c-4,18.7-3.9,37.7-3.3,52.3c-2.3-2.1-4.6-4.3-6.8-6.5c-5.6-5.4-11.4-11-17.4-16.2c-3-2.7-7.8-6.2-13.4-6.2c-2.8,0-5.7,0.9-8.4,2.6
			c-0.5-0.2-1.1-0.5-1.3-0.7c-8.4-8.4-12.6-18.8-12.2-30.1c0.5-14.4,1.8-29.1,3.1-43.3c0.4-4.8,0.9-9.8,1.3-14.7
			c0.6-6.6,1.2-13.7,2.4-20.5c0.2-1.2,1.5-2.9,2.1-3.2c3-1.1,5.9-2.2,8.9-3.3c18.3-6.9,37.1-14,55.9-20.1c18-5.9,36.3-11,54.3-15.2
			c10-2.3,20.4-3.9,30.5-5.4c5.2-0.8,10.6-1.6,15.9-2.5c18.7-3.2,38.6-4.8,60.9-4.8c5.3,0,10.9,0.1,16.6,0.3
			c25.9,0.8,50.5,4.3,73.2,10.3c30.1,8,53.7,18.1,74,32C476.2,329.9,478.2,330.1,479.5,330.1 M238,524.8c0.3-3.6,0.5-7.2,0.8-10.7
			c0.7-10,1.4-20.3,2.9-30.3c2.8-18.7,6.3-36.9,17.2-52.3c6.9-9.8,15-14.5,24.7-14.5c1.5,0,3,0.1,4.6,0.3c5.5,0.8,10.4,4,13.6,9
			c5.4,8.6,11.6,18.8,15.8,29.4c6.7,16.8,10.9,35.5,12.5,55.6c0.1,1.8,0.3,3.7,0.5,5.5c0.5,5.5,1,11.1,1.1,16.7
			c0.3,10.2-3.2,15-13.6,18.5c-10.3,3.5-21.3,5.3-32.6,5.3c-6.7,0-13.8-0.6-21-1.9c-5.9-1-11.6-3.4-18.4-6.4
			c-5.8-2.5-8.4-6.7-8-12.8c0.1-2.1,0.1-4.1,0.1-6.1c0-0.9,0-1.7,0-2.6v-2.7L238,524.8z M768.4,575.5c-3.4,0-6.7-1.1-9.9-3.2
			c-10.7-7.1-22.8-16.2-31.5-29c-9.6-14.2-9.9-29.7-0.9-44.8c9.8-16.5,21.3-32.1,32.2-46.6c6.5-8.7,14.5-17.5,23.5-26.1
			c3.2-3.1,8.5-4.8,13.8-6.3c1-0.3,1.9-0.4,2.8-0.4c5.3,0,9.2,4.8,10,12.3c0.8,7.4,1.3,15,1.8,21.7c0.2,2.8,0.4,5.5,0.6,8
			c-0.3,4.6-0.5,9.1-0.7,13.5c-0.4,9.5-0.8,18.5-1.9,27.3l-0.3,2.9c-1.7,14.7-3.6,29.9-10.1,43.5c-4.2,8.8-9.6,18.6-19.4,24.2
			C775.1,574.5,771.7,575.5,768.4,575.5 M190.9,575.9c-11.8-1.2-18-9.2-23.8-18.1c-7.8-11.9-12.4-26.2-13.9-43.7
			c-2-22.6-3-45.3-3.6-62.6c-0.3-7,0.8-14.3,2-21.2c1.3-7.4,4.8-11.2,10.5-11.2c2.4,0,5.2,0.7,8.3,2c10.7,4.6,17.9,13,24.1,21.3
			c1.7,2.3,3.4,4.6,5.2,6.9c8.5,11.4,17.3,23.2,25.7,35c0.9,1.3,1.4,4,1.3,7c-0.3,7.2-0.8,14.6-1.3,21.7c-0.5,8.2-1.1,16.8-1.4,25.2
			c-0.1,2.4,0.6,4.6,1.3,6.6c0.4,1.2,0.8,2.4,1,3.5c0.2,1.4,0.1,2.7-0.1,3.2c-7.5,6.6-16.2,14.1-25.2,20.9c-1.7,1.2-4.1,1.9-6.6,2.6
			C193.1,575.3,192,575.6,190.9,575.9 M408.2,422.5c9.8,0,19.5,0,28.9-0.1h0c0.7,0,1,0.1,1.2,0.1c0,0.1,0.1,0.4,0.1,0.9
			c-0.1,6.6-0.1,12.7,0,18.6c0,1-0.2,1.4-0.2,1.4c0,0-0.3,0.2-1.5,0.2l-0.2,0c-3.5-0.1-7.3-0.1-11.9-0.1c-2.6,0-5.2,0-7.8,0
			c-2.6,0-5.2,0-7.8,0h-0.2c-2.5,0-5,0-7.5,0c-2.5,0-5,0-7.5,0c-4.4,0-8,0-11.3,0.1l-0.2,0c-1.2,0-1.7-0.2-1.8-0.3
			c-0.1-0.1-0.3-0.6-0.3-1.8c0.1-5.3,0.1-10.9,0-17.6c0-0.7,0.1-1.1,0.1-1.2c0.1,0,0.5-0.2,1.3-0.2
			C390.6,422.5,399.6,422.5,408.2,422.5 M656.1,429.5c0.6-0.2,2.1-0.2,2.8-0.2l0.3,0c5.4,0,11.3-0.1,18.5-0.1c4,0,8.1,0,12.1,0
			l4.8,0c5.3,0,8.5,3,9.2,8.4c0.5,3.8,0.3,5,0.1,5.4c-0.3,0.2-1.4,0.5-5.3,0.5l-19.6,0h-14.4l-14.4,0h-2.5
			C649.7,438,652.4,433.5,656.1,429.5 M651.2,458.2c0.2-0.1,0.6-0.2,1.4-0.2c0.1,0,0.3,0,0.5,0c2.6,0.1,5.5,0.1,8.9,0.1
			c2.1,0,4.2,0,6.3,0c2.1,0,4.2,0,6.3,0c2.1,0,4.2,0,6.2,0c2.3,0,4.6,0,6.9,0c3.6,0,6.6,0,9.4-0.1c0.1,0,0.2,0,0.2,0
			c0.6,0,1,0.1,1.2,0.1c0,0.2,0,0.6,0,1.2c-0.6,4.3-1.1,8.7-1.7,12.9c-1,7.7-2,15.6-3.2,23.4c-0.2,0.3-0.7,0.7-1.1,0.9
			c-6,0.1-11.9,0.1-18.5,0.1h-1.8c-5.5,0-10.4,0-15.4,0.1l-0.1,0c-1.1,0-1.6,0-1.9-2.2c-0.7-5.8-1.3-11.7-1.9-17.4
			c-0.6-5.7-1.2-11.5-1.9-17.3C651.1,458.9,651.1,458.4,651.2,458.2 M385.7,458.2c0,0,0.1,0,0.1,0c5.7,0,11.4,0,17,0
			c9.6,0,19.6,0,29.4-0.1h0c0.3,0,0.5,0,0.6,0c0,0.2,0,0.5,0,1c-0.3,3.1-0.6,6.2-0.9,9.2c-0.9,8.9-1.8,18.1-3,27
			c-0.3,0.4-1.1,1-1.5,1.1c-5.6,0.1-11.5,0.2-18,0.2c-5.4,0-11.4,0-18.2-0.1c-0.2,0-0.5-0.2-0.8-0.4c-1.6-11.6-3-23.4-4.4-34.9
			L385.7,458.2z M812.9,577.3c-1-1.1-2-2.2-3.1-3.3c-2.1-2.1-4.4-4.4-4.8-6.4c-0.3-1.5,1.3-4.3,2.6-6.6c0.6-1.1,1.3-2.3,1.9-3.5
			c5.3-11.3,8.7-23.1,10.1-35.1c0.1-1.2,0.3-2.3,0.4-3.5c0.5-4.6,1-9.4,2-13.9c0.7-3.2,2-6,3.6-7.7c7.7-8.1,15.9-16.1,23.7-23.8
			c2.5-2.5,5-4.9,7.5-7.4c0.4-0.4,1-1,1.3-1.1c1-0.4,2-0.7,3.1-1.1c0.3,0.9,0.5,1.8,0.7,2.7c0.1,0.4,0.1,1,0,1.7c0,0.4,0,0.8,0,1.2
			v2.5l0.1,0c-0.3,2-0.7,4-1,6.1c-1.1,6.7-2.3,13.6-3.6,20.4c-0.4,2.1-0.7,4.1-1.1,6.2c-1.5,8.2-3,16.6-4.9,24.9
			c-0.6,2.6-1.2,5.3-1.7,7.9c-2.5,11.6-5,23.7-10.8,34.3l0,0.1c-0.7,1.3-1.3,2.4-2.1,3.5c-3.9,5.7-7.7,8.4-11.7,8.4
			c-3.4,0-7.2-2-11.5-5.9C813.3,577.6,813,577.4,812.9,577.3 M97.1,468.8l1.4-4.6c1.8,0.6,3.5,1.2,4.5,2.1
			c11.7,11.2,22.2,21.3,32.1,32.3c2.3,2.5,2.9,8.2,3.2,11.2c2.1,18.8,5.6,38.5,16.7,56c0.1,0.2,0.3,0.8,0.3,1.2
			c-1,1.1-1.9,2.2-2.9,3.2c-3.8,4.3-7.7,8.7-12.2,11.8c-2,1.4-3.8,2-5.5,2c-2.7,0-5.6-1.6-8.6-5c-5.7-6.4-9.6-14.7-12.2-26.2
			c-3.2-14.1-6-28.5-8.8-42.4c-0.6-3.2-1.3-6.3-1.9-9.5c-1.5-7.5-2.9-15.1-4.3-22.5C98.3,475.1,97.7,472,97.1,468.8"/>
		<path class="st1" d="M550.3,720.9c-3.4,0-6.7-0.1-10-0.3c-17.5-1-34.4-2.6-50.3-10.6c-1.6-0.8-3-1.9-4.4-3c-2.1-1.6-4-3.1-5.7-3.1
			c-1.8,0-3.7,1.5-5.8,3c-1.4,1.1-2.9,2.2-4.5,2.9c-11.1,5.3-23.3,8.4-37.5,9.3c-2.8,0.2-5.7,0.5-8.5,0.7c-5.1,0.5-10.3,1-15.5,1h0
			c-0.7,0-1.3,0-2,0c-17.5-0.5-36.2-1.8-53.7-8.8c-14.3-5.7-21.9-12.1-21-29.5c0.2-3.6,0.3-7.3,0.4-10.9c0.3-8.1,0.6-16.5,1.6-24.6
			c3-22.9,6.5-45.2,15.7-66.4c6.3-14.4,16-32.2,36-41.5c6.8-3.2,14.6-4.8,22.6-4.8c14.1,0,27.9,5,37.7,13.8
			c11.8,10.5,20.2,24.5,26.4,44c2.3,7.3,4.2,14.8,6.1,22.1c0.5,2,1,4.1,1.6,6.1c0,0,1.8-7.4,2.6-10.7c4.7-19.6,11.8-41.9,29-59.2
			c10.2-10.2,24.6-16.1,39.4-16.1c17.6,0,34.1,8.2,45.3,22.4c9.1,11.6,15.6,25.1,20,41.4c1.2,4.5,2.3,9.2,3.3,13.7
			c0.7,3,1.4,6.1,2.1,9.1c0.1,0.3,0.2,0.8,0.6,1.3c0.1-0.5,0.2-0.9,0.3-1.4c0.6-2.7,1.3-5.6,2-8.3c5.7-21.5,11.9-39,23.6-54.4
			c10-13.2,21.7-15.9,29.7-15.9c11.7,0,24,6,32.1,15.8c11.5,13.9,16.4,30.1,19.6,44.2c5.5,24,6.4,48.4,7.2,72
			c0.4,11.7-4.9,20-16.6,26.1c-8.5,4.4-18.1,6.9-30.2,7.8c-5.6,0.4-10.7,0.6-15.4,0.6c-19.1,0-34-3.6-46.8-11.2
			c-1.4,1.2-2.8,2.5-4.1,3.7c-3.6,3.3-7.3,6.8-11.6,8.6c-10.8,4.5-21.5,7.6-31.7,9.1C569.6,720.1,559.7,720.9,550.3,720.9
			 M408.6,545.2c-4.5,0-9.1,0.7-13.6,2.1c-10.7,3.4-19.6,10.6-27.1,22.2c-9.8,15.1-16.1,33.1-19.4,55.1c-2,13.3-3,27.1-4,40.4
			c-0.5,6.7-1,13.7-1.6,20.6c-0.6,6.1,2.1,10.6,8,13.2c5.6,2.5,13.1,5.7,20.6,7.2c12.2,2.5,24.4,3.7,36.5,3.7
			c9.1,0,18.2-0.7,27.1-2.1c8.3-1.3,17.2-3.6,28-7.2c8.2-2.7,11.7-7.8,10.5-15.6c-0.4-2.5-0.3-5-0.2-7.5c0-1.1,0.1-2.2,0.1-3.2
			c-0.3-24-3.5-47.6-9.5-70c-4.9-18-11.3-31.3-20.4-41.9C434.3,551.3,421.8,545.2,408.6,545.2 M485.8,669.5v1.3c0,1.4,0,2.8,0,4.2
			c0,3.1,0,6.2,0,9.3c-0.2,9.6,1.5,12.3,10.3,16.1c14.5,6.3,30.1,7.9,42.1,8.7c4.7,0.3,9.3,0.4,13.8,0.4h0c12.9,0,24.5-1.2,35.5-3.7
			c7.3-1.6,14.5-4.9,21.5-8l1.7-0.8c3.7-1.7,5.5-5.2,5.4-10.6c-0.9-27.5-2.3-54.4-9.5-80.5c-3.7-13.4-8.9-28.9-19.5-42.4
			c-9.5-12.2-21.6-18.4-36-18.4l-0.2,0c-16,0-29.2,7.4-39.3,22c-13.4,19.4-18.4,41.5-21.5,60.6c-1.6,9.8-2.6,19.9-3.5,29.6
			c-0.4,3.9-0.8,7.9-1.2,11.9L485.8,669.5z M677.5,553.2c-7.2,0-13.7,3.2-18.7,9.3c-9.2,11.1-14.5,24.1-18.4,35.4
			c-7.2,20.5-11.3,43-12.6,68.7c0,0.4,0,0.9,0,1.5c0,1.2,0.1,2.4-0.1,3.7c-1.5,9.5,2.6,15.7,12.8,19.5c11,4.1,22.8,6.2,35.2,6.2h0
			c4.6,0,9.3-0.3,14.1-0.9c8.3-1,16.5-3.8,23.5-6.3c8.6-3.1,12.5-9.1,11.7-18c-0.7-7.7-1.5-16.7-1.6-25.5
			c-0.4-19.4-3.5-38.5-9.2-56.8c-4.2-13.4-9.9-22.8-17.9-29.5C690.7,555.9,684,553.2,677.5,553.2"/>
		<path class="st1" d="M550.6,535.6c16.1,0,32.4,7,44.1,21.8c9.6,12.2,15.7,26,19.7,40.9c2,7.5,3.5,15.1,5.3,22.7
			c0.3,1.3,1.2,2.5,3,3.7c1-4,1.8-8.1,2.9-12.1c5.1-19.1,11.2-37.8,23.3-53.9c8.3-10.9,18.6-15.4,28.6-15.4
			c11.9,0,23.5,6.3,30.9,15.2c10.6,12.8,15.7,27.8,19.3,43.6c5.4,23.6,6.3,47.7,7.2,71.8c0.4,12.1-5.7,19.5-15.8,24.7
			c-9.3,4.8-19.4,6.9-29.6,7.7c-5.1,0.4-10.2,0.6-15.3,0.6c-16.6,0-32.6-2.7-46.9-11.5c-5.5,4.5-10.2,10.3-16.2,12.8
			c-10,4.2-20.7,7.4-31.3,9c-9.7,1.4-19.6,2.2-29.4,2.2c-3.3,0-6.6-0.1-9.9-0.3c-16.9-1-34.1-2.6-49.7-10.4
			c-3.8-1.9-7.2-6.3-10.8-6.3c0,0,0,0,0,0c-3.6,0-7.1,4.3-10.9,6.1c-11.6,5.6-24.1,8.3-36.9,9.2c-8,0.5-15.9,1.7-23.8,1.7
			c-0.7,0-1.3,0-2,0c-18.1-0.5-36.1-1.9-53.2-8.7c-13.8-5.5-20.9-11.4-20-28c0.6-11.8,0.5-23.7,2.1-35.4c3-22.5,6.5-44.9,15.6-66
			c7.5-17.2,17.4-32.4,35.3-40.8c6.8-3.2,14.3-4.7,22-4.7c13.3,0,26.9,4.6,36.7,13.4c13.2,11.7,20.7,26.9,25.9,43.3
			c3.3,10.5,5.8,21.3,8.7,31.9c0.3,0.1,0.6,0.2,0.9,0.4c1.2-5,2.4-10,3.6-15c5.2-21.6,12.4-42.3,28.6-58.5
			C522.5,541.1,536.5,535.6,550.6,535.6 M407.9,711.2c9.1,0,18.2-0.7,27.3-2.1c9.6-1.5,19-4.2,28.2-7.3c7.8-2.6,12.9-7.9,11.5-17.2
			c-0.5-3.4-0.1-7-0.1-10.5c-0.3-23.9-3.3-47.3-9.6-70.3c-4.2-15.4-10.1-30.1-20.7-42.5c-9.6-11.3-22.5-17.5-36.1-17.5
			c-4.6,0-9.4,0.7-14.1,2.2c-12.2,3.8-21.1,12.2-27.9,22.8c-11,16.9-16.7,36.1-19.6,55.7c-3,20.2-3.7,40.7-5.6,61.1
			c-0.7,7.2,2.9,12,8.8,14.7c6.7,3,13.7,5.8,20.9,7.3C383.3,709.9,395.6,711.2,407.9,711.2 M551.9,711.1c12,0,24-1.1,35.8-3.7
			c8.1-1.8,15.8-5.4,23.5-8.8c4.8-2.2,6.4-6.8,6.3-12c-0.9-27.2-2.2-54.3-9.6-80.9c-4.3-15.5-9.8-30.2-19.7-42.9
			c-9.4-12-21.9-18.9-37.2-19c-0.1,0-0.1,0-0.2,0c-17.5,0-30.8,8.5-40.6,22.7c-12.7,18.4-18.2,39.6-21.8,61.2
			c-2.3,14.2-3.3,28.7-4.9,43.1c0.2,0,0.4,0.1,0.6,0.1c0,4.5,0.1,9,0,13.5c-0.2,10.1,1.8,13.5,11.2,17.5c13.6,5.9,28,7.9,42.6,8.8
			C542.7,711,547.3,711.1,551.9,711.1 M675.8,699c4.8,0,9.5-0.3,14.3-0.9c8.1-1,16.1-3.6,23.8-6.4c8.8-3.2,13.6-9.5,12.7-19.5
			c-0.8-8.4-1.5-16.9-1.6-25.4c-0.4-19.5-3.5-38.6-9.3-57.2c-3.6-11.5-8.9-22.2-18.4-30.2c-5.8-4.8-12.8-7.7-19.8-7.7
			c-7.1,0-14.1,2.9-19.9,9.8c-8.8,10.7-14.2,22.9-18.7,35.8c-7.8,22.4-11.5,45.5-12.6,69.1c0,1.7,0.2,3.4,0,5
			c-1.8,11.2,4,17.5,13.8,21.2C651.7,697.1,663.6,699,675.8,699 M550.6,532.6c-15.2,0-29.9,6-40.5,16.5
			c-17.5,17.5-24.7,40.1-29.4,59.9c-0.4,1.6-0.8,3.2-1.2,4.9c0-0.1,0-0.2-0.1-0.2c-1.9-7.3-3.8-14.8-6.1-22.2
			c-6.3-19.8-14.8-34-26.8-44.7c-10.1-9-24.2-14.1-38.7-14.1c-8.3,0-16.3,1.7-23.3,5c-20.4,9.6-30.4,27.6-36.7,42.3
			c-9.3,21.4-12.8,43.8-15.8,66.8c-1.1,8.2-1.4,16.6-1.7,24.8c-0.1,3.6-0.2,7.3-0.4,10.9c-1,18.2,7.3,25.2,21.9,31
			c17.8,7.1,36.5,8.5,54.2,8.9c0.7,0,1.4,0,2.1,0c5.2,0,10.5-0.5,15.6-1c2.8-0.3,5.6-0.5,8.4-0.7c14.3-0.9,26.8-4,38-9.5
			c1.7-0.8,3.2-2,4.7-3.1c1.8-1.3,3.6-2.7,4.9-2.7c1.2,0,3.1,1.4,4.8,2.8c1.5,1.1,3,2.3,4.7,3.2c16.1,8.1,34,9.7,50.9,10.7
			c3.3,0.2,6.7,0.3,10.1,0.3c9.5,0,19.5-0.8,29.8-2.3c10.3-1.5,21.1-4.6,32.1-9.2c4.6-1.9,8.4-5.5,12.1-8.9c1.1-1,2.2-2,3.3-3
			c12.8,7.4,27.7,10.8,46.6,10.8c4.8,0,9.8-0.2,15.5-0.7c12.2-0.9,22.2-3.6,30.8-8c12.2-6.3,17.8-15.3,17.4-27.4
			c-0.8-23.7-1.7-48.1-7.3-72.3c-3.3-14.2-8.2-30.7-19.9-44.8c-8.3-10.1-21.1-16.3-33.2-16.3c-8.4,0-20.6,2.9-30.9,16.5
			c-11.8,15.6-18.1,33.2-23.8,54.9c-0.4,1.4-0.7,2.8-1,4.2c-0.4-1.6-0.7-3.2-1.1-4.7c-1-4.5-2-9.2-3.3-13.7
			c-4.4-16.5-11.1-30.2-20.3-41.9C585.6,541,568.7,532.6,550.6,532.6 M407.9,708.2c-11.9,0-24.1-1.2-36.1-3.7
			c-7.4-1.5-14.7-4.6-20.3-7.1c-5.3-2.4-7.6-6.2-7.1-11.7c0.6-6.9,1.1-13.8,1.6-20.6c1-13.3,2-27,4-40.3
			c3.3-21.8,9.5-39.6,19.2-54.5c7.3-11.2,15.9-18.3,26.3-21.5c4.3-1.4,8.8-2.1,13.2-2.1c12.8,0,24.8,5.8,33.8,16.4
			c8.9,10.4,15.2,23.6,20.1,41.4c6,22.3,9.2,45.7,9.4,69.6c0,1,0,2.1-0.1,3.2c-0.1,2.5-0.2,5.1,0.2,7.7c1,7-2,11.5-9.5,14
			c-10.7,3.6-19.6,5.8-27.8,7.1C425.9,707.5,416.9,708.2,407.9,708.2 M487,668.2c0.4-3.5,0.7-7,1-10.4c0.9-9.7,1.9-19.8,3.5-29.5
			c3.1-18.9,8-40.8,21.3-60c9.8-14.2,22.6-21.4,38.1-21.4h0.2c13.9,0,25.6,6,34.8,17.8c10.4,13.3,15.5,28.6,19.2,41.9
			c7.2,26,8.6,52.7,9.5,80.2c0.2,7.1-3.3,8.7-4.5,9.2l-1.7,0.8c-6.9,3.1-14,6.3-21.2,7.9c-10.9,2.4-22.4,3.6-35.2,3.6
			c-4.4,0-9-0.1-13.7-0.4c-11.9-0.7-27.3-2.4-41.6-8.6c-8.2-3.5-9.6-5.7-9.4-14.7c0.1-3.1,0-6.3,0-9.4c0-1.4,0-2.8,0-4.2v-2.7
			L487,668.2z M629.3,666.6c1.3-25.5,5.3-47.8,12.5-68.2c3.9-11.1,9.1-24,18.2-34.9c4.7-5.7,10.8-8.7,17.5-8.7
			c6.1,0,12.5,2.5,17.9,7c7.7,6.5,13.3,15.6,17.4,28.8c5.7,18.2,8.8,37.2,9.2,56.4c0.2,8.8,0.9,17.8,1.6,25.6
			c0.7,8.2-2.8,13.5-10.7,16.4c-6.9,2.5-15,5.3-23.2,6.2c-4.7,0.6-9.4,0.8-13.9,0.8c-12.2,0-23.8-2.1-34.6-6.1
			c-9.6-3.6-13.2-9.1-11.9-17.9c0.2-1.4,0.2-2.8,0.1-4C629.4,667.6,629.3,667.1,629.3,666.6"/>
		<path class="st2" d="M337.7,487.5c-1.2-4-2.4-7.9-3.6-11.9c-2.7-9.1-5.2-17.7-8.2-26.3c-3.9-11.2-9.8-21.6-17.5-31
			c-6.2-7.5-15-11.7-24.8-11.7c-7.3,0-14.7,2.3-20.8,6.5c-10.1,7-17,17.2-22.6,33.2c-1.5,4.2-2.6,8.7-3.6,13c-0.6,2.5-1.2,5-1.9,7.5
			c-0.3,1.2-0.9,2.3-1.5,3.6c-0.3,0.6-0.6,1.3-1,2.1l-1,2.4l-1.5-2.1c-2-2.7-3.9-5.4-5.8-8c-4.1-5.7-8-11.1-12-16.3
			c-1.7-2.3-3.5-4.6-5.1-6.9c-6.7-9.1-13.6-18.6-23.5-24.5c-6.7-4-14.2-6.8-21-7.8c-0.8-0.1-1.6-0.2-2.4-0.2
			c-8.2,0-15.1,6.4-17.1,15.8c-3.9,18.6-3.8,36.8-3.1,52.2c0,0.9,0,1.9,0,3.2c0,0.7,0,1.6,0,2.6v3.2l-2.5-2.1
			c-0.8-0.7-1.4-1.2-1.9-1.6c-0.9-0.8-1.6-1.4-2.3-2c-2.6-2.4-5.2-4.9-7.7-7.4c-5.6-5.4-11.4-10.9-17.3-16.1
			c-4-3.5-7.3-5.1-10.5-5.1c-2.2,0-4.4,0.8-6.6,2.3c-0.4,0.3-0.9,0.4-1.5,0.4c-1.5,0-3.7-1-4.9-2.1c-9.3-9.3-13.9-20.9-13.5-33.5
			c0.5-14.5,1.9-29.3,3.2-43.5c0.4-4.9,0.9-9.8,1.3-14.7c0.6-6.7,1.3-13.9,2.5-20.9c0.4-2.5,2.5-5.7,4.9-6.6c3-1.1,5.9-2.2,8.9-3.3
			c18.3-6.9,37.2-14,56.1-20.2c18.1-5.9,36.5-11.1,54.7-15.3c10.2-2.4,20.7-4,30.8-5.5c5.2-0.8,10.6-1.6,15.8-2.5
			c18.9-3.3,39.1-4.9,61.7-4.9c5.4,0,11,0.1,16.7,0.3c26.2,0.8,51.2,4.3,74.2,10.4c30.6,8.1,54.6,18.5,75.4,32.6
			c0.3,0.2,1.1,0.5,2.3,0.5c1.4,0,2.8-0.3,3.6-0.8c18.1-12,38.6-21.4,62.6-28.6c31.8-9.6,65-14.3,101.2-14.3
			c7.4,0,14.9,0.2,22.5,0.6c27.8,1.5,51.8,4.6,73.4,9.5l4.7,1.1c20.1,4.6,40.9,9.4,60.9,15.6c17.5,5.4,34.9,12.1,51.7,18.5
			c5.5,2.1,11,4.2,16.5,6.3c2.3,0.9,5,3.5,5.3,5.9c2.9,25.8,5.2,47.3,7,67.5c0.8,8.7,1.1,21.7-5,33.5c-2.4,4.6-5.6,8.7-9,12.8
			c-0.9,1.1-2.8,1.5-4.2,1.5c-0.7,0-1.6-0.1-2.4-0.5c-2.2-1.2-4.3-1.7-6.2-1.7c-2.1,0-4,0.7-5.7,2.1c-7.2,6.1-14.4,12.6-21.3,18.9
			c-2.8,2.5-5.5,5-8.3,7.5c-0.6,0.5-1.2,1.1-2,1.9l-3.9,3.7l-0.3-3c-0.1-0.9-0.2-1.7-0.3-2.4c-0.1-1.3-0.3-2.3-0.3-3.4
			c-0.1-4.5-0.2-9-0.3-13.6c-0.2-10-0.4-20.2-1.1-30.3c-0.6-8.6-2.1-15.2-8-19.9c-3.7-3-7.7-4.4-12.3-4.4c-3.4,0-7.2,0.8-11.7,2.5
			c-8.8,3.3-16.2,8.5-21.8,15.6c-7.3,9.2-14.5,18.6-21.4,27.8c-2.9,3.9-5.9,7.8-8.9,11.7l-6.8,9l-0.8-2.9c-0.5-1.8-1-3.5-1.4-5.1
			c-0.9-3.3-1.7-6.2-2.5-9.2c-4.2-16.6-9.6-28.2-17.7-37.7c-8-9.5-17.9-14.3-29.3-14.3c-2.6,0-5.3,0.2-8,0.7
			c-7,1.3-13.5,5.8-18.1,12.9c-5.6,8.5-10.5,17.5-15.8,27.4c-2.6,4.9-5.8,9.7-12.9,9.7l-0.3,0c-7.6-0.1-10.9-5.6-12.9-10.4
			c-5.4-12.9-12-26.3-23.8-35.9c-10.1-8.2-21-12.2-33.2-12.2c-3,0-6.1,0.2-9.2,0.7c-18.2,2.8-31.4,13.2-42.9,33.8
			c-1.6,2.9-3,6-4.4,9.1c-0.9,2-1.8,4.1-2.9,6.2c-2,4-5.1,8.7-11.8,8.8l-0.2,0c-6.3,0-9.3-4.1-11.6-8.5c-1.2-2.3-2.4-4.7-3.6-7
			c-3-6-6.1-12.1-9.7-17.8c-7.8-12.2-18.4-20.1-31.5-23.6c-4.5-1.2-9.1-1.8-13.7-1.8c-16.2,0-31.5,7.3-41.9,20.1
			c-9.1,11.1-15.7,24.7-20.7,42.5c-1.7,5.9-3.1,11.9-4.4,17.8c-0.6,2.7-1.3,5.5-1.9,8.3l-1.3,5.3L337.7,487.5z"/>
		<path class="st1" d="M646.9,283.3c7.5,0,14.9,0.2,22.4,0.6c24.6,1.3,49.1,4,73.1,9.5c22,5,44,10,65.5,16.6
			c23,7.2,45.5,16.3,68.1,24.7c1.8,0.7,4.1,2.9,4.3,4.6c2.6,22.5,5,45,7,67.5c1,11.2,0.5,22.4-4.8,32.7c-2.3,4.5-5.6,8.6-8.8,12.5
			c-0.5,0.6-1.8,0.9-3,0.9c-0.7,0-1.3-0.1-1.7-0.3c-2.3-1.2-4.7-1.9-6.9-1.9c-2.4,0-4.6,0.8-6.7,2.5c-10.1,8.5-19.8,17.6-29.6,26.4
			c-0.9,0.9-1.9,1.7-3.7,3.5c-0.3-2.6-0.5-4.1-0.6-5.6c-0.4-14.6-0.4-29.3-1.4-43.9c-0.5-7.7-1.8-15.6-8.5-21
			c-4.3-3.4-8.7-4.8-13.3-4.8c-4,0-8.1,1-12.2,2.6c-8.9,3.3-16.5,8.7-22.4,16.1c-10.3,13-20.2,26.3-30.3,39.5
			c-1.4,1.8-2.8,3.6-5,6.6c-1.5-5.5-2.8-9.8-3.9-14.2c-3.5-13.9-8.5-27.1-18-38.3c-8.4-9.9-18.7-14.8-30.5-14.8
			c-2.7,0-5.5,0.3-8.3,0.8c-8,1.4-14.6,6.8-19.1,13.5c-5.8,8.8-10.8,18.2-15.8,27.5c-2.6,4.9-5.4,8.9-11.6,8.9c-0.1,0-0.2,0-0.3,0
			c-6.4-0.1-9.4-4.3-11.5-9.5c-5.7-13.7-12.5-26.9-24.3-36.5c-10.2-8.3-21.5-12.6-34.2-12.6c-3.1,0-6.2,0.2-9.4,0.7
			c-21.4,3.3-34.2,16.9-44,34.5c-2.7,4.9-4.8,10.2-7.3,15.3c-2.1,4.3-4.9,7.8-10.5,7.9c-0.1,0-0.1,0-0.2,0c-5.4,0-8.1-3.4-10.3-7.7
			c-4.3-8.4-8.3-17-13.3-25c-7.6-12-18.5-20.6-32.4-24.2c-4.7-1.2-9.4-1.8-14.1-1.8c-16.2,0-32,7.1-43.1,20.7
			c-10.4,12.7-16.6,27.5-21,43.1c-2.4,8.6-4.2,17.3-6.4,26.2c-4-13-7.5-25.8-11.8-38.3c-4-11.5-9.9-22-17.7-31.4
			c-7-8.6-16.5-12.2-26-12.2c-7.8,0-15.4,2.5-21.6,6.8c-12,8.4-18.5,20.6-23.1,33.9c-2.3,6.7-3.6,13.7-5.5,20.6
			c-0.5,1.7-1.4,3.2-2.4,5.6c-6.3-8.6-11.9-16.6-17.8-24.3c-8.8-11.4-16.4-24.2-29-31.8c-6.5-3.9-14.1-6.9-21.6-8
			c-0.9-0.1-1.8-0.2-2.6-0.2c-9.4,0-16.5,7.3-18.6,17c-3.7,17.4-3.9,35-3.2,52.6c0.1,1.4,0,2.8,0,5.7c-2.1-1.8-3.2-2.6-4.2-3.6
			c-8.3-7.8-16.4-15.9-25-23.5c-3.5-3-7.3-5.5-11.5-5.5c-2.3,0-4.8,0.8-7.5,2.6c-0.1,0.1-0.4,0.1-0.6,0.1c-1.1,0-3-0.9-3.8-1.7
			c-8.9-8.9-13.5-20.1-13.1-32.3c0.7-19.4,2.8-38.8,4.5-58.2c0.6-7,1.3-13.9,2.4-20.8c0.3-2,2.2-4.8,4-5.5
			c21.5-8.1,43.1-16.3,64.9-23.5c17.9-5.9,36.2-11,54.6-15.3c15.3-3.6,31-5.3,46.6-8c20.4-3.5,40.9-4.8,61.4-4.8
			c5.6,0,11.1,0.1,16.7,0.3c25,0.8,49.7,4,73.9,10.4c26.5,7,52,16.8,74.9,32.4c0.7,0.5,1.9,0.7,3.1,0.7c1.6,0,3.3-0.4,4.4-1.1
			c19.3-12.8,40.2-21.8,62.2-28.5C579.1,287.6,612.8,283.3,646.9,283.3 M646.9,280.3c-36.4,0-69.7,4.7-101.6,14.4
			c-24.1,7.3-44.7,16.7-63,28.8c-0.4,0.3-1.5,0.6-2.7,0.6c-0.9,0-1.3-0.2-1.4-0.2c-20.9-14.2-45-24.7-75.9-32.8
			c-23.1-6.1-48.2-9.6-74.6-10.5c-5.7-0.2-11.4-0.3-16.8-0.3c-22.7,0-42.9,1.6-62,4.9c-5.2,0.9-10.6,1.7-15.8,2.5
			c-10.2,1.5-20.7,3.1-30.9,5.5c-18.2,4.2-36.7,9.4-54.8,15.4c-18.9,6.2-37.9,13.3-56.2,20.2c-3,1.1-5.9,2.2-8.9,3.3
			c-3,1.1-5.4,4.9-5.9,7.8c-1.2,7.1-1.9,14.3-2.5,21c-0.4,4.9-0.9,9.9-1.3,14.7c-1.3,14.3-2.6,29-3.2,43.6
			c-0.5,13,4.3,24.9,13.9,34.6c1.2,1.2,3.9,2.6,5.9,2.6c0.9,0,1.7-0.2,2.3-0.7c2-1.4,3.9-2.1,5.7-2.1c2.8,0,5.8,1.5,9.5,4.7
			c5.9,5.2,11.6,10.7,17.2,16c2.5,2.4,5.1,4.9,7.7,7.4c0.7,0.6,1.4,1.2,2.4,2c0.5,0.4,1.2,1,1.9,1.6l4.9,4.2v-6.5c0-1,0-1.9,0-2.6
			c0-1.3,0-2.3,0-3.2c-0.6-15.3-0.8-33.4,3.1-51.8c1.8-8.8,8.1-14.6,15.6-14.6c0.7,0,1.5,0.1,2.2,0.2c6.7,0.9,14,3.6,20.5,7.6
			c9.6,5.8,16.1,14.7,23,24.1c1.7,2.3,3.4,4.6,5.2,6.9c4,5.2,7.9,10.6,12,16.3c1.9,2.6,3.8,5.3,5.8,8l3.1,4.2l2.1-4.8
			c0.3-0.8,0.7-1.4,1-2.1c0.6-1.4,1.2-2.5,1.6-3.9c0.7-2.5,1.3-5.1,1.9-7.5c1-4.3,2.1-8.7,3.6-12.9c5.4-15.6,12.2-25.6,22-32.5
			c5.8-4,12.9-6.3,19.9-6.3c9.3,0,17.7,4,23.6,11.1c7.6,9.2,13.4,19.5,17.2,30.5c3,8.6,5.5,17.2,8.2,26.3c1.1,3.9,2.3,7.9,3.6,11.9
			l3.2,10.5l2.6-10.7c0.7-2.8,1.3-5.6,1.9-8.3c1.4-6.1,2.8-11.9,4.4-17.8c5-17.7,11.5-31,20.5-42c10.1-12.4,25-19.6,40.8-19.6
			c4.5,0,9,0.6,13.4,1.7c12.7,3.3,23,11.1,30.6,22.9c3.6,5.6,6.6,11.7,9.6,17.7c1.2,2.3,2.4,4.7,3.6,7.1c2.4,4.6,5.8,9.3,12.9,9.3
			l0.3,0c7.5-0.1,10.9-5.2,13.1-9.6c1-2.1,2-4.2,2.9-6.2c1.4-3.1,2.7-6.1,4.3-8.9c11.2-20.1,24.1-30.3,41.8-33
			c3.1-0.5,6.1-0.7,9-0.7c11.9,0,22.5,3.9,32.3,11.9c11.6,9.4,18.1,22.5,23.4,35.3c2.2,5.2,5.7,11.2,14.2,11.3c0.1,0,0.2,0,0.3,0
			c8,0,11.6-5.4,14.3-10.5c5.3-9.9,10.1-18.8,15.7-27.3c4.4-6.7,10.5-11,17.1-12.2c2.7-0.5,5.3-0.7,7.8-0.7c11,0,20.5,4.6,28.2,13.7
			c7.9,9.3,13.2,20.7,17.3,37.1c0.8,3,1.6,5.9,2.5,9.2c0.4,1.6,0.9,3.2,1.4,5l1.6,5.9l3.7-4.8l2.1-2.7c1.1-1.5,2-2.7,2.9-3.9
			c3-3.9,5.9-7.8,8.9-11.7c6.9-9.2,14.1-18.6,21.4-27.8c5.4-6.8,12.5-11.9,21.1-15.1c4.3-1.6,7.9-2.4,11.1-2.4
			c4.2,0,7.9,1.3,11.4,4.1c5.4,4.4,6.9,10.7,7.4,18.9c0.7,10,0.9,20.3,1.1,30.2c0.1,4.4,0.2,9,0.3,13.6c0,1.1,0.2,2.2,0.3,3.5
			c0.1,0.7,0.2,1.4,0.3,2.4l0.6,6l4.4-4.1c0.7-0.6,1.2-1.1,1.7-1.6c0.8-0.8,1.4-1.3,2-1.8c2.8-2.5,5.5-5,8.3-7.5
			c6.9-6.3,14-12.8,21.3-18.9c1.4-1.2,2.9-1.8,4.7-1.8c1.7,0,3.6,0.5,5.5,1.6c1.1,0.6,2.3,0.7,3.1,0.7c0.9,0,3.8-0.1,5.3-2
			c3.4-4.2,6.7-8.3,9.2-13c6.3-12.2,5.9-25.4,5.1-34.3c-1.8-20.2-4.1-41.7-7-67.6c-0.3-3-3.5-6.1-6.2-7.1
			c-5.5-2.1-11.1-4.2-16.5-6.2c-16.9-6.4-34.3-13.1-51.8-18.5c-20.1-6.2-40.9-11-61-15.6l-4.7-1.1c-21.6-5-45.7-8.1-73.6-9.5
			C661.8,280.5,654.2,280.3,646.9,280.3"/>
		<path class="st3" d="M285.5,561.7c-7,0-14.3-0.7-21.7-1.9c-7-1.2-13.9-4.3-19.4-6.7c-7.5-3.3-11.2-9.3-10.7-17.2
			c0.1-1.9,0.1-3.8,0.1-5.7c0-0.4,0-0.9,0-1.3l-0.5,0l0.1-1.5c0.4-4.5,0.7-9.1,1-13.6c0.7-10.1,1.4-20.5,2.9-30.7
			c2.9-19.3,6.5-38,18-54.3c7.8-11,17.1-16.4,28.4-16.4c1.7,0,3.5,0.1,5.2,0.4c6.9,1,12.8,4.9,16.7,11.1
			c5.6,8.8,11.8,19.2,16.2,30.2c6.9,17.2,11.2,36.3,12.8,56.9c0.1,1.8,0.3,3.7,0.5,5.5c0.5,5.5,1,11.2,1.1,16.9
			c0.4,12.2-4.4,18.8-16.6,22.9C308.7,559.9,297.3,561.7,285.5,561.7"/>
		<path class="st1" d="M283.6,413.9c1.6,0,3.3,0.1,5,0.4c7,1,12.3,5,15.7,10.4c6.1,9.5,11.9,19.5,16.1,29.9
			c7.2,18,11.1,37,12.7,56.4c0.6,7.4,1.4,14.9,1.6,22.4c0.4,11.9-4.3,17.7-15.6,21.5c-11.1,3.7-22.3,5.4-33.5,5.4
			c-7.1,0-14.3-0.7-21.5-1.9c-6.6-1.1-12.9-3.9-19.1-6.6c-6.6-2.9-10.3-8.1-9.8-15.7c0.2-2.8,0-5.7,0-8.5l-0.4,0
			c1.2-14.7,1.7-29.6,3.9-44.2c2.8-18.8,6.4-37.6,17.7-53.6C263.3,419.9,272,413.9,283.6,413.9 M283.6,410.9v3V410.9L283.6,410.9
			c-11.8,0-21.5,5.6-29.6,17.1c-11.7,16.5-15.3,35.4-18.2,54.9c-1.5,10.2-2.2,20.7-2.9,30.8c-0.3,4.5-0.6,9.1-1,13.6l-0.2,2.9
			l0.6,0.1c0,0,0,0,0,0c0,1.9,0.1,3.8-0.1,5.6c-0.5,8.5,3.6,15.1,11.6,18.7c5.6,2.5,12.6,5.6,19.8,6.8c7.5,1.3,14.9,2,22,2
			c11.9,0,23.5-1.9,34.5-5.6c12.9-4.4,18-11.4,17.6-24.4c-0.2-5.7-0.7-11.4-1.1-17c-0.2-1.8-0.3-3.7-0.5-5.5
			c-1.6-20.7-6-40-12.9-57.3c-4.4-11.1-10.7-21.6-16.3-30.4c-4.2-6.6-10.5-10.7-17.8-11.8C287.2,411,285.3,410.9,283.6,410.9"/>
		<path class="st3" d="M768.4,580c-4.3,0-8.5-1.3-12.4-3.9c-11.1-7.4-23.6-16.8-32.7-30.2c-10.6-15.7-11-32.9-1-49.7
			c9.9-16.7,21.5-32.4,32.5-47c6.7-8.9,14.8-17.9,24.1-26.6c4-3.7,9.9-5.7,15.7-7.3c1.4-0.4,2.7-0.6,4-0.6c7.8,0,13.5,6.4,14.5,16.3
			c0.8,7.5,1.3,15.1,1.8,21.9c0.2,2.9,0.4,5.6,0.6,8.2l0,0.1l0,0.1c-0.3,4.7-0.5,9.2-0.7,13.6c-0.4,9.6-0.9,18.6-1.9,27.6l-0.3,2.9
			c-1.8,15.1-3.6,30.7-10.5,44.9c-4.5,9.4-10.3,19.9-21.2,26.1C776.7,578.8,772.5,580,768.4,580"/>
		<path class="st1" d="M798.5,416.2c6.9,0,12,5.8,13,15c1.1,10.6,1.7,21.2,2.4,30.1c-0.9,14.9-1,28.1-2.6,41.1
			c-1.9,16.1-3.5,32.4-10.7,47.3c-4.9,10.1-10.4,19.7-20.6,25.5c-3.8,2.2-7.7,3.3-11.6,3.3c-3.9,0-7.8-1.2-11.5-3.7
			c-12.3-8.2-23.9-17.4-32.3-29.8c-10.6-15.7-10.3-32.5-1-48c9.7-16.3,21-31.7,32.4-46.9c7.1-9.5,15.3-18.3,23.9-26.5
			c3.8-3.6,9.7-5.5,15-7C796.1,416.3,797.3,416.2,798.5,416.2 M798.5,413.2L798.5,413.2c-1.4,0-2.9,0.2-4.4,0.6
			c-6,1.7-12.1,3.7-16.3,7.7c-9.3,8.8-17.5,17.9-24.2,26.8c-11,14.7-22.6,30.4-32.5,47.2c-5,8.4-7.5,17-7.4,25.5
			c0.1,8.9,2.9,17.5,8.5,25.7c9.2,13.7,21.9,23.1,33.1,30.6c4.1,2.8,8.6,4.2,13.2,4.2c4.4,0,8.8-1.3,13.1-3.7
			c11.3-6.5,17.2-17.2,21.8-26.8c7-14.5,8.9-30.2,10.7-45.4l0.3-2.9c1.1-9,1.5-18.1,1.9-27.7c0.2-4.4,0.4-8.9,0.7-13.6l0-0.2l0-0.2
			c-0.2-2.6-0.4-5.4-0.6-8.2c-0.5-6.8-1-14.4-1.8-21.9C813.4,420.3,806.9,413.2,798.5,413.2"/>
		<path class="st3" d="M191.1,580.5c-14.2-1.1-21.5-10.6-27.9-20.2c-8.2-12.6-13-27.5-14.6-45.7c-2-22.7-3-45.5-3.6-62.8
			c-0.3-7.4,0.8-15,2-22.1c1.6-9.6,6.9-14.9,14.9-14.9c3,0,6.4,0.8,10.1,2.4c11.7,5,19.7,14.3,26,22.8l5.2,6.9
			c8.5,11.4,17.4,23.3,25.8,35.1c2.1,3,2.2,7.4,2.1,9.8c-0.4,7.3-0.8,14.6-1.3,21.8c-0.5,8.2-1.1,16.7-1.4,25.1
			c-0.1,1.5,0.5,3.2,1.1,5c0.5,1.4,0.9,2.8,1.2,4.3c0.2,1.2,0.6,5.3-1.4,7c-7.6,6.7-16.4,14.3-25.7,21.2c-2.4,1.8-5.3,2.5-8.2,3.3
			c-1.3,0.3-2.5,0.7-3.6,1.1l-0.3,0.1L191.1,580.5z"/>
		<path class="st1" d="M162,416.2c2.8,0,6,0.7,9.5,2.2c10.9,4.7,18.5,13.1,25.4,22.3c10.4,13.9,20.9,27.8,30.9,42
			c1.6,2.3,2,5.9,1.8,8.9c-0.8,15.6-2,31.2-2.7,46.8c-0.1,3.1,1.8,6.3,2.2,9.5c0.3,1.9,0.2,4.7-0.9,5.7
			c-8.3,7.3-16.7,14.6-25.6,21.2c-3.1,2.3-7.6,2.8-11.4,4.1c-13.4-1-20.4-10-26.7-19.5c-8.9-13.6-13-29.1-14.4-45
			c-1.8-20.9-2.8-41.8-3.6-62.7c-0.3-7.2,0.8-14.6,2-21.8C150.1,420.9,154.9,416.2,162,416.2 M162,413.2L162,413.2
			c-8.7,0-14.6,5.9-16.4,16.2c-1.2,7.2-2.3,14.9-2,22.4c0.6,17.3,1.6,40.1,3.6,62.9c1.6,18.5,6.5,33.6,14.9,46.4
			c6.5,9.9,14.1,19.7,29,20.9l0.6,0l0.6-0.2c1.1-0.4,2.3-0.7,3.5-1c3-0.8,6.1-1.6,8.7-3.6c9.3-6.9,18.2-14.6,25.8-21.3
			c2.5-2.2,2.1-6.6,1.9-8.4c-0.2-1.6-0.7-3.1-1.2-4.6c-0.5-1.6-1.1-3.2-1-4.4c0.4-8.3,0.9-16.8,1.4-25c0.5-7.1,0.9-14.5,1.3-21.8
			c0.1-2.6,0-7.4-2.4-10.8c-8.4-11.9-17.3-23.7-25.8-35.1c-1.7-2.3-3.4-4.6-5.2-6.9c-6.4-8.6-14.6-18.1-26.6-23.3
			C168.8,414.1,165.2,413.2,162,413.2"/>
		<path class="st3" d="M134.6,588.5c-4.1,0-8-2.1-12-6.5c-6.3-7-10.5-15.9-13.3-28.2c-3.2-14.1-6-28.6-8.8-42.6
			c-0.6-3.2-1.3-6.3-1.9-9.5c-1.5-7.5-2.9-15.2-4.3-22.6c-0.6-3.4-1.3-6.8-1.9-10.2l-0.1-0.4l3.1-10.4l1.6,0.7
			c0.9,0.4,1.8,0.7,2.7,1c2.2,0.8,4.5,1.5,6.2,3.2c11.7,11.2,22.3,21.4,32.4,32.5c3,3.3,3.8,8.8,4.4,13.7c2,18.2,5.4,37.4,16,54.1
			c0.8,1.3,1.6,4.6,0.2,6.2c-1.1,1.2-2.2,2.4-3.3,3.6c-4,4.5-8.1,9.1-13,12.5C140.1,587.6,137.3,588.5,134.6,588.5"/>
		<path class="st1" d="M96.5,460.2c2.9,1.3,6.4,1.9,8.5,3.9c11,10.5,22,21.1,32.3,32.4c2.8,3,3.5,8.4,4,12.9
			c2.1,19.3,5.6,38,16.2,54.8c0.7,1.1,1.1,3.6,0.4,4.4c-5.1,5.5-9.9,11.7-16,15.9c-2.5,1.8-4.9,2.6-7.3,2.6c-3.8,0-7.4-2.2-10.8-6
			c-7.1-7.8-10.7-17.5-12.9-27.5c-3.9-17.3-7.2-34.7-10.7-52c-2.2-10.9-4.1-21.8-6.2-32.8C94.9,465.7,95.7,462.9,96.5,460.2
			 M94.6,456.1l-1,3.3l-2.5,8.4l-0.2,0.7l0.1,0.7c0.6,3.4,1.3,6.8,1.9,10.2c1.4,7.4,2.8,15.1,4.3,22.6c0.6,3.2,1.3,6.3,1.9,9.5
			c2.8,14,5.6,28.5,8.8,42.6c2.8,12.6,7.2,21.7,13.6,28.9c4.3,4.7,8.5,7,13.1,7c3,0,6-1.1,9-3.1c5.1-3.5,9.2-8.2,13.3-12.7
			c1.1-1.2,2.2-2.4,3.3-3.6c2.1-2.2,1-6.4-0.1-8c-10.5-16.5-13.8-35.4-15.8-53.5c-0.6-5.1-1.5-10.9-4.8-14.6
			c-10.1-11.1-20.7-21.3-32.4-32.6c-1.9-1.9-4.5-2.7-6.8-3.5c-0.9-0.3-1.8-0.6-2.6-1L94.6,456.1z"/>
		<path class="st3" d="M825,588.2c-4.6,0-9.4-2.3-14.6-7.1c-0.1,0-0.1-0.1-0.2-0.1c-0.2-0.1-0.5-0.3-0.7-0.6c-0.9-1-1.9-2.1-3-3.1
			c-2.6-2.6-5.3-5.3-6-8.6c-0.7-3.1,1.2-6.5,3.1-9.8c0.6-1.1,1.2-2.2,1.7-3.2c5.1-10.8,8.4-22.2,9.7-33.7c0.1-1.2,0.3-2.3,0.4-3.5
			c0.5-4.7,1-9.6,2.1-14.3c0.5-2.4,1.8-6.8,4.8-9.9c7.8-8.1,15.9-16.1,23.8-23.9c2.5-2.5,5-4.9,7.5-7.4c0.8-0.8,1.7-1.7,2.9-2.1
			c1.5-0.6,3-1.1,4.5-1.5c0.6-0.2,1.2-0.4,1.8-0.6l1.5-0.5l0.4,1.5c0.2,0.6,0.3,1.1,0.5,1.7c0.4,1.4,0.8,2.8,1.1,4.2
			c0.2,0.9,0.2,1.7,0.1,2.5l0.8,0.1l-0.3,1.5c-0.5,3-1,6-1.6,9c-1.1,6.7-2.3,13.6-3.6,20.4c-0.4,2.1-0.7,4.1-1.1,6.2
			c-1.5,8.2-3,16.8-4.9,25.1c-0.6,2.6-1.1,5.2-1.7,7.8c-2.5,12-5.2,24.3-11.3,35.5c-0.8,1.4-1.5,2.7-2.4,4
			C835.7,584.8,830.6,588.2,825,588.2"/>
		<path class="st1" d="M863.2,460.2c0.5,1.9,1.2,3.9,1.6,5.8c0.2,1.1,0,2.3,0,3.5c0.2,0,0.4,0.1,0.6,0.1c-1.7,9.8-3.3,19.6-5.1,29.4
			c-1.9,10.4-3.7,20.8-6,31.2c-3.3,14.6-5.5,29.5-12.8,43c-0.7,1.3-1.4,2.6-2.3,3.9c-4.5,6.5-9.1,9.7-14.2,9.7
			c-4.2,0-8.7-2.2-13.5-6.7c-0.2-0.2-0.6-0.4-0.8-0.6c-3.1-3.7-7.8-7-8.7-11.1c-0.7-3.5,2.8-8,4.7-12c5.1-10.9,8.4-22.2,9.8-34.1
			c0.7-5.9,1.2-11.9,2.4-17.6c0.7-3.2,2.1-6.8,4.4-9.2c10.2-10.6,20.8-20.9,31.3-31.3c0.7-0.7,1.5-1.5,2.3-1.8
			C859,461.4,861.1,460.9,863.2,460.2 M865.3,456.4l-3,0.9c-0.6,0.2-1.2,0.4-1.8,0.5c-1.5,0.5-3.1,0.9-4.7,1.5
			c-1.4,0.6-2.5,1.6-3.3,2.4c-2.5,2.5-5,5-7.5,7.4c-7.9,7.8-16,15.8-23.8,23.9c-3.2,3.3-4.6,8.1-5.2,10.6c-1,4.8-1.6,9.7-2.1,14.5
			c-0.1,1.2-0.3,2.3-0.4,3.5c-1.3,11.4-4.5,22.5-9.5,33.2c-0.5,1-1,2-1.7,3.1c-2,3.5-4,7.1-3.3,10.8c0.8,3.8,3.7,6.6,6.4,9.4
			c1.1,1.1,2,2,2.9,3c0.4,0.5,0.8,0.7,1.1,0.9l0.1,0c5.5,5,10.5,7.4,15.5,7.4c6.1,0,11.6-3.6,16.7-11c0.9-1.3,1.7-2.7,2.4-4l0-0.1
			c6.2-11.4,8.9-23.9,11.4-35.9c0.5-2.6,1.1-5.2,1.7-7.8c1.9-8.3,3.4-16.9,4.9-25.1c0.4-2.1,0.7-4.1,1.1-6.2
			c1.2-6.8,2.4-13.7,3.6-20.4c0.5-3,1-6,1.5-9l0.5-3l-1-0.2c0-0.5-0.1-1-0.2-1.6c-0.3-1.5-0.7-3-1.2-4.4c-0.2-0.6-0.3-1.1-0.5-1.7
			L865.3,456.4z"/>
		<path class="st2" d="M656.8,501.3c-3.8,0-5.9-2.1-6.4-6.2c-0.7-5.8-1.3-11.8-1.9-17.5c-0.6-5.7-1.2-11.5-1.9-17.2
			c-0.3-2.4,0.1-4,1.1-5.1c1.3-1.5,3.4-1.6,4.8-1.6c0.2,0,0.4,0,0.6,0c2.6,0.1,5.4,0.1,8.8,0.1h0c2.1,0,4.1,0,6.2,0
			c2.1,0,4.1,0,6.2,0h0.2c2.1,0,4.3,0,6.4,0c2.2,0,4.5,0,6.7,0c3.6,0,6.6,0,9.3-0.1l0.3,0c1.4,0,3.3,0.2,4.6,1.6
			c0.9,1.1,1.3,2.6,1,4.8c-0.6,4.3-1.1,8.6-1.7,12.9c-1,7.8-2,15.8-3.2,23.7c-0.3,2-3.1,4.4-5.2,4.5c-6.1,0.1-12.1,0.1-18.8,0.1
			h-1.9c-5.4,0-10.3,0-15.3,0.1L656.8,501.3z"/>
		<path class="st1" d="M652.6,455.1c0.2,0,0.4,0,0.6,0c3,0.1,5.9,0.1,8.9,0.1c4.1,0,8.3-0.1,12.4-0.1c0.1,0,0.1,0,0.2,0
			c4.4,0,8.7,0,13.1,0c3.1,0,6.2,0,9.4-0.1c0.1,0,0.2,0,0.3,0c3.3,0,4.5,1.2,4.1,4.7c-1.6,12.2-3.1,24.4-4.9,36.6
			c-0.2,1.3-2.4,3.2-3.7,3.2c-6.3,0.1-12.5,0.1-18.8,0.1c-0.6,0-1.2,0-1.8,0c-5.1,0-10.2,0-15.4,0.1c0,0-0.1,0-0.1,0
			c-3.6,0-4.6-2.2-4.9-4.9c-1.3-11.6-2.4-23.2-3.7-34.7C647.7,456.4,649.1,455.1,652.6,455.1 M652.6,452.1L652.6,452.1
			c-1.7,0-4.2,0.2-5.9,2.1c-1.3,1.5-1.8,3.5-1.5,6.3c0.7,5.7,1.3,11.6,1.9,17.2c0.6,5.7,1.2,11.7,1.9,17.5c0.7,6.2,4.7,7.5,7.9,7.5
			l0.2,0c5-0.1,9.9-0.1,15.3-0.1h0.9h0.9c6.7,0,12.8,0,18.9-0.1c2.7-0.1,6.2-3.1,6.6-5.8c1.2-7.9,2.2-16,3.2-23.7
			c0.5-4.2,1.1-8.6,1.7-12.9c0.4-2.6-0.1-4.6-1.3-6c-1.8-2.1-4.8-2.1-5.7-2.1c-0.1,0-0.2,0-0.4,0c-2.7,0.1-5.7,0.1-9.3,0.1
			c-2.2,0-4.5,0-6.7,0c-2.1,0-4.3,0-6.4,0h-0.2c-2.1,0-4.2,0-6.2,0c-2.1,0-4.1,0-6.2,0c-3.4,0-6.2,0-8.8-0.1
			C653.1,452.1,652.8,452.1,652.6,452.1"/>
		<path class="st2" d="M409.4,501.3c-5.5,0-11.4,0-18.3-0.1c-1.7,0-4.7-1.6-5-3.5c-1.7-11.9-3.1-24-4.5-35.8l-0.5-4.3
			c-0.1-0.6,0.1-1.2,0.3-1.7c0.1-0.2,0.1-0.4,0.2-0.6l0.2-0.9l0.9-0.2c0.3,0,0.5-0.1,0.8-0.2c0.7-0.2,1.5-0.4,2.3-0.4
			c5.7,0,11.4,0,17.1,0c9.6,0,19.6,0,29.4-0.1h0c1.9,0,3.2,0.5,4.1,1.4c1.2,1.3,1.1,3.2,1,4.6c-0.3,3.1-0.6,6.2-0.9,9.2
			c-0.9,9-1.8,18.3-3,27.5c-0.3,2.2-3.6,4.7-5.7,4.7C421.9,501.2,416,501.3,409.4,501.3"/>
		<path class="st1" d="M432.3,455.1c3.3,0,3.8,1.7,3.5,4.4c-1.3,12.2-2.4,24.5-3.9,36.7c-0.2,1.3-2.8,3.4-4.3,3.4
			c-6,0.1-12.1,0.2-18.1,0.2c-6.1,0-12.2-0.1-18.3-0.1c-1.2,0-3.4-1.3-3.5-2.2c-1.9-13.3-3.4-26.7-5.1-40c-0.1-0.4,0.2-0.9,0.4-1.7
			c0.9-0.2,1.8-0.5,2.8-0.5C401.2,455.2,416.7,455.3,432.3,455.1C432.2,455.1,432.2,455.1,432.3,455.1 M432.3,452.1L432.3,452.1
			c-9.9,0.1-19.8,0.1-29.5,0.1c-5.7,0-11.4,0-17.1,0c-1,0-1.9,0.2-2.6,0.4c-0.2,0.1-0.5,0.1-0.7,0.2l-1.8,0.3l-0.5,1.8
			c0,0.2-0.1,0.3-0.2,0.5c-0.2,0.6-0.5,1.3-0.4,2.3l0.5,4.4c1.4,11.7,2.9,23.8,4.5,35.7c0.4,2.8,4.2,4.8,6.5,4.8
			c6.9,0.1,12.9,0.1,18.3,0.1c6.5,0,12.5-0.1,18.2-0.2c2.8-0.1,6.8-3,7.2-6c1.2-9.2,2.1-18.5,3-27.5c0.3-3.1,0.6-6.1,0.9-9.2
			c0.2-1.8,0.2-4-1.4-5.8C436.2,452.8,434.5,452.1,432.3,452.1"/>
		<path class="st3" d="M382.2,448.1c-2.3,0-3.9-0.5-5-1.7c-1.1-1.1-1.6-2.8-1.5-5.1c0.1-5.2,0.1-10.8,0-17.4c0-2,0.4-3.4,1.4-4.4
			c1-1,2.4-1.5,4.5-1.5c8.9,0,17.8,0.1,26.6,0.1c9.8,0,19.5,0,28.9-0.1h0c1.3,0,3.2,0.1,4.4,1.4c0.9,0.9,1.4,2.3,1.3,4.1
			c-0.1,6.6-0.1,12.6,0,18.5c0,2-0.5,3.5-1.5,4.6c-1,1-2.6,1.6-4.7,1.6l-0.2,0c-3.5-0.1-7.2-0.1-11.8-0.1c-2.6,0-5.3,0-7.9,0
			c-2.6,0-5.1,0-7.7,0h-0.1c-2.5,0-5.1,0-7.6,0c-2.5,0-5.1,0-7.6,0c-4.4,0-7.9,0-11.2,0.1L382.2,448.1z"/>
		<path class="st1" d="M437.2,419.4c2.9,0,4.2,1,4.2,4c-0.1,6.2-0.1,12.3,0,18.5c0,3.4-1.4,4.6-4.7,4.6c-0.1,0-0.1,0-0.2,0
			c-3.9-0.1-7.9-0.1-11.8-0.1c-5.2,0-10.4,0-15.6,0c0,0-0.1,0-0.1,0c-5.1,0-10.1,0-15.2,0c-3.7,0-7.5,0-11.2,0.1c-0.1,0-0.2,0-0.3,0
			c-3.6,0-5.2-1.4-5.1-5.2c0.2-5.8,0.1-11.7,0-17.5c-0.1-3.2,1.3-4.4,4.4-4.4c0,0,0,0,0,0c8.9,0,17.7,0.1,26.6,0.1
			C417.9,419.5,427.5,419.5,437.2,419.4C437.2,419.4,437.2,419.4,437.2,419.4 M437.2,416.4L437.2,416.4c-9.5,0-19.2,0.1-29,0.1
			c-8.6,0-17.6,0-26.6-0.1h0h-0.1c-2.5,0-4.3,0.6-5.6,1.9c-1.3,1.3-1.9,3.1-1.8,5.5c0.1,6.6,0.1,12.1,0,17.4c-0.1,2.7,0.6,4.8,2,6.2
			c1.4,1.4,3.4,2.1,6.1,2.1c0.1,0,0.2,0,0.3,0c3.3-0.1,6.8-0.1,11.2-0.1c2.5,0,5,0,7.6,0c2.5,0,5.1,0,7.6,0h0.1c2.6,0,5.2,0,7.8,0
			c2.6,0,5.3,0,7.9,0c4.6,0,8.4,0,11.8,0.1l0.2,0c2.5,0,4.4-0.7,5.8-2c1.3-1.3,1.9-3.2,1.9-5.7c-0.1-5.9-0.1-11.9,0-18.4
			c0-2.3-0.5-3.9-1.8-5.2C440.8,416.4,438.1,416.4,437.2,416.4"/>
		<path class="st3" d="M641.6,448l0.5-1.9c2.3-8.1,5.8-14.4,10.8-19.8c1.4-1.5,3.9-1.5,6-1.5l0.3,0c6.2,0,12.4-0.1,18.6-0.1
			c4,0,8.1,0,12.1,0l4.7,0c7.5,0,12.7,4.7,13.6,12.3c0.5,4.5,0.5,7.1-1,8.9c-1.5,1.7-4.1,2-8.7,2l-19.9,0L641.6,448z"/>
		<path class="st1" d="M677.7,426.3c5.6,0,11.3,0,16.9,0c6.8,0,11.3,4.1,12.2,11c1,8.2,0.1,9.2-8.2,9.2c-6.6,0-13.3,0-19.9,0
			c-9.5,0-19,0-28.4,0h-6.6c2.3-7.9,5.6-14,10.5-19.2c1-1,3.4-1,5.2-1C665.4,426.3,671.6,426.3,677.7,426.3 M677.7,423.3
			c-7.2,0-13.1,0-18.5,0.1l-0.3,0c-2.2,0-5.2,0-7,1.9c-5.2,5.6-8.8,12-11.2,20.4l-1.1,3.8h4h4.2h2.5h14.1l14.4,0l19.9,0
			c4.3,0,7.7-0.2,9.8-2.5c2.1-2.4,1.9-5.8,1.3-10c-1-8.4-6.8-13.6-15.1-13.6l-4.7,0C685.9,423.3,681.8,423.3,677.7,423.3"/>
		<path class="st3" d="M391.4,411.6l2.2-2.5c2.5-2.9,8.2-4.7,15.1-4.7c6.6,0,12.8,1.6,16.8,4.4l3.9,2.7H391.4z"/>
		<path class="st1" d="M408.6,405.9c5.8,0,11.9,1.3,16,4.1h-29.9C397.1,407.4,402.6,405.9,408.6,405.9 M408.6,402.9L408.6,402.9
			c-7.3,0-13.4,1.9-16.2,5.2l-4.3,5h6.6h29.9h9.6l-7.9-5.5C422,404.6,415.6,402.9,408.6,402.9"/>
		<polygon class="st3" points="667.3,417.6 667.1,413.3 685.6,413.3 685.6,417.6 		"/>
		<path class="st1" d="M684.1,414.8c0,0.4,0,0.9,0,1.3h-15.4c0-0.4,0-0.9-0.1-1.3H684.1z M684.1,411.8h-15.4h-3.1l0.1,3.1l0,0.7
			l0,0.7l0.1,2.9h2.9h15.4h3l0-3l0-1.3l0-3L684.1,411.8z"/>
		<path class="st3" d="M407.9,712.7c-12.2,0-24.7-1.3-37-3.8c-7.8-1.6-15.5-4.8-21.3-7.4c-7-3.2-10.4-8.8-9.7-16.2
			c0.6-6.8,1.1-13.8,1.6-20.5c1-13.4,2-27.2,4-40.6c3.4-22.4,9.9-40.8,19.9-56.3c7.9-12.1,17.3-19.8,28.7-23.4
			c4.8-1.5,9.7-2.3,14.5-2.3c14.1,0,27.4,6.4,37.2,18c9.3,10.9,16,24.6,21,43.1c6.1,22.6,9.3,46.4,9.6,70.7c0,1.1,0,2.3-0.1,3.4
			c-0.1,2.4-0.2,4.7,0.1,6.9c1.4,9.2-3,15.7-12.6,18.9c-11,3.7-20,6-28.5,7.3C426.4,712,417.1,712.7,407.9,712.7"/>
		<path class="st1" d="M408.6,543.7c13.6,0,26.5,6.2,36.1,17.5c10.5,12.4,16.5,27.1,20.7,42.5c6.2,23,9.3,46.5,9.6,70.3
			c0,3.5-0.4,7.1,0.1,10.5c1.4,9.4-3.7,14.7-11.5,17.2c-9.2,3.1-18.7,5.7-28.2,7.3c-9.1,1.4-18.2,2.1-27.3,2.1
			c-12.3,0-24.6-1.3-36.7-3.8c-7.2-1.5-14.2-4.3-20.9-7.3c-5.9-2.7-9.5-7.5-8.8-14.7c1.9-20.4,2.6-40.9,5.6-61.1
			c2.9-19.6,8.6-38.7,19.6-55.7c6.8-10.5,15.7-18.9,27.9-22.8C399.3,544.5,404,543.7,408.6,543.7 M408.6,540.7v3V540.7L408.6,540.7
			c-5,0-10,0.8-15,2.3c-11.8,3.7-21.4,11.6-29.5,24c-10.1,15.6-16.7,34.2-20.1,56.9c-2,13.5-3,27.4-4,40.7c-0.5,6.7-1,13.7-1.6,20.5
			c-0.7,8,3,14.3,10.6,17.7c5.9,2.6,13.6,5.9,21.6,7.5c12.4,2.5,25,3.8,37.3,3.8c9.3,0,18.6-0.7,27.8-2.2c8.5-1.3,17.7-3.7,28.7-7.4
			c10.2-3.4,15-10.7,13.6-20.5c-0.3-2.1-0.2-4.3-0.1-6.6c0-1.1,0.1-2.3,0.1-3.4c-0.3-24.5-3.5-48.4-9.7-71.1
			c-5.1-18.7-11.8-32.6-21.3-43.7C436.8,547.3,423.2,540.7,408.6,540.7"/>
		<path class="st3" d="M551.9,712.6c-4.5,0-9.2-0.1-14-0.4c-12.2-0.8-28.2-2.5-43.1-8.9c-9.8-4.3-12.3-8.2-12.1-19
			c0.1-3.1,0-6.2,0-9.2c0-1,0-1.9,0-2.9l-0.8-0.1l0.2-1.5c0.5-4.4,0.9-9,1.4-13.3c1-9.8,1.9-19.9,3.6-29.8
			c3.2-19.4,8.2-41.9,22-61.8c10.7-15.5,24.8-23.3,41.8-23.3h0.2c15.1,0,28.4,6.8,38.3,19.5c10.9,13.9,16.2,29.8,20,43.4
			c7.3,26.4,8.7,53.5,9.6,81.2c0.2,6.6-2.3,11.3-7.1,13.4l-1.7,0.8c-7.1,3.2-14.4,6.5-22.1,8.2C576.8,711.4,565,712.6,551.9,712.6"
			/>
		<path class="st1" d="M550.9,543.8c0.1,0,0.1,0,0.2,0c15.3,0,27.8,7,37.2,19c9.9,12.7,15.5,27.4,19.7,42.9
			c7.3,26.5,8.7,53.6,9.6,80.9c0.2,5.2-1.4,9.9-6.3,12c-7.6,3.4-15.4,7-23.5,8.8c-11.8,2.6-23.8,3.7-35.8,3.7
			c-4.6,0-9.2-0.2-13.9-0.4c-14.6-0.9-29-2.9-42.6-8.8c-9.4-4.1-11.4-7.4-11.2-17.5c0.1-4.5,0-9,0-13.5c-0.2,0-0.4,0-0.6-0.1
			c1.6-14.4,2.6-28.8,4.9-43.1c3.5-21.6,9-42.8,21.8-61.2C520.1,552.4,533.4,543.8,550.9,543.8 M550.9,540.8L550.9,540.8
			c-17.5,0-32,8.1-43,24c-13.9,20.1-19.1,42.9-22.3,62.4c-1.6,9.9-2.6,20.1-3.6,29.9c-0.4,4.4-0.9,8.9-1.4,13.3l-0.3,2.9l0.9,0.1
			c0,0.5,0,1.1,0,1.6c0,3,0,6.2,0,9.2c-0.2,11.5,2.6,15.8,13,20.4c15.2,6.6,31.3,8.3,43.6,9.1c4.8,0.3,9.5,0.4,14,0.4
			c13.2,0,25.1-1.2,36.5-3.8c7.8-1.7,15.2-5.1,22.4-8.3l1.7-0.8c3.8-1.7,8.3-5.7,8-14.9c-0.9-27.8-2.3-55-9.7-81.6
			c-3.8-13.8-9.2-29.9-20.3-44c-10.3-13.1-23.9-20.1-39.5-20.1H550.9z"/>
		<path class="st3" d="M675.8,700.5c-12.7,0-24.9-2.1-36.2-6.4c-11.5-4.3-16.4-12-14.7-22.8c0.2-1,0.1-2,0.1-3.1c0-0.6,0-1.1,0-1.7
			c1.3-26.1,5.4-48.8,12.7-69.6c4-11.5,9.4-24.8,18.9-36.3c5.6-6.8,12.9-10.4,21-10.4c7.2,0,14.6,2.9,20.8,8.1
			c8.4,7.1,14.4,16.9,18.8,30.9c5.9,18.6,9,38,9.4,57.7c0.2,8.7,0.9,17.6,1.6,25.2c0.9,10.2-3.8,17.5-13.7,21.1
			c-7.2,2.6-15.6,5.4-24.2,6.5C685.3,700.2,680.5,700.5,675.8,700.5"/>
		<path class="st1" d="M677.5,551.7c7,0,14,2.9,19.8,7.7c9.5,7.9,14.8,18.7,18.4,30.2c5.8,18.6,8.9,37.7,9.3,57.2
			c0.2,8.5,0.9,16.9,1.6,25.4c0.9,10-3.9,16.3-12.7,19.5c-7.7,2.8-15.7,5.4-23.8,6.4c-4.8,0.6-9.6,0.9-14.3,0.9
			c-12.1,0-24.1-1.9-35.7-6.3c-9.7-3.6-15.5-9.9-13.8-21.2c0.3-1.6,0-3.3,0-5c1.2-23.6,4.8-46.7,12.6-69.1
			c4.5-12.9,9.8-25.2,18.7-35.8C663.4,554.7,670.4,551.7,677.5,551.7 M677.5,548.7v3V548.7L677.5,548.7c-8.6,0-16.2,3.8-22.2,10.9
			c-9.7,11.6-15.1,25.1-19.2,36.8c-7.3,21-11.5,43.8-12.8,70l0,0.1v0.1c0,0.6,0,1.2,0,1.7c0,1,0.1,2,0,2.8
			c-1.8,11.6,3.4,19.9,15.7,24.4c11.5,4.3,23.9,6.5,36.7,6.5c4.8,0,9.7-0.3,14.7-0.9c8.8-1,17.2-3.9,24.5-6.6
			c10.5-3.8,15.7-11.8,14.7-22.6c-0.7-8-1.5-16.5-1.6-25.1c-0.4-19.8-3.5-39.3-9.4-58.1c-4.5-14.3-10.6-24.3-19.3-31.6
			C692.7,551.7,685,548.7,677.5,548.7"/>
	</g>
</g>
</svg>
