<?xml version="1.0" encoding="utf-8"?>
<!-- Generator: Adobe Illustrator 19.1.1, SVG Export Plug-In . SVG Version: 6.00 Build 0)  -->
<svg version="1.1" id="Layer_1" xmlns="http://www.w3.org/2000/svg" xmlns:xlink="http://www.w3.org/1999/xlink" x="0px" y="0px"
	 width="960px" height="960px" viewBox="0 0 960 960" style="enable-background:new 0 0 960 960;" xml:space="preserve">
<style type="text/css">
	.st0{clip-path:url(#SVGID_2_);fill:#E0EDF8;}
	.st1{clip-path:url(#SVGID_2_);fill:#27378A;}
	.st2{clip-path:url(#SVGID_2_);fill:#FCEAEA;}
	.st3{clip-path:url(#SVGID_2_);fill:#FFFFFF;}
</style>
<g>
	<g>
		<defs>
			<rect id="SVGID_1_" x="0" y="0" width="960" height="960"/>
		</defs>
		<clipPath id="SVGID_2_">
			<use xlink:href="#SVGID_1_"  style="overflow:visible;"/>
		</clipPath>
		<path class="st0" d="M960,480c0,265.1-214.9,480-480,480S0,745.1,0,480S214.9,0,480,0S960,214.9,960,480"/>
		<path class="st1" d="M721.8,454.8c-35.4,21.3-72.5,24.2-111.6,17.6c-25.4,17.7-98.4,22.7-130,8c-20.8,12-44.3,7.6-67.1,7.5
			c-22.3-0.1-45.2,0.4-64.1-16.2c-19.1,5.6-39,5.5-58.3,1.9c-18.4-3.4-36.1-10.7-58.2-17.5c-27.3,4.3-57.1-0.7-84.2-19
			c-7.8-18.7-9.1-37.7-9.5-56.7c-0.2-11.1-2.1-21.3-6.8-31.4c-14.2-30.3-19.9-62.1-14.3-95.3c7.6-44.9,30.4-71.6,67.4-80.9
			c24-6,48.6-6.1,73-3.4c61.9,7,121.1,23.9,178.5,47.8c28.4,11.8,56.7,12.1,85.2,0.3c47.8-19.9,97-35.5,148.2-43.6
			c31.6-5,63-8,95.3-2.7c47.4,7.7,69.6,42.7,76.2,81.8c5.5,33.1,0.4,65-13.8,95.3c-4.7,10-7.1,20.1-7.3,31.3
			c-0.2,13.5-2.1,27.1-3.8,40.6c-1.7,13.4-9.8,22.5-22.3,26.8C771.2,455.1,747.7,461.7,721.8,454.8 M817.3,329.2
			c10.7-27.3,12-53.4,6.6-78.6c-7.6-35.3-23.2-56.7-62.5-63c-30.9-5-61-1.7-91.2,3.1c-47.8,7.7-93.8,22.1-138.3,41
			c-35.1,14.9-69.7,14.6-104.8-0.3c-54.7-23.3-111.6-38.8-170.6-45.4c-23.1-2.6-46.3-2-69,3.7c-17.8,4.5-32,14.2-40.9,31.1
			c-18.2,34.8-16,70.1-5.2,107.6c24.9-31.6,50.7-37.1,96.7,3.7c7.7-20.7,23.7-29,44.5-28.5c19.8,0.4,37,7.9,51.8,20.9
			c4.5,4,8.8,8.1,13.2,12.3c17-22.1,21-25.5,35.6-30.2c29.9-9.7,68.8,5.9,86.6,34.7c3.4,5.6,6.4,11.4,10.4,18.5
			c8.3-19.3,19.5-34.3,36.6-44.4c35.8-21.3,69-14.7,92.3,18.7c0.6,0.9,2.2,1.2,4,2.1c4.2-4,8.4-8.3,13-12.2
			c13.2-11.6,28.6-18.4,46-20.1c23-2.2,41,5.9,50.2,28.7C764.4,294.4,790.5,293.2,817.3,329.2 M466.5,470.3c9.8-30.1,3.6-57,1-83.8
			c-0.8-8-3.2-16-5.9-23.6c-8.8-25.3-34.5-43-61.2-42.8c-18.1,0.2-32.6,11.3-37.2,28.9c-1.5,5.9-3.2,12-3.3,18
			c-0.5,26.5-0.8,53.1-0.3,79.6c0.1,6.2,3.5,12.4,5.3,18.4C399.6,474,432.5,472.4,466.5,470.3 M589.1,466.7
			c9.7-6.4,11.1-13.5,11.1-21.4c-0.2-23.1,0.2-46.3-0.3-69.4c-0.2-8.7-1.7-17.6-3.7-26.1c-4.4-18.7-19.6-30.5-38.6-29.6
			c-34.8,1.8-56.5,23.7-62.2,49.7c-4.8,21.8-6.5,44.3-7.9,66.6c-0.7,10.4,2.6,21.1,4.3,33.5C525.7,472.7,557.9,473.2,589.1,466.7
			 M342.4,457.2c0-25.8,0-50.1,0-74.4c0-4.1,1-8.6-0.4-12.2c-3.6-9.4-6.7-19.5-12.7-27.3c-17-22.3-48.4-28.3-72.1-13.9
			c-12.3,36-12.6,74.1-7.3,113C278.9,460.1,309.4,460.2,342.4,457.2 M617.1,455c33.2,8.9,75,1.5,93.3-16.5
			c3.3-37.4,4.8-75.1-9.2-110.3c-35-18.5-81.2,5.9-83.7,43.8C615.6,399.7,617.1,427.6,617.1,455 M727.8,439.7
			c26.5,3.8,49.3-1.3,70.8-13.6c5.4-28.8,8.1-56.4,2.2-84.2c-3.8-18.1-15-25.2-32.7-20.4c-25.7,7-41.5,29.6-40.4,56.5
			c0.7,16.2,0.1,32.4,0,48.7C727.8,429.9,727.8,433.3,727.8,439.7 M231.1,437.5c0-5.2,0-10.5,0-15.9c0-13.5-1.1-27.1,0.2-40.4
			c2.5-26.6-11.7-49.9-37.2-58.5c-20-6.8-31.5-0.2-35.6,20.1c-5.7,27.8-3.3,55.3,2.4,82C183.2,439.5,210.8,444.5,231.1,437.5"/>
		<path class="st1" d="M726,633.1c15.6-13.2,31.4-21.6,50.9-21.6c25.2,0.1,42.1,13.2,48.1,38.3c5.6,23.5,5.1,47.2,2.6,71
			c-0.3,3.4-1.7,6.7-1.7,10c0,23.4-13.4,36.3-33.9,43c-22.1,7.2-44.6,11.3-68.2,6.8c-34.6,18.7-71.6,23.1-108.4,18
			c-44.9,20.8-90,15.6-138.1,10.8c-42.1,5.8-87,9.1-133.7-10.5c-35.1,4.3-72.3,1-107.3-18.1c-25.8,4-51,0.1-75.3-9.8
			c-16.5-6.7-25.3-18.7-27.4-37.1c-3-26.5-4.4-52.5-0.2-79.2c5.1-32.5,32.3-52.9,69.9-39.5c10.7,3.8,20.3,10.4,31.8,16.4
			c14.1-15.6,33-22.6,55.4-19.7c20.9,2.7,39.1,11.1,54.5,27.4c12.5-12.5,25.3-24.8,43.7-27.2c18-2.4,35.2,0.8,51.6,8.5
			c16.3,7.7,28.5,20.2,39.3,34.4c44.3-52.2,89.3-57.5,134.6-16.4C646.3,608.7,693.6,599.1,726,633.1 M720,762.7
			c1.6,0.2,4.3,0.4,6.9,1c22.9,5.4,44.4-0.1,65.5-8.1c8-3,14.3-7.9,15.8-17.1c4.4-27,6.4-53.8,1.4-81.1
			c-5.6-30.6-29.1-33.1-48.9-26.6c-6.9,2.3-13.9,6.4-19.1,11.4c-8,7.8-14.5,17.2-22.3,26.7c-2.5-7.2-4.9-14.2-7.4-21.1
			c-3.7-10.8-12-16.7-22.6-18.5c-26-4.3-58.9,6.9-70.1,33.9c-2.6,6.1-5.6,12.1-9.4,20.2c-2.1-8.1-3.5-14-5-19.8
			c-6-22.6-20.9-33.7-44-35.2c-37.9-2.5-70.8,29.3-74.9,59.2c-0.7,4.9-2.9,9.7-4.5,14.5c-5.1-5-7-9.9-8-14.9
			c-6.4-29.4-24.8-48.5-53-56.3c-30.4-8.4-61.1,0.9-67.3,39c-0.6,3.8-2,7.4-3.7,13.7c-3-6.6-4.9-10.9-6.9-15.1
			c-13.1-28.1-34.4-41.1-64.7-39.8c-17.4,0.8-26.3,7.1-32.1,23.2c-2,5.6-3.7,11.4-6.2,18.8c-2.5-4-4-6.2-5.3-8.4
			c-7.4-13.6-17.9-24-32.2-30.1c-23.8-10-48-2.7-52.4,25.6c-3.8,24.5-2.5,48.6,0.2,73c1.7,15.6,9.8,23.5,23.1,27.4
			c22.2,6.4,44.6,12.4,66.1,4.5c36.9,22.5,74.7,26.2,114.3,16c9.8,11.1,9.7,12.5,23.2,13.9c23.6,2.4,47.4,2.9,71.1,4.1
			c12.5,0.6,23.9-2.2,29.9-10.1c10.3,3.8,18.1,9,26.1,9.3c22.4,0.9,44.9,0.7,67.3-0.8c13.9-0.9,28.7-2.4,34.7-15.6
			C646.9,787.7,684.3,785.5,720,762.7"/>
		<path class="st1" d="M459.6,546.9c-0.7-0.2-1.5-0.7-2.1-1.5c-1.4-1.6-2.8-3.2-3.5-5.2c-1.2-3-0.4-5.5,1.5-7.9
			c4.1-5.3,10.2-10.2,16.3-12.8c8.5-3.6,17.3-0.6,24.3,4.7c8.2,6.2,14.1,11.4,5.5,20.4c-0.7,0.7-1.5,1.5-2.5,1.8
			c-2.7,0.7-8.4-5.5-10.6-7.1c-3.3-2.5-6.4-6.4-11-4.6c-4.9,1.9-8.6,8-13,10.9C462.9,546.8,461.2,547.3,459.6,546.9"/>
		<path class="st1" d="M479.1,547.2c0.6-0.3,1.3-0.4,1.9-0.3c1.3,0.2,2.3,1.2,3,2.3c4.2,6,3.3,11.8,2.8,18.6
			c-0.5,6.7,1.2,13.4,0.4,20.1c-0.4,3.5-1.6,7.8-4.1,10.4c-2.8,3.1-7.3,2-9.4-1.3c-2.5-4-1.8-9.8-1.4-14.2
			c0.9-10.5-5.4-28.1,5.8-35.1C478.5,547.5,478.8,547.4,479.1,547.2"/>
		<path class="st2" d="M817.3,329.2c-26.7-36-52.9-34.8-95.1,3.2c-9.2-22.8-27.3-30.9-50.2-28.7c-17.3,1.6-32.8,8.5-46,20.1
			c-4.5,4-8.8,8.3-13,12.2c-1.9-1-3.4-1.2-4-2.1c-23.3-33.4-56.5-40-92.3-18.7c-17.1,10.2-28.3,25.2-36.6,44.4
			c-3.9-7-6.9-12.9-10.4-18.5c-17.8-28.8-56.7-44.3-86.6-34.7c-14.6,4.7-18.7,8.1-35.6,30.2c-4.5-4.1-8.8-8.3-13.2-12.3
			c-14.8-13-32-20.5-51.8-20.9c-20.8-0.4-36.7,7.9-44.5,28.5c-46-40.8-71.8-35.3-96.7-3.7c-10.8-37.5-13-72.8,5.2-107.6
			c8.9-17,23-26.7,40.9-31.1c22.7-5.7,45.9-6.3,69-3.7c59.1,6.7,116,22.2,170.6,45.4c35.1,14.9,69.7,15.2,104.8,0.3
			c44.5-18.9,90.5-33.3,138.3-41c30.2-4.9,60.3-8.1,91.2-3.1c39.3,6.3,54.9,27.7,62.5,63C829.3,275.8,828,301.9,817.3,329.2"/>
		<path class="st3" d="M466.5,470.3c-34,2.1-66.9,3.6-101.5-5.3c-1.8-6-5.2-12.2-5.3-18.4c-0.5-26.5-0.2-53.1,0.3-79.6
			c0.1-6,1.8-12.1,3.3-18c4.5-17.6,19.1-28.7,37.2-28.9c26.7-0.2,52.4,17.5,61.2,42.8c2.7,7.7,5.2,15.6,5.9,23.6
			C470,413.3,476.3,440.3,466.5,470.3"/>
		<path class="st3" d="M589.1,466.7c-31.2,6.5-63.4,6-97.3,3.4c-1.7-12.4-5-23.1-4.3-33.5c1.4-22.3,3.2-44.9,7.9-66.6
			c5.7-26,27.3-48,62.2-49.7c19-1,34.2,10.8,38.6,29.6c2,8.5,3.5,17.4,3.7,26.1c0.5,23.1,0.2,46.3,0.3,69.4
			C600.2,453.2,598.8,460.2,589.1,466.7"/>
		<path class="st3" d="M342.4,457.2c-33,3-63.5,2.9-92.4-14.8c-5.3-39-5-77,7.3-113c23.7-14.5,55.1-8.4,72.1,13.9
			c6,7.8,9.1,17.9,12.7,27.3c1.4,3.6,0.4,8.1,0.4,12.2C342.4,407.1,342.4,431.4,342.4,457.2"/>
		<path class="st3" d="M617.1,455c0-27.4-1.5-55.3,0.4-83c2.5-37.9,48.7-62.3,83.7-43.8c14,35.1,12.5,72.8,9.2,110.3
			C692.1,456.4,650.3,463.9,617.1,455"/>
		<path class="st3" d="M727.8,439.7c0-6.4,0-9.8,0-13.1c0-16.2,0.6-32.5,0-48.7c-1.1-26.9,14.7-49.5,40.4-56.5
			c17.7-4.8,28.8,2.3,32.7,20.4c5.9,27.8,3.2,55.4-2.2,84.2C777.1,438.3,754.3,443.4,727.8,439.7"/>
		<path class="st3" d="M231.1,437.5c-20.4,7-48,2.1-70.2-12.7c-5.7-26.8-8.1-54.2-2.4-82c4.1-20.3,15.7-26.9,35.6-20.1
			c25.5,8.7,39.7,31.9,37.2,58.5c-1.3,13.4-0.2,26.9-0.2,40.4C231.1,427,231.1,432.3,231.1,437.5"/>
		<path class="st3" d="M720,762.7c-35.7,22.8-73.1,25-114.2,16.8c-5.9,13.2-20.8,14.7-34.7,15.6c-22.4,1.5-44.9,1.7-67.3,0.8
			c-8-0.3-15.8-5.5-26.1-9.3c-6,7.8-17.4,10.7-29.9,10.1c-23.7-1.2-47.5-1.7-71.1-4.1c-13.6-1.4-13.4-2.8-23.2-13.9
			c-39.7,10.2-77.4,6.5-114.3-16c-21.5,7.9-43.9,1.9-66.1-4.5c-13.3-3.9-21.4-11.8-23.1-27.4c-2.7-24.5-4-48.5-0.2-73
			c4.4-28.3,28.7-35.6,52.4-25.6c14.3,6,24.8,16.4,32.2,30.1c1.2,2.3,2.7,4.4,5.3,8.4c2.4-7.5,4.2-13.2,6.2-18.8
			c5.8-16.1,14.6-22.4,32.1-23.2c30.3-1.3,51.6,11.7,64.7,39.8c2,4.2,3.9,8.5,6.9,15.1c1.7-6.3,3.1-9.9,3.7-13.7
			c6.2-38.1,36.9-47.4,67.3-39c28.2,7.8,46.6,26.9,53,56.3c1.1,5,2.9,9.9,8,14.9c1.5-4.8,3.8-9.5,4.5-14.5
			c4.1-29.9,37-61.7,74.9-59.2c23.1,1.5,38,12.6,44,35.2c1.5,5.8,3,11.7,5,19.8c3.8-8.1,6.9-14,9.4-20.2
			c11.2-27,44.1-38.2,70.1-33.9c10.5,1.8,18.8,7.7,22.6,18.5c2.4,7,4.8,13.9,7.4,21.1c7.8-9.5,14.3-18.9,22.3-26.7
			c5.2-5.1,12.2-9.1,19.1-11.4c19.7-6.5,43.3-3.9,48.9,26.6c5,27.3,3,54.1-1.4,81.1c-1.5,9.1-7.8,14.1-15.8,17.1
			c-21.2,8-42.7,13.5-65.5,8.1C724.3,763.2,721.6,763,720,762.7"/>
	</g>
</g>
</svg>
