<?xml version="1.0" encoding="utf-8"?>
<!-- Generator: Adobe Illustrator 19.1.1, SVG Export Plug-In . SVG Version: 6.00 Build 0)  -->
<svg version="1.1" id="Layer_1" xmlns="http://www.w3.org/2000/svg" xmlns:xlink="http://www.w3.org/1999/xlink" x="0px" y="0px"
	 width="803.31px" height="872.01px" viewBox="0 0 803.31 872.01" style="enable-background:new 0 0 803.31 872.01;"
	 xml:space="preserve">
<style type="text/css">
	.st0{clip-path:url(#SVGID_2_);fill:#FCEAEA;}
	.st1{clip-path:url(#SVGID_2_);fill:#E0EDF8;}
	.st2{clip-path:url(#SVGID_2_);fill:#27378A;}
</style>
<g>
	<g>
		<defs>
			<rect id="SVGID_1_" width="803.31" height="872.01"/>
		</defs>
		<clipPath id="SVGID_2_">
			<use xlink:href="#SVGID_1_"  style="overflow:visible;"/>
		</clipPath>
		<path class="st0" d="M689.84,288.63c-1.49,20.01-3.98,52.23-14.81,64.85c-7.89,9.2-27.43,21.5-39.32,20.43
			c-16.28-1.48-42.74-20.41-44.42-38.81c-1-10.88-3.81-30.09-5.62-40.85c-5.97-35.6-15.46-41.58-50.55-32.17
			c-15.88,4.26-28.13,12.31-43.4,18.89c-7.35,3.17-30.05,5.28-37.79,6.64c-17.79,3.12-23.82-2.39-24.76-20.27
			c-0.49-9.48-5.2-31.61-6.39-41.01c-2.09-16.56-5.45-11.05-20.43-17.87c-3.14-1.43-8-6.98-11.23-8.17
			c-6.57-2.42-17.53-13.4-16.85-21.96c0.7-8.83,11.29-37.7,18.89-38.81c20.16-2.93,48.69-8.31,68.94-8.17
			c47.07,0.32,93.82,12.64,134.3,37.79c32.92,20.45,69.82,45.34,83.74,82.72C683.71,261.44,688.39,282.21,689.84,288.63"/>
		<path class="st1" d="M413.07,216.12c0,6.99,1.48,19.62,1.53,25.53c0.44,47.73,27.37,63.5,72,45.96
			c15.04-5.91,25.51-8.79,40.34-15.32c7.02-3.09,20.07-1.59,27.65-2.26c13.1-1.15,19.38,4.68,21.15,17.89
			c2.01,14.9,2.69,30.04,5.72,44.72c6.35,30.85,26.28,47.05,63.16,51.8c0.61,21.2,2.24,42.74,1.67,64.22
			c-3.74,141.05-49.81,267.1-135.62,378.81c-6.23,8.1-13.02,15.79-19.77,23.48c-12.45,14.17-43.29,18.54-50.27,0.92
			c-11.5-29.04-20.65-57.27-32.17-86.3c-17.08-43.04-50.39-67.12-96.34-59.58c-1.45,0.24-19.12-8.04-22.13-7.83
			c15.67-22.33,13.65-52.35,40.51-54.47c8.54-0.67,19.01,6.33,23.15-2.04c6.15-12.46,9.09-5.84-5.45-5.79
			c-33.11,0.11-28.12,7.92-50.04,31.66c-21.79,23.6-22.69,38.57-33.7,68.43c-12.58,34.09-33.88,79.47-46.98,113.36
			c-7.45,19.29-36.41,16.23-49.96,0.67C95.84,767.65,50.82,672.09,27.05,566.07c-10.64-47.45-16.02-95.56-14.09-144.17
			c2.24-56.31,10.83-111.38,38.81-161.56c19.14-34.33,46.73-57.91,86.74-63.79c22-3.24,42.89,3.29,63.74,9.35
			c28.53,8.28,56.98,16.97,85.79,24.16c35.31,8.82,70.47,4.57,105.25-4.33C396.99,224.78,407.95,217.46,413.07,216.12"/>
		<path class="st2" d="M581.9,0h-6.09c-6.34,3.8-8.88,9.13-8.47,17.55c0.41,8.39,0.33,16.86,0.25,25.06
			c-0.04,4.32-0.09,8.78-0.06,13.15c0.02,2.79,0.04,5.68,0.66,8.05c1.33,5.07,6.53,8.7,11.83,8.27c6.61-0.54,10.71-5.38,10.96-12.96
			c0.25-7.7,0.21-15.58,0.17-23.21c-0.03-6.22-0.07-12.65,0.05-19.01C591.38,8.15,588.59,3.04,581.9,0"/>
		<path class="st2" d="M695.64,262.47c-13.07-40.31-40.76-72.89-84.66-99.6C549.95,125.74,482,113.94,403.23,126.8
			c-16.69,2.72-30.91,14.83-37.11,31.6c-5.69,15.4-3.47,31.27,5.96,42.44c1.74,2.06,2.52,4.76,2.15,7.43
			c-0.37,2.67-1.86,5.06-4.09,6.57c-0.19,0.13-0.34,0.24-0.46,0.34c-0.76,0.58-2.18,1.65-4.28,2.22c-1.8,0.49-3.54,0.82-5.02,1.09
			c-27.36,4.97-56.18,3.04-88.11-5.92c-12.15-3.41-24.32-7.23-36.1-10.93c-12.27-3.85-24.97-7.84-37.49-11.31
			c-14.23-3.94-28.03-5.89-41.28-5.89c-43.21,0-80.55,20.69-107.67,60.47c-24.54,36-38.78,79.07-46.14,139.63
			c-6.2,50.92-4.35,103.01,5.66,159.26c19.2,107.99,61.86,204.56,126.79,287.02c9.7,12.32,18.56,23.21,28.84,31.79
			c10.06,8.4,23.31,11.35,36.35,8.09c14.23-3.55,26.1-14.02,31.77-28c5.85-14.41,11.39-29.3,16.75-43.7
			c5.21-14,10.61-28.47,16.31-42.62c12.21-30.27,44.65-47.34,77.14-40.59c25.62,5.33,43.47,21.21,53.05,47.2
			c1.98,5.38,3.96,10.77,5.93,16.15c7.58,20.71,15.43,42.12,23.79,62.84c6.45,15.97,19.71,26.98,35.48,29.44
			c15.49,2.42,30.51-3.57,41.22-16.45c19.51-23.45,39.96-48.62,56.7-75.71c75.11-121.5,107.82-250.67,97.24-383.94
			c-0.55-6.94-1.7-21.38,14.26-28.96c2.22-1.06,4.93-4.22,7.1-6.77C701.61,331.92,707.56,299.24,695.64,262.47 M642.74,452.17
			c-1.8,67.98-13.94,133.62-36.07,195.11c-21.9,60.85-54.17,119.26-95.93,173.62c-5.91,7.69-12.33,15-18.53,22.07l-0.81,0.92
			c-8.01,9.12-18.34,13.36-28.34,11.63c-9.87-1.71-18.04-9.05-22.43-20.13c-5.49-13.86-10.79-28.01-15.92-41.69
			c-5.2-13.89-10.59-28.25-16.13-42.22c-14.72-37.09-52.93-58.42-92.92-51.86c-1.39,0.23-2.64,0.3-4.09,0.37
			c-0.69,0.04-1.49,0.08-2.47,0.15c-3.65,0.26-7.14-1.61-8.94-4.8s-1.61-7.14,0.49-10.14c18.49-26.34,39.41-39.58,65.84-41.66
			c8.15-0.64,10.28-2.16,11.74-5.11c1.69-3.42,0.61-6.07-0.18-7.34c-1.57-2.52-4.51-3.95-7.97-3.95
			c-27.03,0.09-50.33,11.15-71.25,33.79c-17.29,18.72-30.47,41.9-42.75,75.19c-10.79,29.23-23.6,63.74-36.82,97.97
			c-4.66,12.05-12.8,19.66-22.92,21.44c-1.48,0.26-2.97,0.39-4.45,0.39c-8.77,0-17.44-4.5-24.83-12.99
			c-34.14-39.2-63.06-82.83-85.95-129.65c-22.01-45.03-39.12-94.39-50.85-146.72c-11.04-49.27-15.54-95.28-13.73-140.68
			c2.67-67.22,14.52-116.3,38.4-159.14c21.23-38.08,51.54-60.27,90.08-65.94c22.21-3.27,42.69,2.7,62.5,8.47l2.64,0.77
			c5.77,1.67,11.54,3.37,17.3,5.06c21.13,6.2,42.98,12.61,64.6,18.01c28.02,7,57.7,5.72,96.25-4.14c2.35-0.6,4.69-1.22,7.42-1.93
			l4.55-1.19c2.85-0.75,5.88-0.13,8.21,1.67c2.33,1.8,3.69,4.58,3.69,7.52c0,2.2,0,4.29-0.01,6.31c-0.01,4.05-0.02,7.88,0.02,11.64
			c0.17,19.01,7.14,34.12,19.62,42.53c12.41,8.38,28.95,9.18,46.56,2.26c7.73-3.04,15.16-6.82,23.01-10.83
			c6.04-3.08,12.29-6.26,18.71-9.09c8.51-3.75,16.73-5.99,24.41-6.66c17.28-1.52,28.12,7.48,30.53,25.35
			c0.71,5.3,1.26,10.64,1.79,15.81c0.94,9.2,1.83,17.89,3.58,26.42c5.25,25.49,20.94,38.1,52.47,42.16c4.64,0.6,8.15,4.48,8.28,9.15
			c0.18,6.34,0.46,12.86,0.74,19.17C642.49,423.26,643.12,437.74,642.74,452.17 M666.97,347.53c-9.08,10.58-20.63,16.09-33.6,16.09
			c-1.41,0-2.84-0.07-4.28-0.2c-20.63-1.87-32.17-14.6-34.3-37.83c-0.19-2.09-0.37-4.19-0.56-6.28c-0.77-8.88-1.51-17.27-2.91-25.6
			c-2.5-14.93-9.68-26.87-20.2-33.64c-10.36-6.66-23.34-8.16-37.53-4.36c-9.69,2.6-19.02,7.15-28.9,11.98
			c-5.04,2.46-10.26,5.01-15.57,7.3c-1.59,0.69-3.18,1.41-4.78,2.14c-6.18,2.81-12.57,5.72-19.76,6.98
			c-7.39,1.29-18.13,2.29-26.04-4.02c-7.89-6.28-9.4-16.72-9.84-25.12c-0.13-2.54-0.24-5.07-0.34-7.61
			c-0.29-6.99-0.56-13.59-1.39-20.11c-1.58-12.47-8.51-21.34-21.19-27.12c-3.11-1.41-5.99-2.73-8.87-3.79
			c-5.18-1.9-18.92-6.96-17.6-23.59c0.99-12.42,8.69-25.97,21.51-27.83c3.56-0.52,7.13-1.06,10.69-1.61
			c16.75-2.56,34.09-5.24,51.48-5.1c52.07,0.35,98.35,12.88,137.55,37.22c40.27,25.01,65.15,53.11,78.31,88.43
			c2.85,7.66,4.27,15.48,5.41,21.77c0.42,2.31,0.78,4.3,1.15,5.93c0.21,0.92,0.28,1.86,0.21,2.8
			C683.82,318.5,678.24,334.4,666.97,347.53"/>
		<path class="st2" d="M709.14,129.07c-1.98,1.12-4.22,2.49-5.86,4.11c-3.87,3.82-4.68,7.92-2.54,12.91
			c1.35,3.15,3.65,6.18,11.09,7.13c0.39-0.13,0.79-0.25,1.21-0.39c1.78-0.56,3.79-1.2,5.41-2.09c18.06-9.98,37.29-20.65,56.43-31.67
			c7.59-4.37,10.11-10.98,6.58-17.25c-2.14-3.81-5.47-5.76-9.49-5.76c-2.64,0-5.57,0.84-8.67,2.54
			c-15.66,8.6-31.47,17.58-46.76,26.26L709.14,129.07z"/>
		<path class="st2" d="M803.23,287.68c0.36-3.81-0.54-6.85-2.68-9.06c-2.38-2.45-6.37-4.01-11.55-4.5
			c-13.39-1.27-31.04-2.85-48.82-3.82c-8.12-0.43-13.6,3.79-13.98,10.8c-0.39,7.04,4.46,11.9,12.66,12.67
			c10.58,0.99,21.36,1.85,31.8,2.68c2.97,0.24,5.94,0.47,8.91,0.71l5.53,0.33c0.58,0.04,1.16,0.08,1.73,0.11
			C797.03,298.19,802.54,294.86,803.23,287.68"/>
		<path class="st2" d="M113.84,485.52c-0.17-1.31-0.4-2.6-0.64-3.97c-0.17-0.95-0.34-1.91-0.48-2.86
			c-3.96-25.63-6.44-55.91,5.18-86.19c1.22-3.18,1.26-6.29,0.1-8.76c-0.94-2.01-2.61-3.48-4.81-4.24
			c-6.99-2.39-10.59,3.49-12.12,7.21c-5.72,13.92-8.66,29.27-9.48,49.71c0.04,0.33,0.03,0.67-0.03,1c0.87,7.49,1.46,15.12,2.04,22.5
			c0.74,9.49,1.5,19.3,2.86,28.8c0.43,3.01,1.75,5.36,3.81,6.82c1.87,1.32,4.24,1.77,6.69,1.28
			C111.97,495.82,114.61,491.49,113.84,485.52"/>
		<path class="st2" d="M115.15,520.91c-0.26-0.02-0.52-0.03-0.78-0.03c-2.31,0-4.57,0.85-6.29,2.38c-1.75,1.56-2.75,3.63-2.81,5.83
			c-0.15,4.74,3.74,8.95,8.67,9.38c2.08,0.19,4.14-0.51,5.82-1.95c1.87-1.61,3.04-3.99,3.19-6.53
			C123.24,525.2,119.89,521.3,115.15,520.91"/>
	</g>
</g>
</svg>
