<svg xmlns="http://www.w3.org/2000/svg" width="100" height="100" viewBox="0 0 100 100">
  <!-- Background circle -->
  <circle cx="50" cy="50" r="48" fill="#e6e6e6" />
  
  <!-- Doctor figure -->
  <g>
    <!-- Head -->
    <circle cx="50" cy="40" r="20" fill="#f5d5c4" />
    
    <!-- Hair -->
    <path d="M30 40c0-11 9-20 20-20s20 9 20 20c0-5-2-12-10-16-8-4-20-2-25 5-2 3-5 6-5 11z" fill="#4a4a4a" />
    
    <!-- Face -->
    <path d="M42 38c0 1.1-.9 2-2 2s-2-.9-2-2 .9-2 2-2 2 .9 2 2zm20 0c0 1.1-.9 2-2 2s-2-.9-2-2 .9-2 2-2 2 .9 2 2z" fill="#333" />
    <path d="M50 48c-3 0-6-1.5-6-1.5s3 5.5 6 5.5 6-5.5 6-5.5-3 1.5-6 1.5z" fill="#333" />
    
    <!-- Body/Lab coat -->
    <path d="M30 60v20h40V60c0-5-5-10-10-10H40c-5 0-10 5-10 10z" fill="#fff" />
    <path d="M40 50v30h20V50" fill="#fff" />
    
    <!-- Stethoscope -->
    <path d="M45 65c0 0-5 5-5 10M55 65c0 0 5 5 5 10" stroke="#333" stroke-width="1.5" fill="none" />
    <circle cx="45" cy="75" r="2" fill="#333" />
    
    <!-- Collar/Tie -->
    <path d="M50 50v15" stroke="#0071BC" stroke-width="3" />
    <path d="M50 65l-3 5 3 5 3-5z" fill="#0071BC" />
  </g>
</svg>